STARTFONT 2.3
FONT -FontForge-Fontdiner Swanky-Book-R-Normal--32-320-72-72-P-202-ISO10646-1
SIZE 32 72 72  4
FONTBOUNDINGBOX 46 49 -8 -16
COMMENT "Generated by fontforge, http://fontforge.sourceforge.net"
COMMENT "Copyright (c) 2010 by Font Diner, Inc. All rights reserved."
STARTPROPERTIES 40
FOUNDRY "FontForge"
FAMILY_NAME "Fontdiner Swanky"
WEIGHT_NAME "Book"
SLANT "R"
SETWIDTH_NAME "Normal"
ADD_STYLE_NAME ""
PIXEL_SIZE 32
POINT_SIZE 320
RESOLUTION_X 72
RESOLUTION_Y 72
SPACING "P"
AVERAGE_WIDTH 202
CHARSET_REGISTRY "ISO10646"
CHARSET_ENCODING "1"
FONTNAME_REGISTRY ""
CHARSET_COLLECTIONS "ISO10646-1"
BITS_PER_PIXEL 4
FONT_NAME "FontdinerSwanky-Regular"
FACE_NAME "Fontdiner Swanky Regular"
COPYRIGHT "Copyright (c) 2010 by Font Diner, Inc. All rights reserved."
FONT_VERSION "1.001"
FONT_ASCENT 26
FONT_DESCENT 6
UNDERLINE_POSITION -3
UNDERLINE_THICKNESS 2
X_HEIGHT 17
CAP_HEIGHT 19
RAW_ASCENT 799
RAW_DESCENT 200
NORM_SPACE 10
RELATIVE_WEIGHT 40
RELATIVE_SETWIDTH 50
SUPERSCRIPT_X 0
SUPERSCRIPT_Y 14
SUPERSCRIPT_SIZE 20
SUBSCRIPT_X 0
SUBSCRIPT_Y 4
SUBSCRIPT_SIZE 20
AVG_LOWERCASE_WIDTH 203
AVG_UPPERCASE_WIDTH 247
ENDPROPERTIES
CHARS 231
STARTCHAR space
ENCODING 32
SWIDTH 320 0
DWIDTH 10 0
BBX 1 1 0 0
BITMAP
00
ENDCHAR
STARTCHAR exclam
ENCODING 33
SWIDTH 305 0
DWIDTH 10 0
BBX 10 28 0 -1
BITMAP
000EEDCB96
000FFFFFF9
000FFFFFF6
001FFFFFF3
001FFFFFF1
002FFFFFD0
003FFFFFA0
003FFFFF70
004FFFFF50
004FFFFF20
005FFFFE00
006FFFFB00
006FFFF900
007FFFF600
007FFFF300
008FFFF000
009FFFD000
009FFFA000
00AFFF7000
00BFFF4000
009EFF2000
0000130000
0168600000
2EFFFC0000
9FFFFF5000
8FFFFF6000
1BFFFB1000
0024300000
ENDCHAR
STARTCHAR quotedbl
ENCODING 34
SWIDTH 369 0
DWIDTH 12 0
BBX 12 10 0 12
BITMAP
222221122221
AFFFF58FFFF7
8FFFF36FFFF5
7FFFF25FFFF4
6FFFF14FFFF2
4FFFE03FFFF1
3FFFD01FFFF0
2FFFB00FFFD0
0FFFA00EFFC0
034430034430
ENDCHAR
STARTCHAR numbersign
ENCODING 35
SWIDTH 702 0
DWIDTH 22 0
BBX 23 22 0 0
BITMAP
0000049AB700005ACA000000
000008FFF900009FFB000000
000009FFF70000BFFA000000
00000AFFF50000CFF9000000
08AAADFFFA7776EFFB544300
0CFFFFFFFFFFFFFFFFFFFF10
0EFFFFFFFFFFFFFFFFFFFD00
1FFFFFFFFFFFFFFFFFFFFA00
16665EFFD44448FFF7322100
00000FFFB00007FFF4000000
00001FFFA00008FFF3000000
00002FFF80000AFFF2000000
00003FFF70000BFFF1111000
6CCDDFFFEEEEEFFFFFFFF400
AFFFFFFFFFFFFFFFFFFFF200
DFFFFFFFFFFFFFFFFFFFF000
7899CFFFBBCCCFFFFEFFD000
00008FFE00003FFFB0001000
00009FFD00005FFFA0000000
00009FFB00007FFFA0000000
0000AFF900008FFF80000000
000022000000110000000000
ENDCHAR
STARTCHAR dollar
ENCODING 36
SWIDTH 545 0
DWIDTH 17 0
BBX 18 28 0 -4
BITMAP
000001455510000000
000004FFFF10000000
000003FFFF00000000
000001FFFD00000010
000001FFFC00000520
0005BFFFFFC6000D10
01AFFFFFFFFFC25F10
0AFFFEA89DFFFEEF00
4FFFE200004CFFFE00
9FFFC00000009FFE00
AFFFF800000009FD00
8FFFFFD7200000AD00
2FFFFFFFFC72001A00
06FFFFFFFFFFA30200
005EFFFFFFFFFF9100
02019FFFFFFFFFFC10
0B10027DFFFFFFFF80
0EA0000028EFFFFFE0
1FF800000019FFFFF2
2FFFA1000000CFFFF1
4FFFFE820004EFFFC0
5FFFFFFFEDEFFFFE30
7F86DFFFFFFFFFC300
8A00038FFFD9730000
6100003FFF90000000
0000005FFFA0000000
0000006FFFC0000000
0000007EEEC0000000
ENDCHAR
STARTCHAR percent
ENCODING 37
SWIDTH 657 0
DWIDTH 21 0
BBX 22 27 0 -2
BITMAP
00000000000000C9400000
00035751000005FFFE3000
03DFFFFD40000BFFFD0000
1EFFFFFFF3002FFFF70000
7FFF41DFFA008FFFF10000
AFFB007FFD00EFFF900000
9FFC008FFD05FFFF300000
5FFF76EFF90BFFFB000000
0BFFFFFFD12FFFF5000000
019FFFFA208FFFD0000000
0001331000EFFF60000000
0000000006FFFE10000000
000000000CFFF800000000
000000003FFFF200000000
000000009FFFA000000000
00000001EFFF4000000000
00000006FFFC0003552000
0000000CFFF604DFFFFA20
0000003FFFE03FFFFFFFD1
0000009FFF80AFFE44EFF6
000001EFFF10DFF800AFFA
000006FFF900DFF800AFF9
00000CFFF3009FFE46FFF6
00003FFFB0002EFFFFFFC0
00009FFF500002BFFFF910
00007DFD00000002441000
0000003400000000000000
ENDCHAR
STARTCHAR ampersand
ENCODING 38
SWIDTH 668 0
DWIDTH 21 0
BBX 25 28 1 -4
BITMAP
000028BEEDA400000000000000
0008FFFFFFFF90000000000000
009FFFC54CFFF8000000000000
03FFFD1001EFFF100000000000
06FFFA00009FFF400000000000
06FFFC00007FFF400000000000
03FFFF60009FFF100000000000
00CFFFF401EFF8000000000000
003FFFFE2AFFC0000000000000
0008FFFFEFFC10000000000000
0000BFFFFFB100110000000000
00004FFFFF70000A0000000000
0007FFFFFFF400098000000000
008FFFCFFFFE2006F500000000
07FFFB0BFFFFD104FE20000000
2FFFF201EFFFFA06FFD1000000
9FFFD0004FFFFF8CFFFA000000
EFFFD00008FFFFFFF99C600000
FFFFF30000BFFFFFB000001430
EFFFFD30002EFFFFD247ADE600
9FFFFFFA88AFFFFFFFFFFB2000
2EFFFFFFFFFFFFFFFFFE600000
04EFFFFFFFFB4BFFFFB2000000
0018DFFFC8200BFFE700000000
0000011000004FFC2000000000
000000000000DF700000000000
000000000006C2000000000000
00000000001600000000000000
ENDCHAR
STARTCHAR quotesingle
ENCODING 39
SWIDTH 177 0
DWIDTH 6 0
BBX 6 10 0 12
BITMAP
466662
9FFFF4
8FFFF3
7FFFF2
5FFFF0
4FFFE0
3FFFC0
1FFFB0
0FFFA0
000100
ENDCHAR
STARTCHAR parenleft
ENCODING 40
SWIDTH 384 0
DWIDTH 12 0
BBX 12 32 1 -5
BITMAP
000000000372
00000005CF40
000002CFF700
00004EFFA000
0003EFFE1000
001EFFF60000
009FFFD00000
02FFFF700000
07FFFF200000
0BFFFD000000
0EFFFA000000
2FFFF8000000
4FFFF6000000
5FFFF5000000
5FFFF5000000
6FFFF5000000
5FFFF6000000
5FFFF7000000
4FFFF9000000
2FFFFB000000
0EFFFE000000
0BFFFF300000
06FFFF700000
01FFFFD00000
009FFFF40000
001EFFFB0000
0005FFFF3000
00007FFFB000
000006FFF600
0000004CFE10
000000006DB0
000000000043
ENDCHAR
STARTCHAR parenright
ENCODING 41
SWIDTH 375 0
DWIDTH 12 0
BBX 12 32 -1 -5
BITMAP
075000000000
01DE71000000
003EFE400000
0005FFF80000
0000AFFF7000
00002FFFF500
000009FFFD00
000003FFFF60
000000CFFFB0
0000009FFFF1
0000005FFFF4
0000003FFFF6
0000001FFFF8
0000000FFFF9
0000000FFFFA
0000000FFFFB
0000001FFFFA
0000001FFFF9
0000003FFFF8
0000006FFFF6
0000009FFFF4
000000DFFFF1
000002FFFFB0
000007FFFF60
00000DFFFD00
00005FFFF500
0000DFFFA000
0006FFFC0000
001EFFA10000
00AFE6000000
06E910000000
161000000000
ENDCHAR
STARTCHAR asterisk
ENCODING 42
SWIDTH 640 0
DWIDTH 21 0
BBX 21 21 0 0
BITMAP
0000003100003000000000
00005BF70001EA10000000
001DFFFD0005FFE6000000
0008FFFF500BFFFFB20000
0000CFFFC01FFFFFD10000
00002EFFF47FFFFE200000
000006FFFACFFFF4000000
374100AFFFFFFF60000000
6FFFDA8FFFFFF934679B50
7FFFFFFFFFFFFFFFFFFF50
8FFFFFFFFFFFFFFFFFFF40
9FFFFFFFFFFFFFFFFFFF20
AFFEB98FFFFFF9568ABD10
441000BFFFFFFF30000000
000007FFFAEFFFE2000000
00004FFFF39FFFFC100000
0001EFFFB04FFFFFA00000
000BFFFF400EFFFFB20000
0004EFFC0009FFC4000000
00001BF50004C400000000
0000006000000000000000
ENDCHAR
STARTCHAR plus
ENCODING 43
SWIDTH 607 0
DWIDTH 19 0
BBX 20 19 0 1
BITMAP
0000000DEDDC40000000
0000000DFFFF40000000
0000000DFFFF40000000
0000000CFFFF30000000
0000000CFFFF20000000
0000000BFFFF20000000
4887766CFFFF31000000
8FFFFFFFFFFFFFFFEDD1
9FFFFFFFFFFFFFFFFFF0
9FFFFFFFFFFFFFFFFFE0
AFFFFFFFFFFFFFFFFFD0
6998887CFFFE54443320
00000009FFFC00000000
00000009FFFC00000000
00000008FFFB00000000
00000008FFFB00000000
00000007FFFA00000000
00000007FFF900000000
00000004ABC700000000
ENDCHAR
STARTCHAR comma
ENCODING 44
SWIDTH 226 0
DWIDTH 7 0
BBX 7 10 0 -7
BITMAP
00242000
09FFFB10
6FFFFFA0
AFFFFFE0
6FFFFFD0
07CFFF80
001FFF20
006FF500
00CD5000
02710000
ENDCHAR
STARTCHAR hyphen
ENCODING 45
SWIDTH 549 0
DWIDTH 18 0
BBX 15 6 1 8
BITMAP
0DDCBA9876543210
0EFFFFFFFFFFFFA0
0FFFFFFFFFFFFF90
0FFFFFFFFFFFFF80
1FFFFFFFFFFFFF70
1BA9988766554310
ENDCHAR
STARTCHAR period
ENCODING 46
SWIDTH 226 0
DWIDTH 7 0
BBX 7 6 0 -3
BITMAP
01798200
1DFFFE30
9FFFFFC0
AFFFFFD0
3EFFFF70
029BA500
ENDCHAR
STARTCHAR slash
ENCODING 47
SWIDTH 600 0
DWIDTH 19 0
BBX 22 32 -1 -3
BITMAP
0000000000000000100000
0000000000000001E91000
0000000000000009FFD400
000000000000003FFFFFA1
00000000000000BFFFFFB0
00000000000005FFFFFF20
0000000000000DFFFFF800
0000000000007FFFFFD100
000000000002EFFFFF4000
00000000000AFFFFFA0000
00000000003FFFFFE20000
0000000000CFFFFF600000
0000000006FFFFFC000000
000000001EFFFFF3000000
000000008FFFFF90000000
00000002FFFFFD10000000
0000000BFFFFF500000000
0000004FFFFFB000000000
000000DFFFFE2000000000
000007FFFFF70000000000
00001EFFFFC00000000000
00009FFFFF400000000000
0003FFFFF9000000000000
000BFFFFE1000000000000
005FFFFF60000000000000
00DFFFFB00000000000000
07FFFFF200000000000000
2EFFFF8000000000000000
AFFFFD0000000000000000
5DFFF40000000000000000
018FA00000000000000000
0002100000000000000000
ENDCHAR
STARTCHAR zero
ENCODING 48
SWIDTH 740 0
DWIDTH 24 0
BBX 23 21 0 0
BITMAP
000000000023320000000000
00000028CEFFFFFB71000000
00002BFFFFFFFFFFFE700000
0004EFFFFFFFEFFFFFFC1000
004FFFFFF930018FFFFFB000
01DFFFFE30000004FFFFF800
08FFFFF4000000008FFFFF20
0DFFFFA0000000001FFFFF70
2FFFFF40000000000BFFFFC0
4FFFFF100000000008FFFFE0
5FFFFF000000000006FFFFF0
5FFFFF000000000007FFFFE0
3FFFFF200000000008FFFFD0
1EFFFF60000000000CFFFF90
0AFFFFB0000000002FFFFF40
03FFFFF400000000AFFFFC00
009FFFFE30000009FFFFF300
000BFFFFF94347DFFFFF4000
0001AFFFFFFFFFFFFFD40000
000005CFFFFFFFFFE8100000
000000048BDEDC9510000000
ENDCHAR
STARTCHAR one
ENCODING 49
SWIDTH 503 0
DWIDTH 16 0
BBX 20 25 -2 -1
BITMAP
00000000000002000000
00000000258CFC000000
000147AEFFFFFC000000
59CFFFFFFFFFFB000000
0258BEFFFFFFFB000000
00000036FFFFFA000000
00000000FFFFFA000000
00000000FFFFF9000000
00000000EFFFF9000000
00000000DFFFF9000000
00000000DFFFF8000000
00000000CFFFF8000000
00000000CFFFF7000000
00000000BFFFF7000000
00000000AFFFF6000000
00000000AFFFF6000000
000000009FFFF5000000
000000008FFFF5000000
000000008FFFF4000000
000000007FFFF4000000
000000006FFFF3000000
000000007FFFF4000000
0000005CFFFFFFA30000
00017DFFFFFFFFFFA300
017DEEEEEEEEEEEEEEB4
ENDCHAR
STARTCHAR two
ENCODING 50
SWIDTH 638 0
DWIDTH 20 0
BBX 21 26 -1 -1
BITMAP
0070000000000000000000
00D3000000000000000000
00BD100049DEEDA5000000
009FA03CFFFFFFFFD40000
007FFAFFFFFFFFFFFF7000
005FFFFFFC757CFFFFF500
003FFFFF6000007FFFFE00
001FFFF50000000BFFFF40
000EFF8000000007FFFF70
000CFD0000000007FFFF70
000AF6000000000AFFFF50
0008E1000000002FFFFF10
0006A000000001CFFFF800
0004500000005EFFFFB000
00022000005CFFFFF90330
000000005DFFFFFC400A20
0000002CFFFFFB40003F10
000006EFFFFB400000BF00
00008FFFFE60000003FE00
0009FFFFE30000000BFE00
006FFFFF200000003FFD00
02FFFFF823344556CFFC00
0AFFFFFFFFFFFFFFFFFB00
0EFFFFFFFFFFFFFFFFFA00
3FFFFFFFFFFFFFFFFFFA00
155677889AABCCDDEFF900
ENDCHAR
STARTCHAR three
ENCODING 51
SWIDTH 620 0
DWIDTH 20 0
BBX 21 29 -1 -4
BITMAP
0300000000000000000000
0A10000000000000000000
08A0000036775200000000
05F5006DFFFFFFC6000000
02FE3CFFFFFFFFFFC20000
00EFFFFFFEDEFFFFFE2000
00BFFFFB30006EFFFFC000
007FFF70000003EFFFF300
004FF8000000008FFFF600
001FD0000000005FFFF800
000D50000000007FFFF600
00090000000002EFFFF200
0002000120016DFFFFA000
00000005FFFFFFFFFC1000
00000006FFFFFFFFFD2000
00000006FFFFFFFFFFD100
000500011125BFFFFFF800
000C0000000008FFFFFE00
002F4000000000EFFFFF20
006FC000000000BFFFFF20
00AFF700000000DFFFFF00
00EFFF60000007FFFFFA00
02FFFFFA30039FFFFFE300
06FEEFFFFFFFFFFFFF5000
0AF52CFFFFFFFFFFD40000
0D90005CFFFFFFB6000000
2C00000014553100000000
5200000000000000000000
1000000000000000000000
ENDCHAR
STARTCHAR four
ENCODING 52
SWIDTH 606 0
DWIDTH 19 0
BBX 21 28 -2 -3
BITMAP
0000000000000000300000
0000000000000004C00000
000000000000002EC00000
00000000000001DFB00000
0000000000000BFFB00000
0000000000009FFFB00000
000000000006FFFFA00000
00000000004FFFFFA00000
0000000002EFFFFFA00000
000000001DFFFFFF900000
00000000BFFFFFFF900000
00000009FFFEFFFF900000
0000007FFFD6FFFF800050
000005FFFD25FFFF800490
00003EFFE305FFFF700C90
0001DFFF4005FFFF705F90
001CFFF50004FFFF71DF80
00AFFFFDDDEEFFFFFFFF80
08FFFFFFFFFFFFFFFFFF70
3BBBBBAAAA9AFFFFA8EF70
000000000002FFFF508F60
000000000002FFFF402F60
000000000001FFFF400A50
000000000000FFFF300350
000000000017FFFF700010
000000004AFFFFFFFD5000
0000027DFFFFFFFFFFFC40
0000022222222221111110
ENDCHAR
STARTCHAR five
ENCODING 53
SWIDTH 610 0
DWIDTH 20 0
BBX 19 26 0 -2
BITMAP
00000000000000246820
00000001468ACEFFFF20
1358ACEFFFFFFFFFFF00
EFFFFFFFFFFFFFFFFD00
BFFFFFFFFFFFEDBFFB00
8FFFFB976421000CF900
6FFFF20000000007F700
3FFFF30000000001F500
0FFFF40000000000B300
0DFFFBBDFFEC94006100
0AFFFFFFFFFFFFD41000
07FFFFFFFFFFFFFF7000
04FFFB7558EFFFFFF500
02FC30000019FFFFFE00
007000000000AFFFFF40
0000000000003FFFFF70
0210000000001FFFFF80
0680000000002FFFFF70
08F6000000007FFFFF40
0BFF70000002EFFFFE10
0DFFFC51017EFFFFF800
0FFFFFFFFFFFFFFFD100
2FFAFFFFFFFFFFFE3000
5F704DFFFFFFFFC20000
7700006BEFFDA5000000
20000000000000000000
ENDCHAR
STARTCHAR six
ENCODING 54
SWIDTH 619 0
DWIDTH 20 0
BBX 20 30 0 -3
BITMAP
00000000000000001000
00000000000000008000
0000000000000002D000
0000000000000008E000
000000003430000DF100
0000018EFFFE813FF300
00003DFFFFFFFEBFF500
0003EFFFFFFFFFFFF600
001DFFFFFECDFFFFF800
008FFFFF900029FFFA00
01EFFFFA0000002CFC00
07FFFFF200000001BD00
0DFFFFC3678874100B00
2FFFFFFFFFFFFFE92110
6FFFFFFFFFFFFFFFE500
9FFFFFFF9435BFFFFF40
CFFFFFE400000AFFFFD0
DFFFFF60000001EFFFF4
EFFFFD000000008FFFF8
FFFFF9000000005FFFFA
DFFFF8000000003FFFFA
CFFFF9000000004FFFF9
8FFFFB000000006FFFF7
4FFFFE10000000AFFFF3
0CFFFF70000003FFFFC0
03FFFFF500003DFFFF30
006FFFFFB88BFFFFF500
0004EFFFFFFFFFFD4000
000017CFFFFFEB500000
00000001233200000000
ENDCHAR
STARTCHAR seven
ENCODING 55
SWIDTH 598 0
DWIDTH 19 0
BBX 21 25 0 -2
BITMAP
BDCBAA9887665433211000
8FFFFFFFFFFFFFFFFFFFA0
4FFFFFFFFFFFFFFFFFFF40
0EFFFEEFFFFFFFFFFFFD00
09FFF30012346FFFFFF700
05FFE00000005FFFFFF100
01EFB00000009FFFFFA000
00AF70000000CFFFFF4000
006F30000001FFFFFD0000
001E00000005FFFFF70000
000700000009FFFFF10000
00000000000CFFFFA00000
00000000001FFFFF400000
00000000005FFFFD000000
00000000009FFFF6000000
0000000000CFFFE1000000
0000000001FFFF90000000
0000000005FFFF30000000
0000000009FFFC00000000
000000000CFFF600000000
000000002FFFE100000000
00000029FFFFE710000000
000029FFFFFFFFE6000000
0019FFFFFFFFFFFFD60000
00234455566778899A8100
ENDCHAR
STARTCHAR eight
ENCODING 56
SWIDTH 642 0
DWIDTH 21 0
BBX 21 26 0 -3
BITMAP
0000000479A96200000000
000007DFFFFFFFC5000000
0002DFFFFFFFFFFFA10000
001EFFFFC436DFFFFB0000
00BFFFFB10002DFFFF7000
02FFFFF3000006FFFFD000
06FFFFD0000001FFFFF200
07FFFFB0000000FFFFF300
06FFFFD0000001FFFFF200
03FFFFF1000005FFFFE000
00CFFFF900001CFFFF9000
004FFFFFA546CFFFFD1000
0009FFFFFFFFFFFFF50000
009FFFFFFFFFFFFFFF5000
08FFFFFFE98AEFFFFFF400
3FFFFFF910002BFFFFFD00
AFFFFFB0000001DFFFFF60
EFFFFF300000007FFFFFA0
FFFFFF100000005FFFFFB0
DFFFFF200000007FFFFF90
AFFFFF80000000CFFFFF60
3FFFFFF3000006FFFFFD00
08FFFFFE60019FFFFFF300
008FFFFFFFEFFFFFFE4000
0003BFFFFFFFFFFE810000
00000269CDDDB851000000
ENDCHAR
STARTCHAR nine
ENCODING 57
SWIDTH 610 0
DWIDTH 20 0
BBX 20 28 0 -5
BITMAP
0000037BCDCB72000000
0002BFFFFFFFFFA10000
005FFFFFFFFFFFFD3000
04FFFFF92004DFFFE200
0DFFFF8000002EFFFB00
6FFFFE00000009FFFF40
AFFFFA00000004FFFFA0
DFFFF800000002FFFFE0
EFFFF700000001FFFFF3
EFFFF900000003FFFFF4
CFFFFD00000008FFFFF5
8FFFFF6000002EFFFFF5
2EFFFFE40004DFFFFFF3
06FFFFFFCBDFFFFFFFF2
006FFFFFFFFFFFFFFFE0
0003CFFFFFFFFEFFFFB0
0440038BCCB83AFFFF80
03E3000000001EFFFF20
01FF50000000AFFFFB00
00EFFA300009FFFFF300
00CFFFFB88DFFFFF9000
00AFFFFFFFFFFFFC0000
008FFEFFFFFFFFB10000
006FE16DFFFFD6000000
004F7000355300000000
002E1000000000000000
00080000000000000000
00010000000000000000
ENDCHAR
STARTCHAR colon
ENCODING 58
SWIDTH 223 0
DWIDTH 7 0
BBX 7 14 0 -3
BITMAP
04AC9200
7FFFFE20
EFFFFF80
EFFFFF80
5FFFFD20
02786100
00000000
00000000
02896000
5FFFFC10
DFFFFF70
EFFFFF90
7FFFFE30
05AB9200
ENDCHAR
STARTCHAR semicolon
ENCODING 59
SWIDTH 228 0
DWIDTH 7 0
BBX 7 18 0 -7
BITMAP
03AC9200
5FFFFE20
CFFFFF90
CFFFFF90
4EFFFE20
01787100
00000000
00000000
00341000
1CFFF700
BFFFFF50
EFFFFF90
BFFFFF80
19DFFF30
006FFB00
00BFD200
02FB2000
05500000
ENDCHAR
STARTCHAR less
ENCODING 60
SWIDTH 563 0
DWIDTH 18 0
BBX 19 21 0 0
BITMAP
00000000000000007A00
000000000000005DFE00
0000000000002BFFFF30
000000000018FFFFFF70
0000000005DFFFFFFFB0
00000003BFFFFFFFFFB0
0000019FFFFFFFFFC400
00006EFFFFFFFFD50000
003CFFFFFFFFD6000000
1AFFFFFFFFE600000000
8FFFFFFFE71000000000
03CFFFFFA10000000000
0007EFFFFC2000000000
00002BFFFFE400000000
0000006EFFFF70000000
00000001AFFFFA100000
0000000004DFFFC20000
000000000018FFFE4000
0000000000003CFFF600
000000000000006EF900
0000000000000002A600
ENDCHAR
STARTCHAR equal
ENCODING 61
SWIDTH 531 0
DWIDTH 17 0
BBX 17 13 0 2
BITMAP
BDCBAA987765543210
DFFFFFFFFFFFFFFFB0
EFFFFFFFFFFFFFFFA0
EFFFFFFFFFFFFFFF90
EFFFFFFFFFFFFFFF80
777666554433221100
000000000000000010
79AABBCCCDDEEFFFA0
DFFFFFFFFFFFFFFFA0
DFFFFFFFFFFFFFFF90
EFFFFFFFFFFFFFFF90
89ABBCDEFFFFFFFF80
000000000012334530
ENDCHAR
STARTCHAR greater
ENCODING 62
SWIDTH 576 0
DWIDTH 18 0
BBX 19 22 0 -1
BITMAP
09810000000000000000
0EFD5000000000000000
3FFFFB30000000000000
7FFFFFF8100000000000
BFFFFFFFE60000000000
BFFFFFFFFFC300000000
04CFFFFFFFFF91000000
0005CFFFFFFFFE600000
000005DFFFFFFFFC4000
00000006DFFFFFFFFA20
0000000006EFFFFFFF80
00000000009FFFFFC300
000000001CFFFFF70000
00000003EFFFFB200000
0000006FFFFE60000000
000009FFFFA100000000
0001CFFFD40000000000
003DFFF8100000000000
05FFFC30000000000000
07FE7000000000000000
06B20000000000000000
01000000000000000000
ENDCHAR
STARTCHAR question
ENCODING 63
SWIDTH 592 0
DWIDTH 19 0
BBX 19 29 0 -1
BITMAP
00700000000000000000
01F30000000000000000
04FC0134432000000000
07FFFFFFFFFEB6000000
0AFFFFFFFFFFFFD50000
0EFFA42248DFFFFF8000
2FE400000008FFFFF700
5F40000000007FFFFF10
8600000000000BFFFF70
70000000000006FFFFA0
10000000000005FFFFC0
00000000000008FFFFB0
0000000000001EFFFF80
000000000001BFFFFF30
00008B63237EFFFFF900
0000AFFFFFFFFFFFB100
0000CFFFFFFFFFE70000
0000EFFFFCBA74000000
0001FFFFF10000000000
0003FFFFA00000000000
0005FFFF300000000000
0003BFFC000000000000
00000143000000000000
00255100000000000000
09FFFF80000000000000
4FFFFFF6000000000000
5FFFFFFA000000000000
1CFFFFF6000000000000
017CEC60000000000000
ENDCHAR
STARTCHAR at
ENCODING 64
SWIDTH 792 0
DWIDTH 25 0
BBX 27 24 0 -2
BITMAP
0000000000256775300000000000
00000005AEFFFFFFFEA300000000
000005DFFFFFFFFFFFFFB2000000
0001BFFFFD7310015AFFFE400000
001CFFFE50000000004EFFF40000
00BFFFC1006BEEDB5002EFFE2000
06FFFD102CFFFFFFFA005FFFA000
1EFFF400DFF7218FFF600CFFF300
6FFFB005FFF3000CFFC006FFF900
AFFF6006FFF70008FFE003FFFE00
DFFF3002EFE20007FFF100FFFF10
EFFF100025444318FFF000EFFF20
FFFF10007DFFFFFFFFF000EFFF30
EFFF2008FFFD889EFFD000FFFF20
CFFF400EFFE1000EFFB001FFFE00
AFFF901FFFD0000FFFA004FFFA00
5FFFE10DFFF9447FFF8007FFF500
0DFFF803EFFFFFFFFF800BFFD000
04FFFF4016ABB98FFF902FFF4000
008FFFF50000000DFFE8DFF70000
0007FFFFA2000002CFFFFE600000
00003BFFFFC73000058861000000
00000027BDFFFFEC910000000000
0000000000122321000000000000
ENDCHAR
STARTCHAR A
ENCODING 65
SWIDTH 788 0
DWIDTH 25 0
BBX 37 30 -5 -8
BITMAP
00000003654433211000000000000000000000
000000004CFFFFFFFFE5000000000000000000
00000000004CFFFFFFFC000000000000000000
0000000000005CFFFFFF500000000000000000
000000000000005DFFFFC00000000000000000
000000000000000CFFFFF50000000000000000
000000000000005FFFFFFC0000000000000000
00000000000000DFFFFFFF4000000000000000
00000000000006FFBEFFFFC000000000000000
0000000000000DFF28FFFFF400000000000000
0000000000007FF901FFFFFB00000000000000
000000000001EFE1009FFFFF40000000000000
000000000007FF70002FFFFFB0000000000000
00000000001EFE10000AFFFFF3000000000000
00000000008FFEDCCBABFFFFFB000000000000
0000000001EFFFFFFFFFFFFFFF300000000000
0000000009FFFFFFFFFFFFFFFFB00000000000
000000002FFD665543322DFFFFF30000000000
000000009FF60000000007FFFFFA0000000000
00000002FFC00000000001EFFFFF3000000000
0000017DFF6000000000009FFFFFA000000000
0003AFFFFFF800000000002FFFFFF200000000
06CFFFFFFFFFC3000000000BFFFFFA00000000
46789ABCDEFFFF8100000004FFFFFFB7200000
000000000001234300000000DFFFFFFFFD8400
000000000000000000000008FFFFFFFFFD9510
00000000000000000000007FFFFFFD95100000
0000000000000000000006FFFD951000000000
000000000000000000006C9510000000000000
00000000000000000000100000000000000000
ENDCHAR
STARTCHAR B
ENCODING 66
SWIDTH 774 0
DWIDTH 25 0
BBX 29 26 -4 -4
BITMAP
144333222111100000000000000000
05DFFFFFFFFFFFFFEDCA7410000000
0018FFFFFFFFFFFFFFFFFFFC610000
00002AFFFFFFFFFFFFFFFFFFFE6000
0000004EFFFFD4322358CFFFFFF800
0000000CFFFFD000000002AFFFFF40
0000000BFFFFE0000000000BFFFFA0
0000000AFFFFE00000000007FFFFB0
00000008FFFFE0000000000BFFFF90
00000007FFFFF000000002AFFFFF20
00000006FFFFF2101247BFFFFFF600
00000004FFFFFFFFFFFFFFFFFD4000
00000003FFFFFFFFFFFFFFFE810000
00000002FFFFFFFFFFFFFFF9300000
00000000FFFFFA579CEFFFFFF80000
00000000EFFFF8000015CFFFFFA000
00000000DFFFF90000000AFFFFF500
00000000CFFFF900000003FFFFFA00
00000000AFFFFA00000005FFFFFC00
000000009FFFFA0000003EFFFFF900
000000008FFFFB00004AFFFFFFE200
000000007FFFFC57AEFFFFFFFC2000
0000001AFFFFFFFFFFFFFFFC600000
000007EFFFFFFFFFFFFD9620000000
0004DFFFFFEDBA8642000000000000
018B98643100000000000000000000
ENDCHAR
STARTCHAR C
ENCODING 67
SWIDTH 766 0
DWIDTH 25 0
BBX 25 27 0 -3
BITMAP
00000000000000000000000420
00000000000000000000001D00
0000000037ACEEDB720000BC00
0000005CFFFFFFFFFFA208FA00
00002BFFFFFFFFFFFFFE7FF700
0002EFFFFFFEA879DFFFFFF500
002DFFFFFE71000005EFFFF300
00AFFFFFE3000000002DFFF000
04FFFFFF300000000002EFD000
0BFFFFF90000000000006FA000
1FFFFFF20000000000000C8000
3FFFFFD0000000000000065000
5FFFFFA0000000000000012000
5FFFFF90000000000000000000
4FFFFFA0000000000000000000
3FFFFFB0000000000000000000
1FFFFFE0000000000000030000
0BFFFFF4000000000000082000
06FFFFFA0000000000000D5000
00DFFFFF5000000000006F8000
004FFFFFE40000000003EFB000
0007FFFFFF810000006EFFE000
00008FFFFFFFB978AEFFFFF200
000005EFFFFFFFFFFFFFB4F500
00000018EFFFFFFFFFC6007800
00000000048ABCBA7300000700
00000000000000000000000100
ENDCHAR
STARTCHAR D
ENCODING 68
SWIDTH 833 0
DWIDTH 27 0
BBX 31 23 -4 -1
BITMAP
16766655555555555654300000000000
006CFFFFFFFFFFFFFFFFFEB610000000
00004AFFFFFFFFFFFFFFFFFFF8100000
00000029EFFFFFFDBBBCEFFFFFD30000
000000001CFFFFF9000005DFFFFE3000
0000000009FFFFF80000000BFFFFD100
0000000008FFFFF700000001EFFFF900
0000000007FFFFF6000000007FFFFF10
0000000006FFFFF6000000002FFFFF60
0000000004FFFFF5000000000EFFFF90
0000000003FFFFF4000000000DFFFFA0
0000000002FFFFF3000000000CFFFFA0
0000000001FFFFF3000000000CFFFF90
0000000000EFFFF2000000000EFFFF70
0000000000DFFFF1000000001FFFFF40
0000000000CFFFF0000000005FFFFE00
0000000000CFFFE000000000BFFFF900
0000000000BFFFE000000006FFFFF200
0000000000BFFFD00000007FFFFF5000
0000000003DFFFE88889AEFFFFF70000
00000002AFFFFFFFFFFFFFFFFD300000
0000019FFFFFFFFFFFFFFFDA40000000
00017EEDCBA988765544310000000000
ENDCHAR
STARTCHAR E
ENCODING 69
SWIDTH 781 0
DWIDTH 25 0
BBX 27 25 -3 -1
BITMAP
0000000000000000000000000110
00000000000012346789ABCDFFA0
2456789BCDEFFFFFFFFFFFFFFFA0
05AEFFFFFFFFFFFFFFFFFEEFFF90
00015AEFFFFFFD765431003FFF80
00000006FFFFFA000000000CFF80
00000002FFFFFA0000020005FF70
00000001FFFFF90000090000DF60
00000001FFFFF900006B00006F60
00000000FFFFF90000DB00000E50
00000000FFFFF80006FB00000740
00000000EFFFF8001EFA00000130
00000000EFFFF9339FFA00000000
00000000DFFFFFFFFFFA00000300
00000000DFFFFFFFFFF900000900
00000000CFFFFFFFFFF900002C00
00000000CFFFF7129FF900007C00
00000000BFFFF6001DF80000CC00
00000000BFFFF60004F80003FC00
00000000AFFFF50000980008FC00
00000000AFFFF5000015000DFC00
00000000AFFFF4000000003FFC00
0000028DFFFFFFFFFFFFFFFFFC00
0005BFFFFFFFFFFFFFFFFFFFFD00
039BBBBBAAAAAAAAA99999999700
ENDCHAR
STARTCHAR F
ENCODING 70
SWIDTH 731 0
DWIDTH 23 0
BBX 26 25 -3 -2
BITMAP
000000000000012345689ABCD6
012356789BCDEFFFFFFFFFFFF6
16CFFFFFFFFFFFFFFFFFFFFFF6
00027CFFFFFFFD98754213FFF6
00000029FFFFF700000000CFF6
00000005FFFFF6000000007FF6
00000005FFFFF6000022001FF6
00000004FFFFF60000B2000AF5
00000004FFFFF50004F20005F5
00000003FFFFF5000CF20000E5
00000003FFFFF5006FF1000085
00000003FFFFF745EFF1000035
00000002FFFFFFFFFFF1000002
00000002FFFFFFFFFFF1000000
00000001FFFFFEFFFFF0000000
00000001FFFFF302EFF0000000
00000000FFFFF3007FF0000000
00000000FFFFF3000DE0000000
00000000FFFFF20004E0000000
00000000EFFFF2000090000000
00000000EFFFF2000010000000
00000000EFFFF2000000000000
0000017DFFFFFE820000000000
0003AFFFFFFFFFFFB400000000
017BBBBBBBBBBBBCCC93000000
ENDCHAR
STARTCHAR G
ENCODING 71
SWIDTH 828 0
DWIDTH 27 0
BBX 29 27 0 -2
BITMAP
000000000000000000000001000000
00000000000000000000003A000000
0000000000000110000004E9000000
0000000059CFFFFEB7204EF8000000
0000008EFFFFFFFFFFFAFFF7000000
00003DFFFFFFFFFFFFFFFFF6000000
0004EFFFFFFC8657CFFFFFF4000000
002EFFFFFD40000004DFFFF3000000
00BFFFFFD2000000001CFFF2000000
05FFFFFF400000000001DFF1000000
0BFFFFFA0000000000003FE0000000
1FFFFFF500000000000009D0000000
3FFFFFF100000000000001B0000000
5FFFFFE00000000000000030000000
5FFFFFD000039CCCCCCCCCCCBBBB60
4FFFFFE00000028EFFFFFFFFFE8100
3FFFFFF0000000005AFFFFFD600000
0EFFFFF300000000005FFFF9000000
0BFFFFF800000000004FFFFA000000
05FFFFFE10000000005FFFFC000000
00DFFFFF90000000008FFFFD000000
004FFFFFF800000002EFFFFE000000
0007FFFFFFB300004DFFFFFF100000
00007FFFFFFFECCEFFFFAAFF200000
000004CFFFFFFFFFFFE7009F400000
00000005AEFFFFFEB6100007500000
000000000023432000000000100000
ENDCHAR
STARTCHAR H
ENCODING 72
SWIDTH 797 0
DWIDTH 26 0
BBX 31 26 -3 -3
BITMAP
00000000000002676666666555555420
0000000000000018EFFFFFFFFFFFC500
000000000000000016DFFFFFFFB40000
5CEEEEDDDDDDCCCB5007FFFFF6000000
005CFFFFFFFFFE710004FFFFF5000000
00003AFFFFFE60000004FFFFF4000000
000000EFFFFB00000003FFFFF4000000
000000DFFFFB00000003FFFFF3000000
000000DFFFFA00000003FFFFF3000000
000000DFFFFA00000002FFFFF3000000
000000CFFFFA00000002FFFFF2000000
000000CFFFF900000001FFFFF2000000
000000BFFFFB55555555FFFFF1000000
000000BFFFFFFFFFFFFFFFFFF1000000
000000AFFFFFFFFFFFFFFFFFF1000000
000000AFFFFFEDBA8754FFFFF0000000
000000AFFFF800000000EFFFF0000000
0000009FFFF800000000EFFFE0000000
0000009FFFF700000000DFFFE0000000
0000008FFFF700000000DFFFE0000000
0000008FFFF700000003EFFFE4000000
0000007FFFF7000016CFFFFFFFD82000
0000007FFFF70039EFFFFFFFFFFFEB50
000016DFFFFD72000000000000000000
005AFFFFFFFFFFC61000000000000000
38AAAAAAAAAAAAAAA610000000000000
ENDCHAR
STARTCHAR I
ENCODING 73
SWIDTH 445 0
DWIDTH 14 0
BBX 20 26 -3 -3
BITMAP
11000000000000000000
28EFFFFFFEEEEEEDDDA4
0005CFFFFFFFFFFFA400
0000039FFFFFFD710000
00000006FFFFF6000000
00000005FFFFF6000000
00000004FFFFF5000000
00000004FFFFF5000000
00000003FFFFF5000000
00000002FFFFF4000000
00000002FFFFF4000000
00000001FFFFF3000000
00000001FFFFF3000000
00000000FFFFF3000000
00000000FFFFF2000000
00000000EFFFF2000000
00000000DFFFF1000000
00000000DFFFF1000000
00000000CFFFF0000000
00000000CFFFF0000000
00000000BFFFF0000000
00000000AFFFE0000000
00000000AFFFE0000000
00000039EFFFFB500000
00016CFFFFFFFFFE8200
016BCCCCCCCCCCCCCC82
ENDCHAR
STARTCHAR J
ENCODING 74
SWIDTH 718 0
DWIDTH 23 0
BBX 31 28 -4 -4
BITMAP
00000000000000000000000000247610
00000000000000000001368ADFFD5000
00000000000002579CEFFFFFFE700000
0000000368BDFFFFFFFFFFFE81000000
0000000024679BDFFFFFFFF200000000
000000000000000028FFFFF300000000
000000000000000004FFFFF400000000
000000000000000001FFFFF600000000
000000000000000000DFFFF900000000
000000000000000000BFFFFB00000000
0000000000000000008FFFFD00000000
0000000000000000006FFFFF00000000
0000000000000000003FFFFF20000000
0000000000000000001FFFFF40000000
0000000000000000000EFFFF50000000
0000000000000000000EFFFF60000000
0000000000000000000DFFFF70000000
0000000000000000000CFFFF70000000
18CCCCCCCCCCC810000DFFFF60000000
004CFFFFFFFC4000000EFFFF40000000
00004CFFFE600000001FFFFF20000000
000001FFFE000000004FFFFD00000000
000000CFFF400000009FFFF800000000
0000006FFFC0000003FFFFE200000000
0000000CFFFA10005EFFFF6000000000
00000002EFFFFCBEFFFFF80000000000
000000002CFFFFFFFFFD500000000000
00000000004ADEFEC950000000000000
ENDCHAR
STARTCHAR K
ENCODING 75
SWIDTH 934 0
DWIDTH 30 0
BBX 38 27 -2 -3
BITMAP
00000001123344566761000000000000000000
5BDDEFFFFFFFFFFFC500000000000000000000
004AEFFFFFFFFE930278888888888888885000
000016CFFFFFB1000016CFFFFFFFFFFD820000
0000006FFFFF9000000004AFFFFFFA40000000
0000006FFFFF8000000003CFFFE61000000000
0000005FFFFF800000019FFFF9100000000000
0000004FFFFF7000006EFFFD40000000000000
0000003FFFFF70004CFFFF8000000000000000
0000003FFFFF601AFFFFC30000000000000000
0000002FFFFF67EFFFF9000000000000000000
0000001FFFFFEFFFFFFE200000000000000000
0000000FFFFFFFF9EFFFD10000000000000000
0000000EFFFFFA206FFFFB0000000000000000
0000000EFFFF50000AFFFF9000000000000000
0000000DFFFF300001EFFFF600000000000000
0000000CFFFF3000004FFFFF40000000000000
0000000BFFFF30000009FFFFE2000000000000
0000000BFFFF20000001DFFFFC100000000000
0000000AFFFF200000003FFFFFA00000000000
00000009FFFF2000000007FFFFF80000000000
0000006DFFFFB510000000BFFFFF5000000000
00017EFFFFFFFFEA5000002EFFFFE300000000
028EFFFFFFFFFFFFFE940006FFFFFD30000000
01112222222222222222117DFFFFFFFD710000
000000000000000000039FFFFFFFFFFFFFA500
000000000000000000699999999999AAAAAA83
ENDCHAR
STARTCHAR L
ENCODING 76
SWIDTH 712 0
DWIDTH 23 0
BBX 26 26 -3 0
BITMAP
11122222222222222222200000
16CFFFFFFFFFFFFFFFE8200000
00039EFFFFFFFFFFC600000000
0000005BFFFFFFA40000000000
00000002FFFFFF000000000000
00000001FFFFFF000000000000
00000000FFFFFE000000000000
00000000FFFFFE000000000000
00000000EFFFFE000000000000
00000000DFFFFE000000000000
00000000CFFFFD000000000000
00000000BFFFFD000000000001
00000000BFFFFD000000000006
00000000AFFFFD000000000048
000000009FFFFC000000000098
000000008FFFFC0000000001E8
000000007FFFFC0000000006F8
000000007FFFFC000000000CF8
000000006FFFFB000000003FF8
000000005FFFFB000000009FF8
000000004FFFFB00000000EFF8
000000003FFFFA00000005FFF8
00000003AFFFFEDCCBBAADFFF8
000003AFFFFFFFFFFFFFFFFFF8
0004BFFFFFFFFFFFFFFFEEDCC6
017AA988766544322100000000
ENDCHAR
STARTCHAR M
ENCODING 77
SWIDTH 1033 0
DWIDTH 33 0
BBX 39 25 -3 -1
BITMAP
0000000000000000000000000013221100000000
17AAAAAAAA9999100000000000AFFFFFFFEDC710
0039EFFFFFFFFF700000000003FFFFFFFFC61000
000017DFFFFFFFE0000000000BFFFFFFA3000000
00000008FFFFFFF6000000004FFFFFFF10000000
00000005FFFFFFFD00000000DFFFFFFF00000000
00000004FFFFFFFF60000006FFFFFFFE00000000
00000003FFFFFFFFD000001EFFFFFFFE00000000
00000002FFFFFFFFF600008FFFFFFFFD00000000
00000000FFFEFFFFFD0001EFF9FFFFFC00000000
00000000EFF9DFFFFF6009FFD3FFFFFB00000000
00000000DFF96FFFFFD03FFF63FFFFFB00000000
00000000CFF90CFFFFF6BFFE03FFFFFA00000000
00000000BFFA03FFFFFEFFF703FFFFF900000000
00000000AFFA00AFFFFFFFE103FFFFF800000000
000000009FFB002EFFFFFF7003FFFFF800000000
000000008FFB0007FFFFFE1003FFFFF700000000
000000007FFC0001DFFFF70003FFFFF600000000
000000005FFD00005FFFE10002FFFFF500000000
000000004FFD00000CFF700002FFFFF500000000
000000003FFE000003FE100002FFFFF400000000
000000002FFE00000097000006FFFFF710000000
00000016BFFFB62000110006DFFFFFFFEA500000
00026BFFFFFFFFFC840005BDDEEEEFFFFFFE9400
049CCCCCCCCCCCCCCCB720000000000011112210
ENDCHAR
STARTCHAR N
ENCODING 78
SWIDTH 840 0
DWIDTH 27 0
BBX 34 26 -3 -2
BITMAP
0000000000000000000111222233344441
18AAAA9999988403AFFFFFFFFFFFFFF920
004BFFFFFFFFFE30017DFFFFFFFFE92000
00003AFFFFFFFFD100004AFFFFE8100000
00000029FFFFFFFB0000002BFF80000000
00000001FFFFFFFF80000009FF70000000
00000001FFFFFFFFF5000009FF70000000
00000001FFFFFFFFFE300009FF70000000
00000001FFFAFFFFFFD10008FF70000000
00000001FFF1CFFFFFFB0008FF60000000
00000001FFF11DFFFFFF9008FF60000000
00000001FFF102EFFFFFF608FF60000000
00000001FFF1004FFFFFFF38FF50000000
00000001FFF20006FFFFFFD9FF50000000
00000001FFF200008FFFFFFFFF50000000
00000001FFF300000AFFFFFFFF40000000
00000001FFF3000000BFFFFFFF40000000
00000001FFF40000001DFFFFFF40000000
00000001FFF400000002EFFFFF40000000
00000001FFF4000000004FFFFF30000000
00000029FFFC6100000005FFFF30000000
00003AFFFFFFFFA50000008FFF30000000
005CFFFFFFFFFFFFE930000AFF20000000
39BCCCCCCCCCCCCCCCDA4000BF20000000
0000000000000000000000001D20000000
0000000000000000000000000210000000
ENDCHAR
STARTCHAR O
ENCODING 79
SWIDTH 808 0
DWIDTH 26 0
BBX 26 21 0 -1
BITMAP
000000002579ABA86200000000
0000017CFFFFFFFFFFC6000000
00005EFFFFFFFFFFFFFFD40000
0008FFFFFFEA767CFFFFFF5000
007FFFFFF81000005EFFFFF400
03FFFFFF5000000004FFFFFD10
0BFFFFF800000000009FFFFF70
1FFFFFF100000000003FFFFFC0
4FFFFFB000000000000EFFFFF1
5FFFFF9000000000000CFFFFF3
5FFFFF8000000000000BFFFFF3
4FFFFFA000000000000CFFFFF2
2FFFFFD000000000000FFFFFF0
0DFFFFF300000000005FFFFFA0
06FFFFFA0000000000CFFFFF30
00BFFFFF6000000009FFFFF800
002DFFFFF8100004BFFFFFB000
0002CFFFFFFCBCEFFFFFF90000
000007EFFFFFFFFFFFFD400000
00000016CFFFFFFFDA40000000
00000000003455420000000000
ENDCHAR
STARTCHAR P
ENCODING 80
SWIDTH 746 0
DWIDTH 24 0
BBX 28 22 -3 -1
BITMAP
2777665554433322100000000000
028EFFFFFFFFFFFFFEDB84100000
00017DFFFFFFFFFFFFFFFFFA3000
0000005DFFFFECCBCDFFFFFFF800
00000007FFFFA00000138DFFFF80
00000007FFFFA0000000009FFFF1
00000007FFFFB0000000003FFFF2
00000006FFFFB0000000009FFFE0
00000006FFFFC00000015CFFFF50
00000006FFFFD55579CFFFFFC300
00000006FFFFFFFFFFFFFFB50000
00000005FFFFFFFFFDB741000000
00000005FFFFF843100000000000
00000005FFFFF500000000000000
00000004FFFFF500000000000000
00000004FFFFF600000000000000
00000004FFFFF700000000000000
00000004FFFFF700000000000000
00000007FFFFF900000000000000
000005DFFFFFFFD7100000000000
0004CFFFFFFFFFFFE93000000000
03BFEEEEEDDDDDDCCCC820000000
ENDCHAR
STARTCHAR Q
ENCODING 81
SWIDTH 789 0
DWIDTH 25 0
BBX 28 31 1 -10
BITMAP
0000000258ABBA85100000000000
000007CFFFFFFFFFF92000000000
0004DFFFFFFFFFFFFFF700000000
006FFFFFFD9668EFFFFFA0000000
04FFFFFF7000001AFFFFF8000000
0DFFFFF500000000BFFFFF300000
6FFFFF90000000002FFFFFA00000
BFFFFF10000000000AFFFFF10000
EFFFFC000000000006FFFFF40000
FFFFFA000000000004FFFFF50000
FFFFF9000000000004FFFFF60000
EFFFFB000000000005FFFFF50000
CFFFFE000000000008FFFFF20000
7FFFFF30000000000CFFFFD00000
2FFFFFA0000000004FFFFF600000
07FFFFF600000002EFFFFC000000
00BFFFFF8100016EFFFFE2000000
000BFFFFFFCBCFFFFFFD30000000
00006EFFFFFFFFFFFF9100000000
0000016CFFFFFFFFA20000000000
000000000346FFFFC00000000000
000000000000EFFFF50000000000
000000000000AFFFFD1000000000
0000000000006FFFFFB742000000
0000000000002FFFFFFFFFFDB963
0000000000002FFFFFFFFFFFB730
000000000003EFFFFFFFD9510000
00000000005FFFFFEB6200000000
0000000007FFFD84000000000000
000000009EA62000000000000000
0000000440000000000000000000
ENDCHAR
STARTCHAR R
ENCODING 82
SWIDTH 826 0
DWIDTH 26 0
BBX 38 29 -3 -8
BITMAP
17A99988776655543210000000000000000000
003AFFFFFFFFFFFFFFFEB84000000000000000
000029EFFFFFFFFFFFFFFFFE81000000000000
00000018FFFFFA999ACEFFFFFD300000000000
00000002FFFFF000000039FFFFE10000000000
00000002FFFFF0000000003FFFF60000000000
00000002FFFFF1000000000DFFF70000000000
00000001FFFFF1000000006FFFE20000000000
00000001FFFFF20000016CFFFE400000000000
00000001FFFFF9889BEFFFFFA2000000000000
00000001FFFFFFFFFFFFFE9300000000000000
00000000FFFFFFFFEEFFFE2000000000000000
00000000FFFFFA2005FFFFB000000000000000
00000000FFFFFA0000CFFFF600000000000000
00000000FFFFFA00003FFFFE20000000000000
00000000EFFFFB00000AFFFFC0000000000000
00000000EFFFFB000002FFFFF7000000000000
00000000EFFFFC0000009FFFFF300000000000
00000006FFFFFD2000001EFFFFC00000000000
000005DFFFFFFFFB500008FFFFF80000000000
0004CFFFFFFFFFFFFD8201EFFFFF4000000000
019CCCCBBBBBAAAA9999406FFFFFDA99999883
00000000000000000000000DFFFFFFFFFFD720
000000000000000000000005FFFFFFFFA40000
00000000000000000000000BFFFFFD72000000
0000000000000000000000AFFFFA4000000000
0000000000000000000009FFD7200000000000
000000000000000000007FA400000000000000
00000000000000000004710000000000000000
ENDCHAR
STARTCHAR S
ENCODING 83
SWIDTH 661 0
DWIDTH 21 0
BBX 21 27 0 -4
BITMAP
0000000000000000000020
0000000000000000000560
0000159BDDDC9610003E40
0018EFFFFFFFFFFA31DF30
01CFFFFFCABDFFFFFEFF10
0CFFFF91000028EFFFFE00
4FFFFA000000001AFFFD00
8FFFF900000000006FFB00
AFFFFF700000000005F900
8FFFFFFE95200000008800
4FFFFFFFFFFD9510000300
0AFFFFFFFFFFFFE9200000
009FFFFFFFFFFFFFF91000
0004BFFFFFFFFFFFFFD200
0000027BEFFFFFFFFFFD10
00300000037CFFFFFFFF70
0092000000003BFFFFFFB0
00BA00000000009FFFFFC0
00DF70000000002FFFFFA0
00EFF8000000003FFFFF50
00FFFFC6100015EFFFFB00
02FEEFFFFDCCFFFFFFB100
03F72AFFFFFFFFFFD60000
05E10016ACEEDB83000000
0670000000000000000000
0610000000000000000000
0200000000000000000000
ENDCHAR
STARTCHAR T
ENCODING 84
SWIDTH 754 0
DWIDTH 24 0
BBX 22 23 1 -1
BITMAP
5777766665555544444332
AFFFFFFFFFFFFFFFFFFFFC
8FFFFFFFFFFFFFFFFFFFFA
7FFE5556FFFFFD7778FFF8
6FFA0000FFFFFB0000CFF7
5FF50000FFFFFA00007FF5
3FE10000FFFFFA00002FF3
2FA00000EFFFF900000CF1
1F500000EFFFF9000007E0
0E000000DFFFF8000003D0
08000000DFFFF800000090
02000000DFFFF700000020
00000000CFFFF700000000
00000000CFFFF600000000
00000000BFFFF600000000
00000000BFFFF500000000
00000000AFFFF500000000
00000000AFFFF500000000
00000000AFFFF400000000
00000018EFFFFB30000000
000018EFFFFFFFFB400000
0028EFFFFFFFFFFFFB4000
0166777777788888899600
ENDCHAR
STARTCHAR U
ENCODING 85
SWIDTH 725 0
DWIDTH 23 0
BBX 29 23 -3 -1
BITMAP
000000000000000011000000000000
27654321000000003BFFFFEEEEDB30
017EFFFFFEDCBA82004CFFFFFE7000
00016DFFFFFFD71000005FFFB10000
000005FFFFF9000000001FFF600000
000005FFFFF7000000000FFF600000
000006FFFFF7000000000FFF500000
000006FFFFF6000000000EFF500000
000007FFFFF6000000000DFF400000
000007FFFFF6000000000DFF300000
000008FFFFF6000000000CFF300000
000008FFFFF6000000000CFF200000
000008FFFFF5000000000BFF200000
000009FFFFF5000000000AFF100000
000009FFFFF6000000000AFF000000
000007FFFFF7000000000CFD000000
000005FFFFFB000000001FFB000000
000001FFFFFF300000008FF7000000
0000009FFFFFD2000007FFE1000000
0000001DFFFFFE8547CFFF70000000
00000003EFFFFFFFFFFFF900000000
000000001AFFFFFFFFFD5000000000
000000000027ACCCA8400000000000
ENDCHAR
STARTCHAR V
ENCODING 86
SWIDTH 786 0
DWIDTH 25 0
BBX 34 26 -5 -3
BITMAP
0000000000000026992000000000000000
000000000037AEFF700120000000000000
00000148BFFFFFD300006EDA8631000000
0259CFFFFFFFF900000002BFFFFFDB9641
1468ACEFFFFFF50000000006EFFFFFFD84
00000004FFFFFC00000000003FFEA62000
00000000CFFFFF30000000009FF5000000
000000005FFFFFA000000002FFD0000000
000000000CFFFFF20000000AFF50000000
0000000005FFFFF80000002FFC00000000
0000000000DFFFFE100000AFF400000000
00000000005FFFFF700003FFC000000000
00000000000DFFFFD0000BFF4000000000
000000000006FFFFF5004FFB0000000000
000000000000DFFFFC00CFF30000000000
0000000000006FFFFF34FFA00000000000
0000000000000EFFFFACFF300000000000
00000000000007FFFFFFFA000000000000
00000000000001EFFFFFF2000000000000
000000000000007FFFFF90000000000000
000000000000001EFFFF20000000000000
0000000000000008FFF900000000000000
0000000000000001EFE100000000000000
00000000000000008F8000000000000000
00000000000000001E1000000000000000
0000000000000000020000000000000000
ENDCHAR
STARTCHAR W
ENCODING 87
SWIDTH 1026 0
DWIDTH 33 0
BBX 43 24 -5 -3
BITMAP
000000012345789ABC82000002897531000000000000
16ABCDFFFFFFFFFFA30000100004BFFFFDB976420000
0016BEFFFFFFFFB3000002C0000003AFFFFFFFFFD710
0000015DFFFFF600000008F600000003AFFFEA620000
00000006FFFFF80000001EFD100000005FFA00000000
00000001EFFFFE0000007FFF70000000AFF400000000
000000009FFFFF500000EFFFE1000001FFD000000000
000000002FFFFFA00006FFFFF9000007FF7000000000
000000000BFFFFF1000DFFFFFF20000DFF1000000000
0000000005FFFFF6005FFFFFFFA0003FFA0000000000
0000000000DFFFFC00CFFFFFFFF3009FF40000000000
00000000007FFFFF24FFFFFFFFFC01EFD00000000000
00000000001EFFFF8BFFF9AFFFFF56FF800000000000
000000000009FFFFEFFFF23FFFFFDCFF200000000000
000000000003FFFFFFFFA00BFFFFFFFB000000000000
000000000000CFFFFFFF3004FFFFFFF5000000000000
0000000000005FFFFFFB0000CFFFFFE0000000000000
0000000000000EFFFFF300004FFFFF80000000000000
00000000000007FFFFB000000CFFFF30000000000000
00000000000001FFFF40000005FFFC00000000000000
00000000000000AFFC00000000DFF600000000000000
000000000000003FF5000000006FE100000000000000
000000000000000CC0000000000D9000000000000000
00000000000000065000000000063000000000000000
ENDCHAR
STARTCHAR X
ENCODING 88
SWIDTH 860 0
DWIDTH 28 0
BBX 34 22 -3 -2
BITMAP
0000000001234578994000000000000000
0158ABCDEFFFFFFE710001233455678400
00026BEFFFFFFE71004DFFFFFFFFFA3000
00000004DFFFFF4000018EFFFFF9200000
000000002EFFFFE200002DFFF810000000
0000000005FFFFFD1003EFFE4000000000
00000000007FFFFFB05EFFD20000000000
00000000000AFFFFFBFFFC100000000000
000000000001DFFFFFFFA1000000000000
0000000000002EFFFFFC00000000000000
00000000000007FFFFFF50000000000000
0000000000005EFFFFFFE3000000000000
000000000007FFFFFFFFFD100000000000
00000000009FFFD5EFFFFFB00000000000
000000001BFFFB105FFFFFF70000000000
00000002DFFF900008FFFFFF4000000000
0000005EFFF6000000AFFFFFE200000000
00017DFFFFC10000001DFFFFFC10000000
039FFFFFFFFE60000002EFFFFFD7100000
599AABBBCCDDEA20003BFFFFFFFFFA4000
00000000000000002AFFFFFFFFFFFFFD61
0000000000000002887766544332210000
ENDCHAR
STARTCHAR Y
ENCODING 89
SWIDTH 848 0
DWIDTH 27 0
BBX 34 24 -4 -3
BITMAP
123445667899ABCC600000000000000000
38DFFFFFFFFFFFC3000000000000000000
0004AEFFFFFFF80000019BAA9988766541
0000016BFFFFFD10000007EFFFFFFFE820
000000008FFFFFB00000002AFFFFC50000
0000000009FFFFF900000005FFA3000000
0000000000BFFFFF6000005FFA00000000
00000000001CFFFFF40005FFB000000000
000000000002DFFFFE205FFC1000000000
0000000000003EFFFFD6FFD10000000000
00000000000004FFFFFFFE200000000000
000000000000006FFFFFE3000000000000
0000000000000007FFFF50000000000000
0000000000000003FFFF50000000000000
0000000000000003FFFF60000000000000
0000000000000004FFFF80000000000000
0000000000000005FFFF90000000000000
0000000000000005FFFFA0000000000000
0000000000000006FFFFC0000000000000
0000000000000006FFFFD0000000000000
000000000000001AFFFFF8200000000000
00000000000029EFFFFFFFFC7200000000
00000000004BFFFFFFFFFFFFFFC6100000
0000000001333333332222222222100000
ENDCHAR
STARTCHAR Z
ENCODING 90
SWIDTH 685 0
DWIDTH 22 0
BBX 23 20 0 0
BITMAP
001122233444556667778870
6FFFFFFFFFFFFFFFFFFFFF30
2FFFFFFFFFFFFFFFFFFFF600
0DFFECCBBAA99CFFFFFF9000
09FF900000002EFFFFFC0000
05FF60000001DFFFFFE20000
01FF3000000CFFFFFF400000
00CF000000AFFFFFF7000000
008C000008FFFFFFA0000000
003A00005FFFFFFD10000500
00060003FFFFFFE200005700
0000002EFFFFFF500000D700
000001DFFFFFF8000007F600
00000BFFFFFFB000001EF500
00009FFFFFFD1000008FF400
0007FFFFFFF3000002EFF300
005FFFFFFFC776554AFFF200
03EFFFFFFFFFFFFFFFFFF200
2DFFFFFFFFFFFFFFFFFFF100
355555666666677777777000
ENDCHAR
STARTCHAR bracketleft
ENCODING 91
SWIDTH 380 0
DWIDTH 12 0
BBX 14 31 1 -4
BITMAP
04433322110000
1FFFFFFFFFFE71
1FFFFFFFFE7100
0FFFFFFD600000
0FFFFF60000000
0EFFFF20000000
0EFFFF10000000
0EFFFF10000000
0DFFFF10000000
0DFFFF10000000
0CFFFF00000000
0CFFFF00000000
0BFFFF00000000
0BFFFF00000000
0BFFFE00000000
0AFFFE00000000
0AFFFE00000000
09FFFE00000000
09FFFD00000000
09FFFD00000000
08FFFD00000000
08FFFD00000000
07FFFC00000000
07FFFC00000000
06FFFC00000000
06FFFC00000000
06FFFB00000000
05FFFD30000000
05FFFFFA300000
04FFFFFFFA2000
03CCCCCCCCC710
ENDCHAR
STARTCHAR backslash
ENCODING 92
SWIDTH 680 0
DWIDTH 22 0
BBX 22 32 0 -3
BITMAP
0000010000000000000000
0004D90000000000000000
019FFF2000000000000000
4DFFFFB000000000000000
4FFFFFF500000000000000
0AFFFFFD00000000000000
01EFFFFF70000000000000
006FFFFFE1000000000000
000CFFFFF9000000000000
0003FFFFFF300000000000
00008FFFFFB00000000000
00001DFFFFF50000000000
000005FFFFFD1000000000
000000AFFFFF7000000000
0000002EFFFFE200000000
00000007FFFFFA00000000
00000000CFFFFF30000000
000000003FFFFFC0000000
0000000009FFFFF6000000
0000000001EFFFFE100000
00000000005FFFFF800000
00000000000BFFFFF20000
000000000002FFFFFA0000
0000000000007FFFFF4000
0000000000000DFFFFC000
00000000000004FFFFF600
00000000000000AFFFFE10
000000000000001EFFFF90
0000000000000006FFFFF2
0000000000000000CFFFA1
00000000000000003FC400
0000000000000000040000
ENDCHAR
STARTCHAR bracketright
ENCODING 93
SWIDTH 371 0
DWIDTH 12 0
BBX 13 31 -2 -4
BITMAP
00011122334430
3BFFFFFFFFFF90
003AFFFFFFFF80
000029FFFFFF80
0000002CFFFF70
00000009FFFF70
00000008FFFF60
00000008FFFF60
00000008FFFF60
00000008FFFF50
00000007FFFF50
00000007FFFF40
00000007FFFF40
00000007FFFF30
00000007FFFF30
00000006FFFF30
00000006FFFF20
00000006FFFF20
00000006FFFF10
00000005FFFF10
00000005FFFF10
00000005FFFF00
00000005FFFF00
00000004FFFE00
00000004FFFE00
00000004FFFD00
00000004FFFD00
00000018FFFD00
000006EFFFFC00
0006DFFFFFFC00
03BDCCCCCCC900
ENDCHAR
STARTCHAR asciicircum
ENCODING 94
SWIDTH 671 0
DWIDTH 22 0
BBX 23 20 -1 9
BITMAP
000000000002000000000000
00000000004D100000000000
0000000000DF900000000000
0000000007FFF30000000000
000000002EFFFC0000000000
00000000AFFFFF7000000000
00000004FFFFFFE200000000
0000000CFFFFFFFB00000000
0000006FFFFFFFFF50000000
000001EFFFFFBFFFE1000000
000009FFFFFA0CFFF9000000
00003FFFFFF202EFFF400000
0000CFFFFF90004FFFD00000
0006FFFFFF200006FFF80000
001EFFFFF90000009FFF2000
008FFFFFE10000000CFFC000
02FFFFFF8000000002EFF600
0BFFFFFE10000000004FFE10
1AEFFFF70000000000058620
00037BD10000000000000000
ENDCHAR
STARTCHAR underscore
ENCODING 95
SWIDTH 840 0
DWIDTH 27 0
BBX 27 7 0 -4
BITMAP
2223333344444555566666777750
FFFFFFFFFFFFFFFFFFFFFFFFFFB0
FFFFFFFFFFFFFFFFFFFFFFFFFFC0
FFFFFFFFFFFFFFFFFFFFFFFFFFC0
FFFFFFFFFFFFFFFFFFFFFFFFFFD0
FFFFFFFFFFFFFFFFFFFFFFFFFFD0
0011112223333444455556666760
ENDCHAR
STARTCHAR grave
ENCODING 96
SWIDTH 707 0
DWIDTH 23 0
BBX 7 9 9 18
BITMAP
00025000
04AFE000
7FFFF400
1EFFF900
07FFFE00
01EFFF50
006FFFA0
000DFA30
00031000
ENDCHAR
STARTCHAR a
ENCODING 97
SWIDTH 572 0
DWIDTH 18 0
BBX 21 19 0 -1
BITMAP
00000169BBA84000000000
00019FFFFFFFFD40000000
002DFFFDAAEFFFF4000000
00DFFF50001CFFFE100000
05FFFF400004FFFF500000
07FFFF800000EFFF900000
04FFFF500000DFFFA00000
008EE8000000CFFFB00000
000035787654EFFFB00000
005DFFFFFFFFFFFF900000
06FFFFFB9ABEFFFF800000
1FFFFE200006FFFF600000
5FFFFA000008FFFF500000
5FFFFC00000AFFFF300000
1EFFFFB5567DFFFF200000
04EFFFFFFFFFFFFF000000
0017CFFFFFFFFFFF920000
00000012213FFFFFFFA300
00000000004AA988776510
ENDCHAR
STARTCHAR b
ENCODING 98
SWIDTH 723 0
DWIDTH 23 0
BBX 28 29 -5 -5
BITMAP
000000013579BD50000000000000
1579BDEFFFFFFF40000000000000
027CFFFFFFFFFF40000000000000
000026BFFFFFFF30000000000000
00000001BFFFFF20000000000000
000000008FFFFF20000000000000
000000008FFFFF10000000000000
000000007FFFFF10000000000000
000000006FFFFF00000000000000
000000006FFFFF00000000000000
000000005FFFFE00000000000000
000000005FFFFD00000000000000
000000004FFFFD00000000000000
000000003FFFFC00000000000000
000000003FFFFC2589ABA8620000
000000002FFFFFFFFFFFFFFFB300
000000001FFFFFFFFFFFFFFFFF50
000000001FFFFE841015CFFFFFE2
000000000FFFF80000000AFFFFF8
000000000FFFF800000001EFFFFB
000000000EFFF700000000BFFFFC
000000000DFFF700000000BFFFFA
000000000DFFF600000001EFFFF4
000000000CFFF500000009FFFFB0
000000000CFFF5000005CFFFFC10
000000008FFFFB9ABCFFFFFF9000
0000001BFFFFFFFFFFFFFFA30000
000003DFFFFFFFFFEDB951000000
00004DCB98764320000000000000
ENDCHAR
STARTCHAR c
ENCODING 99
SWIDTH 589 0
DWIDTH 19 0
BBX 18 18 1 -2
BITMAP
00000048BCCA610000
00006DFFFFFFFE8000
001BFFFFFFFFFFFC10
01CFFFFA2017FFFFA0
09FFFFA00003FFFFF1
3FFFFE100004FFFFF2
8FFFFA000001EFFFE0
DFFFF70000004CEC30
EFFFF5000000000000
FFFFF5000000000001
EFFFF7000000000027
BFFFFC0000000001C6
6FFFFF600000001BF3
1DFFFFF7000003CFD0
04FFFFFFD978BFFF50
006FFFFFFFFFFFF900
0004CFFFFFFFFE7000
0000049CEEDB710000
ENDCHAR
STARTCHAR d
ENCODING 100
SWIDTH 713 0
DWIDTH 23 0
BBX 25 32 1 -6
BITMAP
00000000021000000000000000
00000000029FEDCBA987630000
0000000000018EFFFFFFF90000
000000000000017EFFFFF70000
0000000000000005FFFFF50000
0000000000000005FFFFF30000
0000000000000006FFFFF10000
0000000000000007FFFFE00000
0000000000000008FFFFC00000
0000000000000009FFFFA00000
0000000000000009FFFF800000
000000000000000AFFFF700000
000000000000000BFFFF500000
000000256764100CFFFF300000
00006CFFFFFFFC6DFFFF100000
001BFFFFFFFFFFFFFFFE000000
01DFFFFFDA9ACFFFFFFC000000
0AFFFFE50000018FFFFA000000
3FFFFF300000001FFFF8000000
8FFFF9000000002FFFF6000000
AFFFF5000000002FFFF4000000
AFFFF3000000003FFFF2000000
8FFFF4000000004FFFF1000000
5FFFF9000000005FFFE0000000
0DFFFF500000005FFFC0000000
03FFFFF92000007FFFA0000000
004EFFFFFDA9ADFFFF80000000
00029FFFFFFFFFFFFF60000000
0000016ACEEEDBDFFFC8410000
00000000000000AFFFFFFFC930
00000000000000BFEDA8642000
00000000000000320000000000
ENDCHAR
STARTCHAR e
ENCODING 101
SWIDTH 593 0
DWIDTH 19 0
BBX 18 17 1 -2
BITMAP
00000169BBA7200000
00019FFFFFFFFA1000
003DFFFFFFFFFFD200
03EFFFFB77CFFFFC00
0CFFFF600008FFFF80
5FFFFA000000CFFFE1
BFFFF40000005FFFF4
EFFFF66555556FFFF8
FFFFFFFFFFFFFFFFF9
EFFFFFFFFFFFFFFFFA
CFFFF7666555444332
8FFFF5000000000010
2EFFFD200000000750
07FFFFE8310147DC00
008FFFFFFFFFFFD200
0006EFFFFFFFFA1000
000016BDEEC8300000
ENDCHAR
STARTCHAR f
ENCODING 102
SWIDTH 507 0
DWIDTH 16 0
BBX 21 44 -2 -13
BITMAP
0000000000059AA7200000
0000000003DFFFFFF80000
000000003FFFFFFFFF9000
00000001DFFFA119FFF500
00000007FFFE1001FFFC00
0000000CFFF90007FFFF10
0000001FFFF6000AFFFF20
0000004FFFF40006FFFD00
0000006FFFF300006BA200
0000007FFFF40000000000
0000007FFFF40000000000
0000007FFFF50000000000
0000006FFFF60000000000
0000005FFFF70000000000
0001114FFFF91111110000
008FFFFFFFFFFFFFFB0000
008FFFFFFFFFFFFFFB0000
006CCCCFFFFFCCCCC90000
0000000CFFFF3000000000
0000000AFFFF4000000000
00000008FFFF6000000000
00000006FFFF8000000000
00000004FFFFA000000000
00000003FFFFB000000000
00000001FFFFD000000000
00000000EFFFF000000000
00000000CFFFF200000000
00000000AFFFF300000000
000000008FFFF500000000
000000007FFFF700000000
000000005FFFF800000000
000000003FFFFA00000000
000000001FFFFC00000000
000000000DFFFD00000000
000000000CFFFE00000000
038710000BFFFE00000000
3FFFC0000BFFFD00000000
8FFFF3000CFFFA00000000
8FFFF2000EFFF600000000
4FFFA0005FFFF100000000
0CFFE402EFFF8000000000
03EFFFEFFFFB0000000000
003DFFFFFF910000000000
000059BB83000000000000
ENDCHAR
STARTCHAR g
ENCODING 103
SWIDTH 606 0
DWIDTH 19 0
BBX 21 37 0 -16
BITMAP
0000000000000000110000
000000000000004DFFC400
00000000000005FFFFFF50
0000000000002EFFFFFFD0
000000002331BFFAFFFFE0
000004AEFFFFFFC1FFFF90
0001AFFFFFFFFFD35EFA10
001DFFFD523AFFFF501000
00CFFFD100009FFFE30000
06FFFF5000001EFFFC0000
0CFFFD00000008FFFF3000
1FFFF900000005FFFF7000
3FFFF700000003FFFF9000
3FFFF800000004FFFF8000
1FFFFA00000006FFFF6000
0BFFFF1000000AFFFF1000
03FFFF8000003FFFF90000
007FFFF40001DFFFD10000
0008FFFFA79EFFFD200000
0003CFFFFFFFFF91000000
006FFFFBBCCA7200000000
01FFFFF710000000000000
01FFFFFFFDCBA840000000
009FFFFFFFFFFFFE700000
0008FFFFFFFFFFFFFD2000
009FFFFEA778CFFFFFD100
0AFFFF91000004DFFFF900
6FFFFA000000003FFFFF10
CFFFF3000000000AFFFF50
FFFFF00000000007FFFF60
EFFFF00000000007FFFF60
CFFFF3000000000AFFFF40
6FFFFB000000004FFFFD00
0BFFFFB2000006EFFFF400
01BFFFFFCA9BEFFFFE4000
0006DFFFFFFFFFFF920000
0000037ACEEDB951000000
ENDCHAR
STARTCHAR h
ENCODING 104
SWIDTH 678 0
DWIDTH 22 0
BBX 30 31 -5 -3
BITMAP
000000000001351000000000000000
000003579CEFFF3000000000000000
16BDFFFFFFFFFF2000000000000000
00159DFFFFFFFF1000000000000000
00000026EFFFFF1000000000000000
00000000BFFFFF0000000000000000
00000000BFFFFE0000000000000000
00000000AFFFFE0000000000000000
00000000AFFFFD0000000000000000
000000009FFFFC0000000000000000
000000008FFFFC0000000000000000
000000008FFFFB0000000000000000
000000007FFFFA0000000000000000
000000007FFFFA0000000000000000
000000006FFFF90000000000000000
000000005FFFFCACDDCA7300000000
000000005FFFFFFFFFFFFFC4000000
000000004FFFFFECBADFFFFF600000
000000004FFFF9000006FFFFF20000
000000003FFFF60000009FFFF90000
000000003FFFF50000004FFFFB0000
000000002FFFF40000001FFFFB0000
000000001FFFF40000001FFFFA0000
000000001FFFF30000001FFFF70000
000000000FFFF20000001FFFF50000
000000002FFFF50000001FFFF20000
00000018FFFFFFB200001FFFE00000
000007EFFFFFFFED60005FFFE40000
0000354432210000004CFFFFFFA100
000000000000000019EEEFFFFFFE70
000000000000000000000001122231
ENDCHAR
STARTCHAR i
ENCODING 105
SWIDTH 393 0
DWIDTH 13 0
BBX 15 27 -1 -1
BITMAP
0000000462000000
000001CFFF700000
00000AFFFFF30000
00000FFFFFF80000
00000FFFFFF80000
000009FFFFF20000
000001AFFE500000
0000000231000000
0000000000000000
3999999999940000
029EFFFFFFF60000
00018EFFFFF50000
000001FFFFF40000
000000EFFFF30000
000000EFFFF20000
000000DFFFF00000
000000CFFFE00000
000000CFFFD00000
000000BFFFC00000
000000AFFFB00000
000000AFFFA00000
0000009FFF900000
000000AFFF800000
00003CFFFFF70000
0019FFFFFFFFC200
03BDDDEEEEFFFF70
0000000000000010
ENDCHAR
STARTCHAR j
ENCODING 106
SWIDTH 385 0
DWIDTH 12 0
BBX 15 35 -3 -11
BITMAP
0000000573000000
000002CFFF800000
00000AFFFFF40000
00000FFFFFF90000
00000EFFFFF80000
000008FFFFF20000
0000009FFD400000
0000000010000000
0000000002453000
00468ABDFFFF8000
0017DFFFFFFFA000
000004BFFFFFB000
00000004FFFFD000
00000001FFFFE000
00000000EFFFF000
00000000CFFFF200
00000000BFFFF300
000000009FFFF500
000000007FFFF700
000000005FFFF800
000000003FFFFA00
000000002FFFFB00
000000000FFFFC00
000000000DFFFE00
000000000CFFFF00
000000000AFFFF10
0000000008FFFF10
05DE800007FFFF10
1EFFF70006FFFF00
3FFFF90006FFFD00
2FFFF50008FFF900
0BFFE2001DFFF400
03EFFE88DFFFA000
003DFFFFFFFA0000
00006BDDC9400000
ENDCHAR
STARTCHAR k
ENCODING 107
SWIDTH 749 0
DWIDTH 24 0
BBX 32 30 -4 -4
BITMAP
00012345789AB5000000000000000000
38CFFFFFFFFFF6000000000000000000
000158CFFFFFF5000000000000000000
0000000BFFFFF5000000000000000000
0000000AFFFFF4000000000000000000
00000009FFFFF4067777777777777720
00000008FFFFF3019FFFFFFFFFFF9200
00000007FFFFF30003CFFFFFFE810000
00000006FFFFF300000AFFFE71000000
00000005FFFFF200008FFFB100000000
00000004FFFFF2001AFFF70000000000
00000003FFFFF102CFFE400000000000
00000002FFFFF13DFFC2000000000000
00000001FFFFF5EFFFC0000000000000
00000001FFFFFFFFFFF6000000000000
00000000FFFFFFFEFFFE100000000000
00000000EFFFFE63FFFF900000000000
00000000DFFFE2008FFFF30000000000
00000000CFFFD0000DFFFC0000000000
00000000BFFFD00003FFFF7000000000
00000000AFFFD000009FFFE200000000
000000009FFFC000001DFFFA00000000
000000008FFFC0000004FFFF40000000
00000004CFFFE82000009FFFD0000000
000004BFFFFFFFFB50001DFFFA410000
0003BFFFFFFFEEDCCA4008FFFFFFC841
001443322100000000008FFFFFFEC852
0000000000000000002CFFFD96300000
000000000000000005DA741000000000
00000000000000000200000000000000
ENDCHAR
STARTCHAR l
ENCODING 108
SWIDTH 369 0
DWIDTH 12 0
BBX 18 31 -4 -3
BITMAP
255556666667730000
038EFFFFFFFFF50000
00004AFFFFFFF50000
0000001AFFFFF40000
00000007FFFFF30000
00000006FFFFF30000
00000006FFFFF20000
00000005FFFFF20000
00000004FFFFF10000
00000004FFFFF10000
00000003FFFFF00000
00000002FFFFF00000
00000002FFFFE00000
00000001FFFFE00000
00000000FFFFD00000
00000000FFFFD00000
00000000EFFFC00000
00000000DFFFC00000
00000000DFFFB00000
00000000CFFFA00000
00000000BFFFA00000
00000000BFFF900000
00000000AFFF900000
000000009FFF800000
000000009FFF800000
000000008FFF700000
000000007FFF700000
00000005DFFFE70000
000001AFFFFFFFD400
00006EFFFFFFFFFF91
000365544322110000
ENDCHAR
STARTCHAR m
ENCODING 109
SWIDTH 990 0
DWIDTH 32 0
BBX 37 16 -3 2
BITMAP
00000000013610000000000000000000000000
0001368BDFFF259CEEB6000037ABB820000000
5BDFFFFFFFFFDFFFFFFFC25CFFFFFFF5000000
016AEFFFFFFFFFFFFFFFFFFFFFFFFFFF300000
0000049FFFFFFC99CFFFFFFFFCCFFFFF900000
0000002FFFFF400008FFFFFD2002EFFFD00000
0000000FFFFC000000DFFFF300008FFFF00000
0000000DFFFA0000009FFFC000005FFFF10000
0000000BFFF90000008FFF8000004FFFF00000
00000009FFF70000008FFF6000004FFFD00000
00000007FFF50000008FFF5000005FFFC00000
00000005FFF40000008FFF3000006FFFA00000
0000006CFFFD5000008FFF200006DFFFD50000
00028EFFFFFFFC30009FFF1006DFFFFFFFC400
00144444444443327DFFFFD613345567789960
00000000000005BFFFFFFFFEC5000000000000
ENDCHAR
STARTCHAR n
ENCODING 110
SWIDTH 643 0
DWIDTH 21 0
BBX 26 16 -3 2
BITMAP
00000000013610000000000000
0001368BDFFF227BDDB7100000
5BDFFFFFFFFFCFFFFFFFD30000
016AEFFFFFFFFFFFFFFFFD0000
0000049FFFFFFC99CFFFFF6000
0000002FFFFF400008FFFFA000
0000000FFFFC000000DFFFC000
0000000DFFFA000000AFFFC000
0000000BFFF90000008FFFB000
00000009FFF70000008FFFA000
00000007FFF50000008FFF8000
00000005FFF40000008FFF6000
0000006CFFFC4000008FFF3000
00028EFFFFFFFB30009FFF1000
00144444444443327DFFFFD600
00000000000005BFFFFFFFFEC5
ENDCHAR
STARTCHAR o
ENCODING 111
SWIDTH 705 0
DWIDTH 23 0
BBX 23 17 0 -1
BITMAP
000000000234420000000000
0000049DFFFFFFFC72000000
0004DFFFFFFFFFFFFF910000
008FFFFFE96458EFFFFD2000
06FFFFF81000001AFFFFD100
1FFFFF7000000000CFFFF800
7FFFFD00000000004FFFFE00
9FFFF800000000000FFFFF20
AFFFF700000000000EFFFF30
9FFFF900000000000FFFFF20
6FFFFD00000000004FFFFE00
1EFFFF6000000000CFFFF800
04FFFFF50000001BFFFFB000
005EFFFFC7556AEFFFFB1000
0002BFFFFFFFFFFFFD600000
0000038CFFFFFFD950000000
000000000233210000000000
ENDCHAR
STARTCHAR p
ENCODING 112
SWIDTH 723 0
DWIDTH 23 0
BBX 27 26 -4 -8
BITMAP
00000024579AB000000000000000
28ACEFFFFFFFE000000000000000
016BFFFFFFFFE024565310000000
000016BFFFFFFEFFFFFFFB600000
00000006FFFFFFFFFFFFFFFD3000
00000005FFFFFB64357DFFFFE300
00000004FFFFF00000007FFFFD10
00000003FFFFF000000008FFFF60
00000002FFFFF000000001FFFFA0
00000002FFFFF000000000EFFFC0
00000001FFFFF000000000FFFFC0
00000000FFFFF000000004FFFFA0
00000000EFFFF00000000BFFFF50
00000000DFFFF3000001AFFFFC00
00000000CFFFFFDA98BFFFFFD200
00000000BFFFFFFFFFFFFFFC2000
00000000AFFFF9DFFFFFFB500000
000000009FFFF001234300000000
000000008FFFF000000000000000
000000007FFFF100000000000000
000000007FFFF100000000000000
000000006FFFF100000000000000
000000006FFFF600000000000000
0000004BFFFFFFE8200000000000
00016DFFFFFFFFFFFB5000000000
005ABAA998776654433100000000
ENDCHAR
STARTCHAR q
ENCODING 113
SWIDTH 682 0
DWIDTH 22 0
BBX 26 27 0 -8
BITMAP
00000000000000000001111122
00000000000000CFFFFFFFFF92
00000000000000DFFFFFFF9200
000016ADEFFEC9EFFFFE810000
0007EFFFFFFFFFFFFFF8000000
00AFFFFFDA99BFFFFFF7000000
08FFFFD4000001DFFFF6000000
2FFFFD10000000DFFFF5000000
7FFFF500000000DFFFF4000000
9FFFF200000000DFFFF3000000
AFFFF200000000DFFFF2000000
8FFFF500000000DFFFF2000000
4FFFFB00000000DFFFF1000000
0CFFFF80000000DFFFF0000000
03EFFFFC74468DFFFFE0000000
004EFFFFFFFFFFFFFFD0000000
00019EFFFFFFFEFFFFC0000000
00000158998630EFFFB0000000
00000000000000EFFFA0000000
00000000000000FFFF90000000
00000000000000FFFF80000000
00000000000000FFFF70000000
00000000000001FFFF70000000
0000000000039EFFFFE8200000
0000000006CFFFFFFFFFFA3000
0000000057889AABBCDDEEFC50
00000000000000000000000111
ENDCHAR
STARTCHAR r
ENCODING 114
SWIDTH 595 0
DWIDTH 19 0
BBX 22 21 -2 -1
BITMAP
0000000000001000000000
0000000259CF5001577400
00147AEFFFFF529FFFFFD2
5CFFFFFFFFFFAEFFFFFFFB
0159DFFFFFFFFFFFFFFFFF
0000028FFFFFFD77EFFFFE
0000003FFFFFD1004EFFF7
0000001FFFFF5000039950
0000000EFFFF2000000000
0000000DFFFF1000000000
0000000BFFFF0000000000
0000000AFFFF0000000000
00000008FFFF0000000000
00000006FFFE0000000000
00000005FFFD0000000000
00000003FFFD0000000000
00000007FFFFE930000000
000003CFFFFFFFFD720000
00018FFFFFFFFFFEDB7100
005DFFDCA9764310000000
0243100000000000000000
ENDCHAR
STARTCHAR s
ENCODING 115
SWIDTH 533 0
DWIDTH 17 0
BBX 17 21 0 -1
BITMAP
000000000000000210
000027ABA840000A00
001AFFFFFFFD502F00
02DFFFFFFFFFFAAE00
0BFFF92004AFFFFE00
3FFFF0000003DFFD00
5FFFF50000002DFC00
4FFFFF92000002EC00
1EFFFFFFC720004B00
06FFFFFFFFFB400400
007FFFFFFFFFFC4000
0103BFFFFFFFFFF700
072004AFFFFFFFFF50
09B000016BFFFFFFD0
0BFA0000002BFFFFF0
0CFFB1000000CFFFE0
0EFFFE710002DFFFB0
0FFFFFFFCBCFFFFE30
2FC6DFFFFFFFFFD300
3E20048BDDCB940000
430000000000000000
ENDCHAR
STARTCHAR t
ENCODING 116
SWIDTH 422 0
DWIDTH 14 0
BBX 16 30 -1 -1
BITMAP
00000005AA100000
0000000AFF000000
0000000DFE000000
0000003FFC000000
0000009FFA000000
000002FFF9000000
00002DFFF7000000
0038FFFFF6000000
3EFFFFFFFDA97641
4FFFFFFFFFFFFFF4
3BCDFFFFFFFFFFF3
0000FFFFF46789B1
0001FFFFD0000000
0002FFFFC0000000
0003FFFFB0000000
0004FFFF90000000
0005FFFF80000000
0007FFFF70000000
0008FFFF50000000
0009FFFF40000000
000AFFFF20000000
000BFFFF10000130
000DFFFE00000450
000EFFFD00000A70
000DFFFE00003F60
000BFFFF6004EF40
0007FFFFFDDFFE00
0001EFFFFFFFF600
00004FFFFFFF8000
0000029DEDA40000
ENDCHAR
STARTCHAR u
ENCODING 117
SWIDTH 614 0
DWIDTH 20 0
BBX 25 18 -3 -2
BITMAP
3ABBBBBBBB2123333333341000
02AFFFFFFF205CFFFFFFFF3000
0004CFFFFF00004BFFFFFF1000
00000EFFFD0000004EFFFD0000
00000FFFFC0000000DFFFB0000
00000FFFFA0000000EFFF80000
00000FFFF90000000FFFF60000
00000FFFF80000001FFFF30000
00000FFFF70000001FFFF10000
00000FFFF70000002FFFE00000
00000EFFF70000003FFFB00000
00000BFFFB0000005FFF900000
000007FFFF500005EFFF700000
000001EFFFFC99CFFFFF400000
0000004FFFFFFFFFEFFFC71000
00000003AFFFFFF95FFFFFFB50
00000000014554105FFEC96310
00000000000000002520000000
ENDCHAR
STARTCHAR v
ENCODING 118
SWIDTH 639 0
DWIDTH 20 0
BBX 28 21 -4 -3
BITMAP
0000000000002572000000000000
000001358ADFFC30000000000000
469BDFFFFFFF8110000000000000
159DFFFFFFF3007EECBA98765421
000028FFFFF40002AFFFFFFFFFB5
000000CFFFFB000004DFFFFE8200
0000003FFFFF4000003FFE500000
00000009FFFFB00000AFF7000000
00000002EFFFF30003FFE1000000
000000007FFFFB000BFF70000000
000000001DFFFF304FFE10000000
0000000005FFFFA0CFF700000000
0000000000CFFFF7FFE100000000
00000000003FFFFFFF7000000000
00000000000AFFFFFE1000000000
000000000002EFFFF70000000000
0000000000007FFFE10000000000
0000000000001DFF700000000000
00000000000005FE100000000000
00000000000000C7000000000000
0000000000000031000000000000
ENDCHAR
STARTCHAR w
ENCODING 119
SWIDTH 805 0
DWIDTH 26 0
BBX 35 19 -4 -1
BITMAP
1223445667889A9400000454432210000000
4AFFFFFFFFFFC6000360017EFFFFFFFEC710
0017DFFFFFF400000AD000018FFFFEA40000
000006FFFFF700002FF500000CFF81000000
000000BFFFFD00008FFC00004FFE10000000
0000004FFFFF5001EFFF3000BFF800000000
0000000CFFFFC006FFFFA003FFF100000000
00000005FFFFF30CFFFFF20AFF9000000000
00000000CFFFFA4FFFFFF92FFF2000000000
000000005FFFFFCFFEFFFEAFFA0000000000
000000000DFFFFFFA8FFFFFFF30000000000
0000000006FFFFFF31EFFFFFB00000000000
0000000000DFFFFB008FFFFF500000000000
00000000006FFFF5001EFFFD000000000000
00000000000DFFD00008FFF6000000000000
000000000007FF600001EFE0000000000000
000000000001EE0000008F70000000000000
000000000000770000001E10000000000000
000000000000110000000300000000000000
ENDCHAR
STARTCHAR x
ENCODING 120
SWIDTH 717 0
DWIDTH 23 0
BBX 31 20 -4 -2
BITMAP
000000000013578AA610000000000000
0012468ACEFFFFB50000000000000000
159CFFFFFFFFD3044556667778897200
0000136CFFFFF6028EFFFFFFFFC50000
00000001DFFFFF40016FFFFF93000000
000000003EFFFFE200AFFFA100000000
0000000004FFFFFD2CFFF60000000000
00000000006FFFFFFFFD300000000000
000000000008FFFFFFB1000000000000
000000000000AFFFFF40000000000000
0000000000005FFFFFE2000000000000
000000000006FFFFFFFC000000000000
00000000008FFFCDFFFF900000000000
000000000AFFFB12EFFFF60000000000
00000048DFFFD1003EFFFF3000000000
00049DFFFFFFFD5004FFFFD300000000
002556789AABCDEB307FFFFFEA620000
000000000000000019FFFFFFFFFFB610
0000000000000006EFEDBA8653100000
00000000000000343100000000000000
ENDCHAR
STARTCHAR y
ENCODING 121
SWIDTH 655 0
DWIDTH 21 0
BBX 22 33 -2 -15
BITMAP
3100000000000000000000
2DA5000000000000000000
02EFEA400018BA87532000
003EFFFE94005DFFFFFFEC
0005FFFFFFA0019FFFFFFE
00009FFFFF600004DFFFFE
0000CFFFFF1000008FFFFD
0001FFFFFB0000008FFFFC
0005FFFFF60000008FFFFC
0009FFFFF20000008FFFFB
000CFFFFD00000009FFFFA
000DFFFFC00000009FFFFA
000BFFFFF20000009FFFF9
0007FFFFFD400001BFFFF9
0001DFFFFFFDBBDFFFFFF8
00003EFFFFFFFFFFFFFFF7
0000018EFFFFFFEADFFFF7
0000000035664200BFFFF6
0000000000000000CFFFF5
0000000000000000CFFFF5
0000000000000000DFFFF4
0000000000000000DFFFF3
0000000000000000FFFFF2
0000387100000001FFFFF1
0003FFFC00000004FFFFD0
000AFFFF40000007FFFFA0
000BFFFF2000000CFFFF50
0008FFF70000005FFFFD00
0003FFFA100003EFFFF400
00007FFFE9669FFFFF8000
000007FFFFFFFFFFF60000
0000003AEFFFFFD9200000
0000000003554200000000
ENDCHAR
STARTCHAR z
ENCODING 122
SWIDTH 549 0
DWIDTH 18 0
BBX 19 18 0 -1
BITMAP
25556677788899AAAB70
6FFFFFFFFFFFFFFFFD10
3FFFFFFFFFFFFFFFF300
0FFF9554438FFFFF7000
0CFF200003FFFFFB0000
09FD00001DFFFFE10000
06F80000BFFFFF400000
03F30008FFFFF8000000
01E0005FFFFFB0006000
007003EFFFFE2003A000
00101DFFFFF4000AB000
0000BFFFFF80002FB000
0008FFFFFC00008FC000
005FFFFFE20001EFD000
03EFFFFFFDCA9AFFE000
1DFFFFFFFFFFFFFFF000
489ABCDEFFFFFFFFF000
00000000012345678100
ENDCHAR
STARTCHAR braceleft
ENCODING 123
SWIDTH 708 0
DWIDTH 23 0
BBX 19 31 2 -4
BITMAP
00000044333221100000
000001FFFFFFFFFFE710
000001FFFFFFFFD71000
000000FFFFFFD6000000
000000FFFFF600000000
000000FFFFF100000000
000000EFFFF100000000
000000EFFFF100000000
000000EFFFF000000000
000000DFFFF000000000
000000DFFFF000000000
000000DFFFF000000000
000000CFFFE000000000
000000CFFFE000000000
000049EFFFE000000000
049EFFFFFFE000000000
27CFFFFFFFD000000000
00016AEFFFD000000000
0000009FFFD000000000
0000009FFFD000000000
0000008FFFC000000000
0000008FFFC000000000
0000007FFFC000000000
0000007FFFC000000000
0000007FFFC000000000
0000006FFFB000000000
0000006FFFB000000000
0000005FFFD300000000
0000005FFFFFA3000000
0000004FFFFFFFA20000
0000003CCCCCCCCC7100
ENDCHAR
STARTCHAR bar
ENCODING 124
SWIDTH 304 0
DWIDTH 10 0
BBX 6 30 2 -3
BITMAP
7ABBC7
BFFFF8
BFFFF7
BFFFF7
BFFFF7
AFFFF7
AFFFF7
AFFFF6
AFFFF6
AFFFF6
9FFFF6
9FFFF5
9FFFF5
9FFFF5
9FFFF5
9FFFF5
8FFFF4
8FFFF4
8FFFF4
8FFFF4
8FFFF3
8FFFF3
7FFFF3
7FFFF3
7FFFF2
7FFFF2
7FFFF2
6FFFF2
6FFFF2
266661
ENDCHAR
STARTCHAR braceright
ENCODING 125
SWIDTH 517 0
DWIDTH 17 0
BBX 18 31 0 -4
BITMAP
000112233344100000
6DFFFFFFFFFF200000
006DFFFFFFFF200000
00005CFFFFFF200000
0000004FFFFF100000
0000000FFFFF100000
0000000FFFFF100000
0000000EFFFF000000
0000000EFFFF000000
0000000EFFFE000000
0000000DFFFE000000
0000000DFFFE000000
0000000DFFFD000000
0000000DFFFD000000
0000000CFFFF940000
0000000CFFFFFFEA50
0000000CFFFFFFFC83
0000000CFFFFB62000
0000000BFFFB000000
0000000BFFFA000000
0000000BFFFA000000
0000000BFFF9000000
0000000AFFF9000000
0000000AFFF9000000
0000000AFFF8000000
00000009FFF8000000
00000009FFF7000000
0000002CFFF7000000
000029FFFFF7000000
0029FFFFFFF6000000
06CCCCCCCCC5000000
ENDCHAR
STARTCHAR asciitilde
ENCODING 126
SWIDTH 466 0
DWIDTH 15 0
BBX 15 8 0 6
BITMAP
0000000000000020
27BEEC95100018E0
FFFFFFFFEA8AEFE0
FFFFFFFFFFFFFFE0
FFFFFFFFFFFFFFE0
FFC769DFFFFFFFE0
E60000038BDCA510
1000000000000000
ENDCHAR
STARTCHAR uni00A0
ENCODING 160
SWIDTH 320 0
DWIDTH 10 0
BBX 1 1 0 0
BITMAP
00
ENDCHAR
STARTCHAR exclamdown
ENCODING 161
SWIDTH 305 0
DWIDTH 10 0
BBX 10 28 0 -10
BITMAP
0000046400
0000BFFFD2
0004FFFFFA
0003FFFFFA
00009FFFE3
0000047510
0000421000
0001FFFC00
0003FFFC00
0006FFFC00
0009FFFB00
000BFFFA00
000EFFFA00
002FFFF900
005FFFF800
007FFFF800
00AFFFF700
00DFFFF700
01FFFFF600
03FFFFF500
06FFFFF500
09FFFFF400
0CFFFFF300
0EFFFFF300
2FFFFFF200
5FFFFFF100
8FFFFFF100
589ABCD000
ENDCHAR
STARTCHAR cent
ENCODING 162
SWIDTH 417 0
DWIDTH 13 0
BBX 15 27 -1 -4
BITMAP
000000CDDD500000
000000DFFF500000
000000CFFF400000
000000BFFF300000
000000AFFF200000
000018EFFFE70000
0005EFFFFFFFC100
005FFFA202BFFA00
01EFFB00009FFF30
08FFF40000AFFF50
0EFFE000004EFD10
2FFFC00000014100
4FFFA00000000000
4FFFB00000000000
3FFFD00000000030
0EFFF20000000390
09FFFA0000002E50
02FFFFA10017ED00
006FFFFFDCEFF400
0006EFFFFFFE4000
000018DFFF920000
0000009FFF200000
000000BFFF300000
000000CFFF500000
000000DFFF500000
000000DFFF600000
0000004555200000
ENDCHAR
STARTCHAR sterling
ENCODING 163
SWIDTH 658 0
DWIDTH 21 0
BBX 22 25 0 -2
BITMAP
0000000000000000000060
00000000000100000005A0
000000039DFFFC71002E80
0000019FFFFFFFFE71CF60
00001CFFFFFFFFFFFDFF40
0000AFFFFE5127EFFFFF20
0002FFFFF200001BFFFF00
0006FFFF90000000CFFD00
0007FFFF600000002EFB00
BCBDFFFFA776554107F900
EFFFFFFFFFFFFFF301E700
EFFFFFFFFFFFFFF2009500
FFEEDFFFFCBBBAA0004300
00000AFFF6000000001104
223337FFFB566671000064
DFFFFFFFFFFFFFF30000C3
EFFFFFFFFFFFFFF20004F3
CDDEEFFFFFFFFFF1000BF2
00000AFFF5344560003FF1
00002FFFD000000000BFF0
0000AFFFC88999AABBFFE0
0004FFFFFFFFFFFFFFFFE0
001DFFFFFFFFFFFFFFFFD0
006ABCCDDEFFFFFFFFFFC0
0000000000001223345540
ENDCHAR
STARTCHAR currency
ENCODING 164
SWIDTH 358 0
DWIDTH 11 0
BBX 12 13 0 5
BITMAP
001000000000
04E500009900
4EFF9CCBFF80
AFFFFFFFFFF3
0AFFFFFFFF60
03FFB12DFE00
05FF6009FF10
02FFC34EFE00
04FFFFFFFC00
4FFFFFFFFFA0
8FFB5987FFD2
0BB100005C20
010000000000
ENDCHAR
STARTCHAR yen
ENCODING 165
SWIDTH 796 0
DWIDTH 26 0
BBX 31 22 -4 0
BITMAP
00000000000001100000000000000000
000023568ABDE8100000000000000000
4AEFFFFFFFFB20000333221100000000
0026AEFFFFF3000002AFFFFFFFEEC610
0000005EFFFE20000003BFFFFFB50000
00000004FFFFD20000001DFE72000000
000000005FFFFD100001CFD200000000
0000000005FFFFC1002DFD2000000000
00000000006FFFFB02DFD20000000000
000000000007FFFFAEFE200000000000
0000000000007FFFFFE2000000000000
00000000000008FFFE30000000000000
000000000AFEDDFFFEAA992000000000
000000000CFFFFFFFFFFFF2000000000
00000000067776EFFF55440000000000
00000000048889EFFFBBBB3000000000
000000000CFFFFFFFFFFFF3000000000
00000000034567FFFFBAAB2000000000
00000000000001FFFF50000000000000
0000000000015BFFFFC7300000000000
0000000015AFFFFFFFFFFD9410000000
00000004899998888888888873000000
ENDCHAR
STARTCHAR brokenbar
ENCODING 166
SWIDTH 304 0
DWIDTH 10 0
BBX 6 30 2 -3
BITMAP
7ABBC7
BFFFF8
BFFFF7
BFFFF7
BFFFF7
AFFFF7
AFFFF7
AFFFF6
AFFFF6
AFFFF6
AFFFF6
7A9872
000000
000000
000000
000000
000000
7BA982
8FFFF4
8FFFF3
8FFFF3
8FFFF3
7FFFF3
7FFFF3
7FFFF2
7FFFF2
7FFFF2
6FFFF2
6FFFF2
266661
ENDCHAR
STARTCHAR section
ENCODING 167
SWIDTH 646 0
DWIDTH 21 0
BBX 19 38 1 -9
BITMAP
00000000000000000200
00004ADFED9400004300
001BFFFFFFFFB200A300
01DFFFFDDEFFFE41F200
0BFFF910004CFFFBF200
3FFFC00000007FFFF100
8FFF9000000005FFF100
AFFFD0000000007FF000
AFFFFB1000000009E000
7FFFFFD610000001C000
1FFFFFFFE93000003000
07FFFFFFFFFC50000000
009FFFFFFFFFFD500000
000CFFFFFFFFFFFA1000
00AFFFFFFFFFFFFFC100
08FFFD6AEFFFFFFFF900
2FFFD10016CFFFFFFF20
7FFF90000005DFFFFF50
AFFFB00000001DFFFF60
AFFFF600000007FFFF50
8FFFFFA2000007FFFF20
3FFFFFFFA4006FFFFB00
0AFFFFFFFFEFFFFFD200
01DFFFFFFFFFFFF91000
001CFFFFFFFFFFE60000
00007EFFFFFFFFFF8000
0000017EFFFFFFFFF600
080000005BFFFFFFFD00
0D5000000029FFFFFF40
0EE2000000005EFFFF60
0FFD1000000008FFFF50
2FFFD300000006FFFF30
3FFFFF8200002DFFFD00
4FEFFFFFCA9BFFFFF300
5F63CFFFFFFFFFFD4000
6D00049DFFFFEB600000
84000000022100000000
40000000000000000000
ENDCHAR
STARTCHAR dieresis
ENCODING 168
SWIDTH 708 0
DWIDTH 23 0
BBX 11 5 6 26
BITMAP
013100023000
2DFD205FFA00
6FFF60BFFF20
4FFF308FFD00
05A500089300
ENDCHAR
STARTCHAR copyright
ENCODING 169
SWIDTH 700 0
DWIDTH 22 0
BBX 23 21 0 1
BITMAP
000000014789873000000000
000006BFFFFFFFFE82000000
0003DFFFFFFFFFFFFE600000
005FFFFE8410037EFFF90000
03FFFF8000342001AFFF7000
0CFFF4005DFFFC400AFFF200
4FFF6007FF748FF301EFF900
9FFD004FF8002FFA008FFE00
CFF700AFF1001EF9003FFF30
EFF500EFD0000140001FFF50
FFF401FFC0000000000FFF60
DFF500FFE0000001001FFF40
CFF800BFF500000A003FFF20
7FFD005FFD3002B9008FFD00
2FFF500AFFFCCFD101EFF700
09FFE2007EFFFA200AFFD100
01DFFD3000331001BFFF4000
002EFFF94100149EFFF40000
0001BFFFFFEFFFFFFC300000
000004BFFFFFFFFB50000000
000000015788741000000000
ENDCHAR
STARTCHAR ordfeminine
ENCODING 170
SWIDTH 399 0
DWIDTH 13 0
BBX 15 14 -1 12
BITMAP
0000034420000000
0019EFFFFC400000
02DFFEDFFFF40000
09FFF203EFFB0000
0AFFF400AFFF0000
04EFA0008FFF2000
0028ABA9CFFF1000
05FFFFFFFFFF0000
2FFFE645EFFE0000
4FFFB000FFFC0000
2FFFFA8AFFFB0000
06EFFFFFFFFC1000
0015899BFFFFE810
00000006A9876530
ENDCHAR
STARTCHAR guillemotleft
ENCODING 171
SWIDTH 424 0
DWIDTH 14 0
BBX 14 17 0 -1
BITMAP
00000450000360
00001DB0001DD0
0000BFF1009FF3
0007FFA005FFC0
003FFF402EFF50
01DFFC00CFFD00
0AFFF508FFF700
5FFFE04FFFE100
AFFF908FFFB000
5FFFE04FFFF100
09FFF608FFF700
01DFFC00BFFE00
003FFF402EFF60
0006FFA005FFC0
0000AFF1009FF2
00001DB0000CD0
00000340000260
ENDCHAR
STARTCHAR logicalnot
ENCODING 172
SWIDTH 541 0
DWIDTH 17 0
BBX 19 17 0 2
BITMAP
10000000000000000000
52000000000000003000
5700000000000000A000
5D00000000000005C000
5F4000000000000DB000
5FECBAA98776548FA000
5FFFFFFFFFFFFFFF9000
5FFFFFFFFFFFFFFF9000
5FFFFFFFFFFFFFFF8000
5FEDDDCCCBBBBFFF7000
5F40000000001FFF6000
5C00000000000CFF5000
66000000000008FF4000
40000000000005FF3000
00000000000006FF4000
000000000001AFFFE500
00000000000589BCDE80
ENDCHAR
STARTCHAR sfthyphen
ENCODING 173
SWIDTH 530 0
DWIDTH 17 0
BBX 17 6 0 8
BITMAP
CDCCBA998765543220
DFFFFFFFFFFFFFFFE0
EFFFFFFFFFFFFFFFD0
EFFFFFFFFFFFFFFFC0
FFFFFFFFFFFFFFFFB0
AAA998877665544320
ENDCHAR
STARTCHAR registered
ENCODING 174
SWIDTH 700 0
DWIDTH 22 0
BBX 23 21 0 1
BITMAP
000000000344420000000000
0000028CFFFFFFEA40000000
00019FFFFFFFFFFFFC300000
002DFFFFC85446BFFFF50000
01DFFFB300000003DFFF4000
0AFFF800000300001DFFD100
3FFF90158CFC2ADD73FFF800
8FFE118DFFFEFFFFF29FFD00
CFF800005FFFDAFFE14FFF30
DFF500002FFE1037301FFF40
FFF400001FFA0000000FFF60
EFF500000EFA0000001FFF50
CFF700000CF90000002FFF30
9FFB00000BF90000007FFE00
4FFF30003DFFA50000DFF900
0BFFC007FFDCBA8207FFE200
03EFFB12100000007FFF6000
004FFFD51000015CFFF80000
0004EFFFECBBDFFFFE600000
000018EFFFFFFFFE92000000
000000158ACCA85100000000
ENDCHAR
STARTCHAR macron
ENCODING 175
SWIDTH 705 0
DWIDTH 23 0
BBX 9 5 8 23
BITMAP
5555555550
EFFFFFFFF0
EFFFFFFFF0
EFFFFFFFF0
BDDDDDDDC0
ENDCHAR
STARTCHAR degree
ENCODING 176
SWIDTH 364 0
DWIDTH 12 0
BBX 9 9 1 14
BITMAP
0029DC7000
03EFFFFC00
0DFFEFFF80
4FFA02DFE0
6FF500AFF0
3FFC35EFD0
0BFFFFFF50
01BFFFF800
0005883000
ENDCHAR
STARTCHAR plusminus
ENCODING 177
SWIDTH 607 0
DWIDTH 19 0
BBX 19 21 0 0
BITMAP
00000003221100000000
0000000DFFFF50000000
0000000DFFFF40000000
0000000CFFFF30000000
0100000BFFFF20000000
3FFFEEDEFFFF98776530
3FFFFFFFFFFFFFFFFFB0
4FFFFFFFFFFFFFFFFFA0
5FFFFFFFFFFFFFFFFF90
5FFFFFFFFFFFDCCBBB60
12111009FFFD00000000
00000008FFFC00000000
00000008FFFB00000000
00000007FFFA00000000
000000049AB700000000
07776544321100000000
0EFFFFFFFFFFFEDDCB60
0EFFFFFFFFFFFFFFFF70
0FFFFFFFFFFFFFFFFF60
0FFFFFFFFFFFFFFFFF50
0CBBAA99988776655510
ENDCHAR
STARTCHAR twosuperior
ENCODING 178
SWIDTH 440 0
DWIDTH 14 0
BBX 14 18 0 11
BITMAP
06000001000000
0A903AEFFC7000
08FCFFFFFFFD20
07FFFFECEFFFC0
05FFF6001CFFF5
03FF600006FFF8
02FC000007FFF8
00F600002EFFF4
00D10004DFFFB1
009002AFFFFA28
00418FFFFC40A8
004DFFFD5005F7
05FFFF80001EF6
2EFFFA3444AFF4
9FFFFFFFFFFFF3
DFFFFFFFFFFFF2
BCCDEEFFFFFFF0
00000000122330
ENDCHAR
STARTCHAR threesuperior
ENCODING 179
SWIDTH 442 0
DWIDTH 14 0
BBX 14 20 0 9
BITMAP
31000000000000
3B000012000000
0F907DFFFC6000
0CFDFFFFFFFC10
09FFFFCCFFFFB0
06FFE4002EFFF3
03FE200008FFF5
00E600000AFFF4
00A00865AFFFE1
00100FFFFFFF70
00201FFFFFFFE1
00B00657DFFFF8
02F400001EFFFB
05FD10000CFFFB
09FFD3005FFFF8
0CFFFFDEFFFFD1
1FDBFFFFFFFD20
4E205BEFEB6000
63000000000000
10000000000000
ENDCHAR
STARTCHAR acute
ENCODING 180
SWIDTH 694 0
DWIDTH 22 0
BBX 7 9 9 23
BITMAP
00100000
00CB4000
02FFFC30
07FFFE10
0CFFF600
2FFFD000
8FFF5000
4BFB0000
00320000
ENDCHAR
STARTCHAR mu
ENCODING 181
SWIDTH 1000 0
DWIDTH 32 0
BBX 25 25 0 -9
BITMAP
4ABBBBBBBB1123333333441000
03BFFFFFFF005CFFFFFFFF1000
0005DFFFFD00005CFFFFFE0000
00001FFFFC0000005FFFFC0000
00001FFFFA0000000FFFF90000
00000FFFF80000001FFFF70000
00000FFFF70000002FFFF40000
00000FFFF60000003FFFF20000
00000FFFF50000003FFFE00000
00000EFFF50000004FFFC00000
00000EFFF60000005FFFA00000
00000EFFF90000007FFF700000
00000EFFFF300006FFFF500000
00000DFFFFFB89DFFFFF200000
00000DFFFFFFFFFFEFFFC61000
00000DFFFFFFFFE87FFFFFFA40
00000DFFF64554107FFEB96300
00000CFFF50000003520000000
00000CFFF50000000000000000
00000CFFF40000000000000000
00000CFFF40000000000000000
00000CFFF40000000000000000
00000BFFF40000000000000000
00000BFFF40000000000000000
00000244520000000000000000
ENDCHAR
STARTCHAR paragraph
ENCODING 182
SWIDTH 782 0
DWIDTH 25 0
BBX 28 24 -1 -2
BITMAP
0000000000000000000000111221
0000000468ABBCCDDEEEFFFFFC50
00017CFFFFFFFFFFFFFFFFFA3000
007EFFFFFFFFFFFFFFFFE9200000
0AFFFFFB746FFF946FFF30000000
5FFFFA20004FFF703FFF20000000
9FFFC000004FFF604FFF20000000
8FFFD000004FFF604FFF20000000
2EFFFC30004FFF505FFF10000000
03DFFFFC746FFF405FFF10000000
0006DFFFFFFFFFFFFFFF10000000
0000038CFFFFFFFFFFFF10000000
00000000149FFFCCDFFF00000000
00000000006FFF207FFF00000000
00000000006FFF208FFF00000000
00000000006FFF109FFF00000000
00000000006FFF10AFFF00000000
00000000007FFF00BFFE00000000
00000000007FFF05DFFE00000000
00000000007FFFEFFFFFD5000000
0000000002AFFFFFFFFFFFC50000
00000027CFFFFFFFFFFFFFFFC400
00016CFFEEDCCBAA988776554310
0002210000000000000000000000
ENDCHAR
STARTCHAR periodcentered
ENCODING 183
SWIDTH 226 0
DWIDTH 7 0
BBX 7 6 0 9
BITMAP
029CA400
2EFFFF50
9FFFFFD0
9FFFFFD0
2DFFFF50
01698200
ENDCHAR
STARTCHAR cedilla
ENCODING 184
SWIDTH 780 0
DWIDTH 25 0
BBX 9 10 8 -6
BITMAP
000CF80000
007FF20000
02EFE82000
0BFFFFE400
157ADFFD00
000009FF20
019108FF30
0BFDAFFE00
1BFFFFF600
007DEC4000
ENDCHAR
STARTCHAR onesuperior
ENCODING 185
SWIDTH 390 0
DWIDTH 13 0
BBX 12 17 0 11
BITMAP
000000148600
00158CFFF700
6CFFFFFFF700
026ADFFFF700
00000EFFF600
00000EFFF600
00000DFFF500
00000CFFF500
00000CFFF400
00000BFFF400
00000BFFF300
00000AFFF300
000009FFF300
000009FFF200
00005EFFF800
001AFFFFFFB1
02ABBBBBBCC9
ENDCHAR
STARTCHAR ordmasculine
ENCODING 186
SWIDTH 449 0
DWIDTH 14 0
BBX 16 12 -1 13
BITMAP
0000035676400000
0019EFFFFFFE9100
03EFFFFDCEFFFE30
1DFFFA20008FFFD1
6FFFB000000AFFF6
8FFF60000006FFF9
8FFF60000006FFF9
5FFFB000000AFFF6
0DFFF800018FFFD1
02DFFFEBCEFFFD20
0018EFFFFFFE8100
0000046876300000
ENDCHAR
STARTCHAR guillemotright
ENCODING 187
SWIDTH 415 0
DWIDTH 13 0
BBX 14 17 0 -1
BITMAP
09000008000000
4F70002F900000
9FF3007FF50000
3FFD102FFE2000
0CFFA00AFFB000
05FFF603FFF800
00DFFE20BFFF40
007FFFC05FFFD1
002FFFF20FFFF4
007FFFC05FFFD1
00DFFE20CFFF40
05FFF503FFF700
0CFF900AFFB000
3FFD102FFE2000
9FF3007FF40000
4F60002F800000
08000007000000
ENDCHAR
STARTCHAR onequarter
ENCODING 188
SWIDTH 918 0
DWIDTH 29 0
BBX 30 34 0 -5
BITMAP
000000000000000000000001000000
00000014860000000000005E500000
00158CFFF7000000000000DFFA1000
6CFFFFFFF7000000000007FFFF6000
026ADFFFF700000000002EFFFC0000
00000EFFF60000000000AFFFF30000
00000EFFF60000000004FFFF800000
00000DFFF5000000000CFFFD100000
00000CFFF5000000006FFFF4000000
00000CFFF400000001EFFFA0000000
00000BFFF400000009FFFE10000000
00000BFFF30000003FFFF600000000
00000AFFF3000000CFFFC000000000
000009FFF3000005FFFF3000060000
000009FFF200001DFFF800008A0000
00005EFFF800008FFFD10006FA0000
001AFFFFFFB102FFFF40004FF90000
02ABBBBBBCC90BFFFA0002EFF90000
0000000000004FFFE1001DFFF90000
000000000000DFFF6000BFFFF80000
000000000007FFFC0009FFFFF80120
00000000002EFFF3007FFFFFF80920
0000000000AFFF8005FFFBFFF72F20
0000000003FFFD103EFF85FFF7AF10
000000000CFFF402DFFE7AFFFCFF10
000000006FFFA01CFFFFFFFFFFFF00
00000001EFFE20AEEEEDDDFFFDFF00
00000009FFF60000000003FFF5AE00
0000003FFFC00000000003FFF41D00
000000BFFF300000000029FFF80400
000005FFF8000000005BFFFFFFD500
00000CFFD10000005ABBBBBBBBBB71
0000019F5000000000000000000000
000000020000000000000000000000
ENDCHAR
STARTCHAR onehalf
ENCODING 189
SWIDTH 1007 0
DWIDTH 32 0
BBX 32 34 0 -5
BITMAP
00000000000000000000000100000000
00000014860000000000005E50000000
00158CFFF7000000000000DFFA100000
6CFFFFFFF7000000000007FFFF600000
026ADFFFF700000000002EFFFC000000
00000EFFF60000000000AFFFF3000000
00000EFFF60000000004FFFF80000000
00000DFFF5000000000CFFFD10000000
00000CFFF5000000006FFFF400000000
00000CFFF400000001EFFFA000000000
00000BFFF400000009FFFE1000000000
00000BFFF30000003FFFF60000000000
00000AFFF3000000CFFFC00000000000
000009FFF3000005FFFF300000000000
000009FFF200001DFFF8000000000000
00005EFFF800008FFFD1000000000000
001AFFFFFFB102FFFF43000000000000
02ABBBBBBCC90BFFFA079006ADCA5000
0000000000004FFFE106FADFFFFFFC20
000000000000DFFF6004FFFFFFFFFFD1
000000000007FFFC0002FFFB313CFFF8
00000000002EFFF30001FFB00003FFFB
0000000000AFFF800000EF200003FFFB
0000000003FFFD100000DA00000AFFF9
000000000CFFF4000000B400019FFFF3
000000006FFFA0000000A1005DFFFE48
00000001EFFE20000000503CFFFFA25C
00000009FFF60000000019FFFFA301EB
0000003FFFC000000001CFFFD4000AF9
000000BFFF300000000BFFFD10015FF8
000005FFF8000000004FFFFFFFFFFFF6
00000CFFD1000000009FFFFFFFFFFFF5
0000019F5000000000BFFFFFFFFFFFF4
00000002000000000000112334456671
ENDCHAR
STARTCHAR threequarters
ENCODING 190
SWIDTH 936 0
DWIDTH 30 0
BBX 30 34 0 -5
BITMAP
310000000000000000000001000000
3B000012000000000000000BB20000
0F907DFFFC6000000000005FFE6000
0CFDFFFFFFFC1000000000DFFFE100
09FFFFCCFFFFB000000007FFFF5000
06FFE4002EFFF30000002EFFFB0000
03FE200008FFF5000000AFFFE20000
00E600000AFFF3000004FFFF700000
00A00865AFFFE100000CFFFC000000
00100FFFFFFF7000006FFFF3000000
00201FFFFFFFE10001EFFF90000000
00B00657DFFFF80009FFFE10000000
02F400001EFFFB003FFFF500000000
05FD10000CFFFB00CFFFB000034000
09FFD3005FFFF805FFFE20001D4000
0CFFFFDEFFFFD11EFFF70000CF4000
1FDBFFFFFFFD208FFFC0000AFF3000
4E205BEFEB6002FFFF30007FFF3000
6300000000000BFFF90005FFFF3000
1000000000005FFFE1003FFFFF2000
000000000000DFFF5002EFFFFF2040
000000000007FFFB001CFFFFFF21A0
00000000002EFFF200BFFDDFFF18B0
0000000000AFFF7009FFE2CFFF3FA0
0000000004FFFD006FFFA7DFFFCFA0
000000000CFFF404FFFFFFFFFFFF90
000000006FFF902DEEEDDDEFFFDF80
00000001EFFE1000000000AFFD2E80
00000009FFF500000000009FFD0670
0000003FFFB00000000004CFFE3030
000000CFFF2000000027DFFFFFFA20
000004FFF700000027BBBBBBBBBBA4
0000004CD000000000000000000000
000000002000000000000000000000
ENDCHAR
STARTCHAR questiondown
ENCODING 191
SWIDTH 568 0
DWIDTH 18 0
BBX 20 30 -1 -11
BITMAP
00000000000002662000
0000000000008FFFFA10
000000000002FFFFFFA0
000000000002FFFFFFD0
0000000000009FFFFF80
00000000000005BDC700
00000000000000000000
000000000002DA620000
000000000008FFFD0000
00000000000EFFFB0000
00000000005FFFF90000
0000000133CFFFF70000
000039DFFFFFFFF50000
0009FFFFFFFFFFF30000
00BFFFFFFCA9CFF10000
07FFFFFC300001600000
0DFFFFC1000000000000
2FFFFF30000000000000
4FFFFE00000000000000
4FFFFD00000000000003
2FFFFF10000000000082
0CFFFF800000000005E0
05FFFFF6000000003EB0
008FFFFFA3000006EF80
0007FFFFFFDA9AEFFF40
00003AFFFFFFFFFFFF10
000000158ABCBA8BFD00
0000000000000001EA00
00000000000000007600
00000000000000000200
ENDCHAR
STARTCHAR Agrave
ENCODING 192
SWIDTH 788 0
DWIDTH 25 0
BBX 37 40 -5 -8
BITMAP
00000000000000004400000000000000000000
000000000000005CFA00000000000000000000
0000000000000BFFFF10000000000000000000
00000000000004FFFF60000000000000000000
00000000000000BFFFB0000000000000000000
000000000000003FFFF1000000000000000000
000000000000000AFFF6000000000000000000
0000000000000002FE82000000000000000000
00000000000000004100000000000000000000
00000000000000000000000000000000000000
00000003654433211000000000000000000000
000000004CFFFFFFFFE5000000000000000000
00000000004CFFFFFFFC000000000000000000
0000000000005CFFFFFF500000000000000000
000000000000005DFFFFC00000000000000000
000000000000000CFFFFF50000000000000000
000000000000005FFFFFFC0000000000000000
00000000000000DFFFFFFF4000000000000000
00000000000006FFBEFFFFC000000000000000
0000000000000DFF28FFFFF400000000000000
0000000000007FF901FFFFFB00000000000000
000000000001EFE1009FFFFF40000000000000
000000000007FF70002FFFFFB0000000000000
00000000001EFE10000AFFFFF3000000000000
00000000008FFEDCCBABFFFFFB000000000000
0000000001EFFFFFFFFFFFFFFF300000000000
0000000009FFFFFFFFFFFFFFFFB00000000000
000000002FFD665543322DFFFFF30000000000
000000009FF60000000007FFFFFA0000000000
00000002FFC00000000001EFFFFF3000000000
0000017DFF6000000000009FFFFFA000000000
0003AFFFFFF800000000002FFFFFF200000000
06CFFFFFFFFFC3000000000BFFFFFA00000000
46789ABCDEFFFF8100000004FFFFFFB7200000
000000000001234300000000DFFFFFFFFD8400
000000000000000000000008FFFFFFFFFD9510
00000000000000000000007FFFFFFD95100000
0000000000000000000006FFFD951000000000
000000000000000000006C9510000000000000
00000000000000000000100000000000000000
ENDCHAR
STARTCHAR Aacute
ENCODING 193
SWIDTH 788 0
DWIDTH 25 0
BBX 37 41 -5 -8
BITMAP
00000000000000000100000000000000000000
00000000000000000DB4000000000000000000
00000000000000003FFFC20000000000000000
00000000000000008FFFD00000000000000000
0000000000000000DFFF500000000000000000
0000000000000003FFFC000000000000000000
0000000000000008FFF4000000000000000000
0000000000000004CFB0000000000000000000
00000000000000000320000000000000000000
00000000000000000000000000000000000000
00000000000000000000000000000000000000
00000003654433211000000000000000000000
000000004CFFFFFFFFE5000000000000000000
00000000004CFFFFFFFC000000000000000000
0000000000005CFFFFFF500000000000000000
000000000000005DFFFFC00000000000000000
000000000000000CFFFFF50000000000000000
000000000000005FFFFFFC0000000000000000
00000000000000DFFFFFFF4000000000000000
00000000000006FFBEFFFFC000000000000000
0000000000000DFF28FFFFF400000000000000
0000000000007FF901FFFFFB00000000000000
000000000001EFE1009FFFFF40000000000000
000000000007FF70002FFFFFB0000000000000
00000000001EFE10000AFFFFF3000000000000
00000000008FFEDCCBABFFFFFB000000000000
0000000001EFFFFFFFFFFFFFFF300000000000
0000000009FFFFFFFFFFFFFFFFB00000000000
000000002FFD665543322DFFFFF30000000000
000000009FF60000000007FFFFFA0000000000
00000002FFC00000000001EFFFFF3000000000
0000017DFF6000000000009FFFFFA000000000
0003AFFFFFF800000000002FFFFFF200000000
06CFFFFFFFFFC3000000000BFFFFFA00000000
46789ABCDEFFFF8100000004FFFFFFB7200000
000000000001234300000000DFFFFFFFFD8400
000000000000000000000008FFFFFFFFFD9510
00000000000000000000007FFFFFFD95100000
0000000000000000000006FFFD951000000000
000000000000000000006C9510000000000000
00000000000000000000100000000000000000
ENDCHAR
STARTCHAR Acircumflex
ENCODING 194
SWIDTH 788 0
DWIDTH 25 0
BBX 37 39 -5 -8
BITMAP
00000000000000000730000000000000000000
00000000000000009FE1000000000000000000
0000000000000006FFFC000000000000000000
000000000000003FFFFF900000000000000000
00000000000001DFFFFFF60000000000000000
0000000000000BFFFAEFFE3000000000000000
0000000000008FFD4019FFD100000000000000
0000000000005E8000004DA100000000000000
00000000000000000000000000000000000000
00000003654433211000000000000000000000
000000004CFFFFFFFFE5000000000000000000
00000000004CFFFFFFFC000000000000000000
0000000000005CFFFFFF500000000000000000
000000000000005DFFFFC00000000000000000
000000000000000CFFFFF50000000000000000
000000000000005FFFFFFC0000000000000000
00000000000000DFFFFFFF4000000000000000
00000000000006FFBEFFFFC000000000000000
0000000000000DFF28FFFFF400000000000000
0000000000007FF901FFFFFB00000000000000
000000000001EFE1009FFFFF40000000000000
000000000007FF70002FFFFFB0000000000000
00000000001EFE10000AFFFFF3000000000000
00000000008FFEDCCBABFFFFFB000000000000
0000000001EFFFFFFFFFFFFFFF300000000000
0000000009FFFFFFFFFFFFFFFFB00000000000
000000002FFD665543322DFFFFF30000000000
000000009FF60000000007FFFFFA0000000000
00000002FFC00000000001EFFFFF3000000000
0000017DFF6000000000009FFFFFA000000000
0003AFFFFFF800000000002FFFFFF200000000
06CFFFFFFFFFC3000000000BFFFFFA00000000
46789ABCDEFFFF8100000004FFFFFFB7200000
000000000001234300000000DFFFFFFFFD8400
000000000000000000000008FFFFFFFFFD9510
00000000000000000000007FFFFFFD95100000
0000000000000000000006FFFD951000000000
000000000000000000006C9510000000000000
00000000000000000000100000000000000000
ENDCHAR
STARTCHAR Atilde
ENCODING 195
SWIDTH 788 0
DWIDTH 25 0
BBX 37 38 -5 -8
BITMAP
00000000000000000000001000000000000000
00000000000005BED93006B000000000000000
0000000000000FFFFFFCDFB000000000000000
0000000000000FFFFFFFFFB000000000000000
0000000000000FFCEFFFFFB000000000000000
0000000000000D3005BEEA3000000000000000
00000000000001000000000000000000000000
00000000000000000000000000000000000000
00000003654433211000000000000000000000
000000004CFFFFFFFFE5000000000000000000
00000000004CFFFFFFFC000000000000000000
0000000000005CFFFFFF500000000000000000
000000000000005DFFFFC00000000000000000
000000000000000CFFFFF50000000000000000
000000000000005FFFFFFC0000000000000000
00000000000000DFFFFFFF4000000000000000
00000000000006FFBEFFFFC000000000000000
0000000000000DFF28FFFFF400000000000000
0000000000007FF901FFFFFB00000000000000
000000000001EFE1009FFFFF40000000000000
000000000007FF70002FFFFFB0000000000000
00000000001EFE10000AFFFFF3000000000000
00000000008FFEDCCBABFFFFFB000000000000
0000000001EFFFFFFFFFFFFFFF300000000000
0000000009FFFFFFFFFFFFFFFFB00000000000
000000002FFD665543322DFFFFF30000000000
000000009FF60000000007FFFFFA0000000000
00000002FFC00000000001EFFFFF3000000000
0000017DFF6000000000009FFFFFA000000000
0003AFFFFFF800000000002FFFFFF200000000
06CFFFFFFFFFC3000000000BFFFFFA00000000
46789ABCDEFFFF8100000004FFFFFFB7200000
000000000001234300000000DFFFFFFFFD8400
000000000000000000000008FFFFFFFFFD9510
00000000000000000000007FFFFFFD95100000
0000000000000000000006FFFD951000000000
000000000000000000006C9510000000000000
00000000000000000000100000000000000000
ENDCHAR
STARTCHAR Adieresis
ENCODING 196
SWIDTH 788 0
DWIDTH 25 0
BBX 37 36 -5 -8
BITMAP
00000000000000310001310000000000000000
0000000000000BFF502EFD1000000000000000
0000000000002FFFA07FFF6000000000000000
0000000000001EFF804FFF3000000000000000
00000000000003970005A50000000000000000
00000000000000000000000000000000000000
00000003654433211000000000000000000000
000000004CFFFFFFFFE5000000000000000000
00000000004CFFFFFFFC000000000000000000
0000000000005CFFFFFF500000000000000000
000000000000005DFFFFC00000000000000000
000000000000000CFFFFF50000000000000000
000000000000005FFFFFFC0000000000000000
00000000000000DFFFFFFF4000000000000000
00000000000006FFBEFFFFC000000000000000
0000000000000DFF28FFFFF400000000000000
0000000000007FF901FFFFFB00000000000000
000000000001EFE1009FFFFF40000000000000
000000000007FF70002FFFFFB0000000000000
00000000001EFE10000AFFFFF3000000000000
00000000008FFEDCCBABFFFFFB000000000000
0000000001EFFFFFFFFFFFFFFF300000000000
0000000009FFFFFFFFFFFFFFFFB00000000000
000000002FFD665543322DFFFFF30000000000
000000009FF60000000007FFFFFA0000000000
00000002FFC00000000001EFFFFF3000000000
0000017DFF6000000000009FFFFFA000000000
0003AFFFFFF800000000002FFFFFF200000000
06CFFFFFFFFFC3000000000BFFFFFA00000000
46789ABCDEFFFF8100000004FFFFFFB7200000
000000000001234300000000DFFFFFFFFD8400
000000000000000000000008FFFFFFFFFD9510
00000000000000000000007FFFFFFD95100000
0000000000000000000006FFFD951000000000
000000000000000000006C9510000000000000
00000000000000000000100000000000000000
ENDCHAR
STARTCHAR Aring
ENCODING 197
SWIDTH 788 0
DWIDTH 25 0
BBX 37 36 -5 -8
BITMAP
00000000000000000210000000000000000000
0000000000000003CFF9100000000000000000
000000000000001DFFFFA00000000000000000
000000000000007FD25FF20000000000000000
000000000000008FA00EF30000000000000000
000000000000004FFACFE00000000000000000
0000000365443229FFFF400000000000000000
000000004CFFFFFFFFF6000000000000000000
00000000004CFFFFFFFC000000000000000000
0000000000005CFFFFFF400000000000000000
000000000000005DFFFFC00000000000000000
000000000000000CFFFFF40000000000000000
000000000000005FFFFFFC0000000000000000
00000000000000DFFFFFFF4000000000000000
00000000000006FFBEFFFFB000000000000000
0000000000000DFF28FFFFF400000000000000
0000000000007FF901FFFFFB00000000000000
000000000001EFE1009FFFFF30000000000000
000000000007FF70002FFFFFB0000000000000
00000000001EFE10000AFFFFF3000000000000
00000000008FFEDCCBABFFFFFB000000000000
0000000001EFFFFFFFFFFFFFFF300000000000
0000000009FFFFFFFFFFFFFFFFA00000000000
000000002FFD665543322DFFFFF30000000000
000000009FF60000000007FFFFFA0000000000
00000002FFC00000000001EFFFFF3000000000
0000017DFF6000000000009FFFFFA000000000
0003AFFFFFF800000000002FFFFFF200000000
06CFFFFFFFFFC3000000000BFFFFFA00000000
46789ABCDEFFFF8100000004FFFFFFB7200000
000000000001234300000000DFFFFFFFFD8400
000000000000000000000008FFFFFFFFFD9510
00000000000000000000007FFFFFFD95100000
0000000000000000000006FFFD951000000000
000000000000000000006C9510000000000000
00000000000000000000100000000000000000
ENDCHAR
STARTCHAR AE
ENCODING 198
SWIDTH 1019 0
DWIDTH 33 0
BBX 40 27 -8 -3
BITMAP
0000000000000000000000000000000000000111
00000000000000001123345667889ABBCDDEFFF5
00000000002BDEEFFFFFFFFFFFFFFFFFFFFFFFF5
0000000000019FFFFFFFFFFFFFFFFFFFFFEEFFF4
00000000000004DFFFFFFFFFFFFA76432004FFF3
0000000000000008FFFFFFFFFFF300000000DFF3
00000000000000002EFFEAFFFFF3000020007FF2
00000000000000006FFF59FFFFF3000090001EF1
0000000000000001EFFA08FFFFF30002E00009F1
0000000000000009FFE108FFFFF2000AD00002F0
000000000000004FFF5007FFFFF2002FD00000B0
00000000000000CFFA0007FFFFF2009FD0000030
00000000000007FFE10007FFFFF435FFC0000000
0000000000002EFF500006FFFFFFFFFFC0000030
000000000000AFFA000006FFFFFFFFFFC0000170
000000000005FFE4222116FFFFFFFFFFB0000670
00000000001DFFFFFFFFFFFFFFF124FFB0000A70
00000000008FFFFFFFFFFFFFFFF0009FB0001E80
0000000003FFFFFFFFFEEEFFFFE0001DA0005F80
000000000CFF6211100003FFFFE00005A0009F80
000000006FFA0000000003FFFFE000005000EF80
00000002EFE10000000004FFFFD000000004FF80
000005BFFFB000000015BFFFFFFFFFFFFFFFFF80
0028EFFFFFFC300039EFFFFFFFFFFFFFFFFFFF80
5BFFFFFFFFFFE639BBBBBAAAAAAAAA9999999950
123456789ABCDEA1000000000000000000000000
0000000000000001000000000000000000000000
ENDCHAR
STARTCHAR Ccedilla
ENCODING 199
SWIDTH 766 0
DWIDTH 25 0
BBX 25 35 0 -11
BITMAP
00000000000000000000000420
00000000000000000000001D00
0000000037ACEEDB720000BC00
0000005CFFFFFFFFFFA208FA00
00002BFFFFFFFFFFFFFE7FF700
0002EFFFFFFEA879DFFFFFF500
002DFFFFFE71000005EFFFF300
00AFFFFFE3000000002DFFF000
04FFFFFF300000000002EFD000
0BFFFFF90000000000006FA000
1FFFFFF20000000000000C8000
3FFFFFD0000000000000065000
5FFFFFA0000000000000012000
5FFFFF90000000000000000000
4FFFFFA0000000000000000000
3FFFFFB0000000000000000000
1FFFFFE0000000000000030000
0BFFFFF4000000000000082000
06FFFFFA0000000000000D5000
00DFFFFF5000000000006F8000
004FFFFFE40000000003EFB000
0008FFFFFF810000006EFFE000
00008FFFFFFFB978AEFFFFF200
000006EFFFFFFFFFFFFFA4F500
00000018EFFFFFFFFFD6007800
00000000149FFCBA7400000700
0000000000AFD0000000000100
0000000005FFC5000000000000
000000001EFFFFB00000000000
0000000038ACFFF70000000000
0000000000002DFC0000000000
0000000002600CFD0000000000
000000001DFAAFFA0000000000
000000004FFFFFF30000000000
0000000003BFFC400000000000
ENDCHAR
STARTCHAR Egrave
ENCODING 200
SWIDTH 781 0
DWIDTH 25 0
BBX 27 34 -3 -1
BITMAP
0000000000000016100000000000
00000000000018EF500000000000
000000000001EFFFA00000000000
0000000000009FFFF10000000000
0000000000002FFFF60000000000
00000000000008FFFB0000000000
00000000000001EFFF1000000000
000000000000007FC60000000000
0000000000000004000000000000
0000000000000000000000000110
00000000000012346789ABCDFFA0
2456789BCDEFFFFFFFFFFFFFFFA0
05AEFFFFFFFFFFFFFFFFFEEFFF90
00015AEFFFFFFD765431003FFF80
00000006FFFFFA000000000CFF80
00000002FFFFFA0000020005FF70
00000001FFFFF90000090000DF60
00000001FFFFF900006B00006F60
00000000FFFFF90000DB00000E50
00000000FFFFF80006FB00000740
00000000EFFFF8001EFA00000130
00000000EFFFF9339FFA00000000
00000000DFFFFFFFFFFA00000300
00000000DFFFFFFFFFF900000900
00000000CFFFFFFFFFF900002C00
00000000CFFFF7129FF900007C00
00000000BFFFF6001DF80000CC00
00000000BFFFF60004F80003FC00
00000000AFFFF50000980008FC00
00000000AFFFF5000015000DFC00
00000000AFFFF4000000003FFC00
0000028DFFFFFFFFFFFFFFFFFC00
0005BFFFFFFFFFFFFFFFFFFFFD00
039BBBBBAAAAAAAAA99999999700
ENDCHAR
STARTCHAR Eacute
ENCODING 201
SWIDTH 781 0
DWIDTH 25 0
BBX 27 34 -3 -1
BITMAP
0000000000000000100000000000
0000000000000003E82000000000
0000000000000008FFF900000000
000000000000000DFFF800000000
000000000000003FFFE100000000
000000000000009FFF7000000000
00000000000000EFFD0000000000
000000000000008EF50000000000
0000000000000000500000000000
0000000000000000000000000110
00000000000012346789ABCDFFA0
2456789BCDEFFFFFFFFFFFFFFFA0
05AEFFFFFFFFFFFFFFFFFEEFFF90
00015AEFFFFFFD765431003FFF80
00000006FFFFFA000000000CFF80
00000002FFFFFA0000020005FF70
00000001FFFFF90000090000DF60
00000001FFFFF900006B00006F60
00000000FFFFF90000DB00000E50
00000000FFFFF80006FB00000740
00000000EFFFF8001EFA00000130
00000000EFFFF9339FFA00000000
00000000DFFFFFFFFFFA00000300
00000000DFFFFFFFFFF900000900
00000000CFFFFFFFFFF900002C00
00000000CFFFF7129FF900007C00
00000000BFFFF6001DF80000CC00
00000000BFFFF60004F80003FC00
00000000AFFFF50000980008FC00
00000000AFFFF5000015000DFC00
00000000AFFFF4000000003FFC00
0000028DFFFFFFFFFFFFFFFFFC00
0005BFFFFFFFFFFFFFFFFFFFFD00
039BBBBBAAAAAAAAA99999999700
ENDCHAR
STARTCHAR Ecircumflex
ENCODING 202
SWIDTH 781 0
DWIDTH 25 0
BBX 27 34 -3 -1
BITMAP
0000000000000046000000000000
00000000000003FF600000000000
0000000000001DFFF30000000000
000000000000BFFFFD1000000000
000000000008FFFFFFB000000000
00000000005FFFDBFFF900000000
0000000003EFF8005EFF50000000
0000000002CB2000019D30000000
0000000000000000000000000000
0000000000000000000000000110
00000000000012346789ABCDFFA0
2456789BCDEFFFFFFFFFFFFFFFA0
05AEFFFFFFFFFFFFFFFFFEEFFF90
00015AEFFFFFFD765431003FFF80
00000006FFFFFA000000000CFF80
00000002FFFFFA0000020005FF70
00000001FFFFF90000090000DF60
00000001FFFFF900006B00006F60
00000000FFFFF90000DB00000E50
00000000FFFFF80006FB00000740
00000000EFFFF8001EFA00000130
00000000EFFFF9339FFA00000000
00000000DFFFFFFFFFFA00000300
00000000DFFFFFFFFFF900000900
00000000CFFFFFFFFFF900002C00
00000000CFFFF7129FF900007C00
00000000BFFFF6001DF80000CC00
00000000BFFFF60004F80003FC00
00000000AFFFF50000980008FC00
00000000AFFFF5000015000DFC00
00000000AFFFF4000000003FFC00
0000028DFFFFFFFFFFFFFFFFFC00
0005BFFFFFFFFFFFFFFFFFFFFD00
039BBBBBAAAAAAAAA99999999700
ENDCHAR
STARTCHAR Edieresis
ENCODING 203
SWIDTH 781 0
DWIDTH 25 0
BBX 27 30 -3 -1
BITMAP
0000000000003100013100000000
00000000000BFF502EFD10000000
00000000002FFFA07FFF60000000
00000000001EFF804FFF30000000
000000000003970005A500000000
0000000000000000000000000110
00000000000012346789ABCDFFA0
2456789BCDEFFFFFFFFFFFFFFFA0
05AEFFFFFFFFFFFFFFFFFEEFFF90
00015AEFFFFFFD765431003FFF80
00000006FFFFFA000000000CFF80
00000002FFFFFA0000020005FF70
00000001FFFFF90000090000DF60
00000001FFFFF900006B00006F60
00000000FFFFF90000DB00000E50
00000000FFFFF80006FB00000740
00000000EFFFF8001EFA00000130
00000000EFFFF9339FFA00000000
00000000DFFFFFFFFFFA00000300
00000000DFFFFFFFFFF900000900
00000000CFFFFFFFFFF900002C00
00000000CFFFF7129FF900007C00
00000000BFFFF6001DF80000CC00
00000000BFFFF60004F80003FC00
00000000AFFFF50000980008FC00
00000000AFFFF5000015000DFC00
00000000AFFFF4000000003FFC00
0000028DFFFFFFFFFFFFFFFFFC00
0005BFFFFFFFFFFFFFFFFFFFFD00
039BBBBBAAAAAAAAA99999999700
ENDCHAR
STARTCHAR Igrave
ENCODING 204
SWIDTH 445 0
DWIDTH 14 0
BBX 20 36 -3 -3
BITMAP
00000000035000000000
00000004BFD000000000
0000008FFFF300000000
0000002FFFF800000000
00000008FFFD00000000
00000001EFFF40000000
000000007FFF90000000
000000000DF930000000
00000000031000000000
00000000000000000000
11000000000000000000
28EFFFFFFEEEEEEDDDA4
0005CFFFFFFFFFFFA400
0000039FFFFFFD710000
00000006FFFFF6000000
00000005FFFFF6000000
00000004FFFFF5000000
00000004FFFFF5000000
00000003FFFFF5000000
00000002FFFFF4000000
00000002FFFFF4000000
00000001FFFFF3000000
00000001FFFFF3000000
00000000FFFFF3000000
00000000FFFFF2000000
00000000EFFFF2000000
00000000DFFFF1000000
00000000DFFFF1000000
00000000CFFFF0000000
00000000CFFFF0000000
00000000BFFFF0000000
00000000AFFFE0000000
00000000AFFFE0000000
00000039EFFFFB500000
00016CFFFFFFFFFE8200
016BCCCCCCCCCCCCCC82
ENDCHAR
STARTCHAR Iacute
ENCODING 205
SWIDTH 445 0
DWIDTH 14 0
BBX 20 36 -3 -3
BITMAP
00000000000100000000
00000000005E81000000
0000000000AFFF800000
0000000001EFFF700000
0000000005FFFD000000
000000000AFFF5000000
000000001EFFC0000000
0000000018EF40000000
00000000001500000000
00000000000000000000
11000000000000000000
28EFFFFFFEEEEEEDDDA4
0005CFFFFFFFFFFFA400
0000039FFFFFFD710000
00000006FFFFF6000000
00000005FFFFF6000000
00000004FFFFF5000000
00000004FFFFF5000000
00000003FFFFF5000000
00000002FFFFF4000000
00000002FFFFF4000000
00000001FFFFF3000000
00000001FFFFF3000000
00000000FFFFF3000000
00000000FFFFF2000000
00000000EFFFF2000000
00000000DFFFF1000000
00000000DFFFF1000000
00000000CFFFF0000000
00000000CFFFF0000000
00000000BFFFF0000000
00000000AFFFE0000000
00000000AFFFE0000000
00000039EFFFFB500000
00016CFFFFFFFFFE8200
016BCCCCCCCCCCCCCC82
ENDCHAR
STARTCHAR Icircumflex
ENCODING 206
SWIDTH 445 0
DWIDTH 14 0
BBX 20 36 -3 -3
BITMAP
00000000017200000000
000000000AFD10000000
000000007FFFA0000000
00000004FFFFF7000000
0000002EFFFFFF400000
000001CFFFAEFFE20000
00000AFFC301AFFC1000
000006E7000005D90000
00000000000000000000
00000000000000000000
11000000000000000000
28EFFFFFFEEEEEEDDDA4
0005CFFFFFFFFFFFA400
0000039FFFFFFD710000
00000006FFFFF6000000
00000005FFFFF6000000
00000004FFFFF5000000
00000004FFFFF5000000
00000003FFFFF5000000
00000002FFFFF4000000
00000002FFFFF4000000
00000001FFFFF3000000
00000001FFFFF3000000
00000000FFFFF3000000
00000000FFFFF2000000
00000000EFFFF2000000
00000000DFFFF1000000
00000000DFFFF1000000
00000000CFFFF0000000
00000000CFFFF0000000
00000000BFFFF0000000
00000000AFFFE0000000
00000000AFFFE0000000
00000039EFFFFB500000
00016CFFFFFFFFFE8200
016BCCCCCCCCCCCCCC82
ENDCHAR
STARTCHAR Idieresis
ENCODING 207
SWIDTH 445 0
DWIDTH 14 0
BBX 20 32 -3 -3
BITMAP
00000003100013000000
000000CFE303EFC10000
000003FFF908FFF40000
000001EFF605FFF20000
0000004970006A400000
00000000000000000000
11000000000000000000
28EFFFFFFEEEEEEDDDA4
0005CFFFFFFFFFFFA400
0000039FFFFFFD710000
00000006FFFFF6000000
00000005FFFFF6000000
00000004FFFFF5000000
00000004FFFFF5000000
00000003FFFFF5000000
00000002FFFFF4000000
00000002FFFFF4000000
00000001FFFFF3000000
00000001FFFFF3000000
00000000FFFFF3000000
00000000FFFFF2000000
00000000EFFFF2000000
00000000DFFFF1000000
00000000DFFFF1000000
00000000CFFFF0000000
00000000CFFFF0000000
00000000BFFFF0000000
00000000AFFFE0000000
00000000AFFFE0000000
00000039EFFFFB500000
00016CFFFFFFFFFE8200
016BCCCCCCCCCCCCCC82
ENDCHAR
STARTCHAR Eth
ENCODING 208
SWIDTH 1000 0
DWIDTH 32 0
BBX 31 23 0 -1
BITMAP
37766555555555555654200000000000
029EFFFFFFFFFFFFFFFFFEB610000000
00017DFFFFFFFFFFFFFFFFFFE8100000
0000004BFFFFFFFDBBBCFFFFFFD30000
000000003FFFFFF5000015DFFFFE3000
000000000FFFFFF50000001BFFFFD100
000000000DFFFFF400000001EFFFFA00
000000000CFFFFF3000000008FFFFF20
000000000BFFFFF2000000003FFFFF60
0002211009FFFFF1000000000FFFFF90
000BFFFFFFFFFFFBAA9830000EFFFFA0
000CFFFFFFFFFFFFFFFF30000DFFFFA0
000DFFFFFFFFFFFFFFFF20000DFFFF90
000CDDCCCCFFFFEA999800000FFFFF80
0000000004FFFFD0000000002FFFFF40
0000000003FFFFC0000000006FFFFF10
0000000002FFFFB000000000CFFFF900
0000000001FFFFA000000007FFFFF200
0000000001FFFFA00000018FFFFF6000
0000000006FFFFC88889AEFFFFF70000
00000005CFFFFFFFFFFFFFFFFD400000
000004CFFFFFFFFFFFFFFFDA40000000
0003BEDCCBA987665543210000000000
ENDCHAR
STARTCHAR Ntilde
ENCODING 209
SWIDTH 840 0
DWIDTH 27 0
BBX 34 34 -3 -2
BITMAP
0000000000000000000001000000000000
0000000000017DEC7101A6000000000000
000000000005FFFFFFBEF6000000000000
000000000005FFFFFFFFF6000000000000
000000000005FEBFFFFFF6000000000000
000000000005B1017CED81000000000000
0000000000010000000000000000000000
0000000000000000000000000000000000
0000000000000000000111222233344441
18AAAA9999988403AFFFFFFFFFFFFFF920
004BFFFFFFFFFE30017DFFFFFFFFE92000
00003AFFFFFFFFD100004AFFFFE8100000
00000029FFFFFFFB0000002BFF80000000
00000001FFFFFFFF80000009FF70000000
00000001FFFFFFFFF5000009FF70000000
00000001FFFFFFFFFE300009FF70000000
00000001FFFAFFFFFFD10008FF70000000
00000001FFF1CFFFFFFB0008FF60000000
00000001FFF11DFFFFFF9008FF60000000
00000001FFF102EFFFFFF608FF60000000
00000001FFF1004FFFFFFF38FF50000000
00000001FFF20006FFFFFFD9FF50000000
00000001FFF200008FFFFFFFFF50000000
00000001FFF300000AFFFFFFFF40000000
00000001FFF3000000BFFFFFFF40000000
00000001FFF40000001DFFFFFF40000000
00000001FFF400000002EFFFFF40000000
00000001FFF4000000004FFFFF30000000
00000029FFFC6100000005FFFF30000000
00003AFFFFFFFFA50000008FFF30000000
005CFFFFFFFFFFFFE930000AFF20000000
39BCCCCCCCCCCCCCCCDA4000BF20000000
0000000000000000000000001D20000000
0000000000000000000000000210000000
ENDCHAR
STARTCHAR Ograve
ENCODING 210
SWIDTH 808 0
DWIDTH 26 0
BBX 26 32 0 -1
BITMAP
00000000000005300000000000
000000000016DF900000000000
0000000000CFFFE00000000000
00000000006FFFF40000000000
00000000000DFFF90000000000
000000000005FFFE0000000000
000000000000CFFF4000000000
0000000000003FD71000000000
00000000000004000000000000
00000000000000000000000000
00000000000000000000000000
000000002579ABA86200000000
0000017CFFFFFFFFFFC6000000
00005EFFFFFFFFFFFFFFD40000
0008FFFFFFEA767CFFFFFF5000
007FFFFFF81000005EFFFFF400
03FFFFFF5000000004FFFFFD10
0BFFFFF800000000009FFFFF70
1FFFFFF100000000003FFFFFC0
4FFFFFB000000000000EFFFFF1
5FFFFF9000000000000CFFFFF3
5FFFFF8000000000000BFFFFF3
4FFFFFA000000000000CFFFFF2
2FFFFFD000000000000FFFFFF0
0DFFFFF300000000005FFFFFA0
06FFFFFA0000000000CFFFFF30
00BFFFFF6000000009FFFFF800
002DFFFFF8100004BFFFFFB000
0002CFFFFFFCBCEFFFFFF90000
000007EFFFFFFFFFFFFD400000
00000016CFFFFFFFDA40000000
00000000003455420000000000
ENDCHAR
STARTCHAR Oacute
ENCODING 211
SWIDTH 808 0
DWIDTH 26 0
BBX 26 31 0 -1
BITMAP
00000000000001000000000000
0000000000000DA40000000000
0000000000004FFFC200000000
0000000000009FFFD000000000
000000000000EFFF5000000000
000000000004FFFB0000000000
000000000009FFF30000000000
000000000005CFA00000000000
00000000000003200000000000
00000000000000000000000000
000000002579ABA86200000000
0000017CFFFFFFFFFFC6000000
00005EFFFFFFFFFFFFFFD40000
0008FFFFFFEA767CFFFFFF5000
007FFFFFF81000005EFFFFF400
03FFFFFF5000000004FFFFFD10
0BFFFFF800000000009FFFFF70
1FFFFFF100000000003FFFFFC0
4FFFFFB000000000000EFFFFF1
5FFFFF9000000000000CFFFFF3
5FFFFF8000000000000BFFFFF3
4FFFFFA000000000000CFFFFF2
2FFFFFD000000000000FFFFFF0
0DFFFFF300000000005FFFFFA0
06FFFFFA0000000000CFFFFF30
00BFFFFF6000000009FFFFF800
002DFFFFF8100004BFFFFFB000
0002CFFFFFFCBCEFFFFFF90000
000007EFFFFFFFFFFFFD400000
00000016CFFFFFFFDA40000000
00000000003455420000000000
ENDCHAR
STARTCHAR Ocircumflex
ENCODING 212
SWIDTH 808 0
DWIDTH 26 0
BBX 26 31 0 -1
BITMAP
00000000000055000000000000
000000000004FF500000000000
00000000002EFFE20000000000
0000000001CFFFFD1000000000
000000000AFFFFFFA000000000
000000007FFFCBFFF700000000
00000004FFE7006EFF40000000
00000002CB200002AD20000000
00000000000000000000000000
00000000000000000000000000
000000002579ABA86200000000
0000017CFFFFFFFFFFC6000000
00005EFFFFFFFFFFFFFFD40000
0008FFFFFFEA767CFFFFFF5000
007FFFFFF81000005EFFFFF400
03FFFFFF5000000004FFFFFD10
0BFFFFF800000000009FFFFF70
1FFFFFF100000000003FFFFFC0
4FFFFFB000000000000EFFFFF1
5FFFFF9000000000000CFFFFF3
5FFFFF8000000000000BFFFFF3
4FFFFFA000000000000CFFFFF2
2FFFFFD000000000000FFFFFF0
0DFFFFF300000000005FFFFFA0
06FFFFFA0000000000CFFFFF30
00BFFFFF6000000009FFFFF800
002DFFFFF8100004BFFFFFB000
0002CFFFFFFCBCEFFFFFF90000
000007EFFFFFFFFFFFFD400000
00000016CFFFFFFFDA40000000
00000000003455420000000000
ENDCHAR
STARTCHAR Otilde
ENCODING 213
SWIDTH 808 0
DWIDTH 26 0
BBX 26 30 0 -1
BITMAP
00000000000000000010000000
0000000017DEC7101A60000000
000000005FFFFFFBEF60000000
000000005FFFFFFFFF60000000
000000005FEBFFFFFF60000000
000000005B1017CED810000000
00000000100000000000000000
00000000000000000000000000
00000000000000000000000000
000000002579ABA86200000000
0000017CFFFFFFFFFFC6000000
00005EFFFFFFFFFFFFFFD40000
0008FFFFFFEA767CFFFFFF5000
007FFFFFF81000005EFFFFF400
03FFFFFF5000000004FFFFFD10
0BFFFFF800000000009FFFFF70
1FFFFFF100000000003FFFFFC0
4FFFFFB000000000000EFFFFF1
5FFFFF9000000000000CFFFFF3
5FFFFF8000000000000BFFFFF3
4FFFFFA000000000000CFFFFF2
2FFFFFD000000000000FFFFFF0
0DFFFFF300000000005FFFFFA0
06FFFFFA0000000000CFFFFF30
00BFFFFF6000000009FFFFF800
002DFFFFF8100004BFFFFFB000
0002CFFFFFFCBCEFFFFFF90000
000007EFFFFFFFFFFFFD400000
00000016CFFFFFFFDA40000000
00000000003455420000000000
ENDCHAR
STARTCHAR Odieresis
ENCODING 214
SWIDTH 808 0
DWIDTH 26 0
BBX 26 28 0 -1
BITMAP
00000000023000031000000000
000000006FF900BFF500000000
00000000CFFF02FFFA00000000
00000000AFFC01EFF800000000
00000000189200397000000000
00000000000000000000000000
00000000000000000000000000
000000002579ABA86200000000
0000017CFFFFFFFFFFC6000000
00005EFFFFFFFFFFFFFFD40000
0008FFFFFFEA767CFFFFFF5000
007FFFFFF81000005EFFFFF400
03FFFFFF5000000004FFFFFD10
0BFFFFF800000000009FFFFF70
1FFFFFF100000000003FFFFFC0
4FFFFFB000000000000EFFFFF1
5FFFFF9000000000000CFFFFF3
5FFFFF8000000000000BFFFFF3
4FFFFFA000000000000CFFFFF2
2FFFFFD000000000000FFFFFF0
0DFFFFF300000000005FFFFFA0
06FFFFFA0000000000CFFFFF30
00BFFFFF6000000009FFFFF800
002DFFFFF8100004BFFFFFB000
0002CFFFFFFCBCEFFFFFF90000
000007EFFFFFFFFFFFFD400000
00000016CFFFFFFFDA40000000
00000000003455420000000000
ENDCHAR
STARTCHAR multiply
ENCODING 215
SWIDTH 556 0
DWIDTH 18 0
BBX 18 18 0 2
BITMAP
000140000000020000
001CF40000002E9000
01CFFE300002DFF800
2DFFFFE3001DFFFF70
5FFFFFFE21CFFFFFF4
05FFFFFFDBFFFFFF80
004EFFFFFFFFFFF600
0003EFFFFFFFFF5000
00003EFFFFFFE40000
00000AFFFFFFA00000
00009FFFFFFFF80000
0009FFFFFFFFFF6000
008FFFFFCCFFFFF500
07FFFFFB11CFFFFF40
4FFFFFA0001BFFFFE2
0AFFF9000000BFFF70
00CF800000000AF500
001600000000003000
ENDCHAR
STARTCHAR Oslash
ENCODING 216
SWIDTH 808 0
DWIDTH 26 0
BBX 26 28 0 -4
BITMAP
00000000000000000010000000
000000000000000003E6000000
00000000000000000CFFC30000
00000000000000005FFFFF4000
000000002579AB98DFFFFC0000
0000017CFFFFFFFFFFFFF30000
00005DFFFFFFFFFFFFFFE40000
0008FFFFFFEA76CFFFFFFF6000
007FFFFFF81002EFFFFFFFF400
03FFFFFF600009FFFFFFFFFE10
0AFFFFF900003FFFFEAFFFFF70
1FFFFFF10000BFFFF62FFFFFD0
3FFFFFB00004FFFFB00EFFFFF1
5FFFFF90000CFFFF200CFFFFF3
5FFFFF80006FFFF7000BFFFFF3
4FFFFFA001DFFFD0000CFFFFF2
2FFFFFD007FFFF30000FFFFFF0
0CFFFFF31EFFF900005FFFFFA0
06FFFFFA9FFFD10000CFFFFF30
00CFFFFFFFFF500009FFFFF800
002DFFFFFFFA0003BFFFFFB000
0002CFFFFFFDBBEFFFFFF90000
000018FFFFFFFFFFFFFD400000
000004FFFFFFFFFFDA40000000
00000DFFF33555420000000000
00006FFF800000000000000000
00003CFD000000000000000000
00000064000000000000000000
ENDCHAR
STARTCHAR Ugrave
ENCODING 217
SWIDTH 725 0
DWIDTH 23 0
BBX 29 32 -3 -1
BITMAP
000000000000002600000000000000
0000000000003AFE10000000000000
000000000006FFFF50000000000000
000000000001EFFFA0000000000000
0000000000006FFFF1000000000000
0000000000000DFFF6000000000000
00000000000005FFFB000000000000
00000000000000CFA3000000000000
000000000000002200000000000000
000000000000000011000000000000
27654321000000003BFFFFEEEEDB30
017EFFFFFEDCBA82004CFFFFFE7000
00016DFFFFFFD71000005FFFB10000
000005FFFFF9000000001FFF600000
000005FFFFF7000000000FFF600000
000006FFFFF7000000000FFF500000
000006FFFFF6000000000EFF500000
000007FFFFF6000000000DFF400000
000007FFFFF6000000000DFF300000
000008FFFFF6000000000CFF300000
000008FFFFF6000000000CFF200000
000008FFFFF5000000000BFF200000
000009FFFFF5000000000AFF100000
000009FFFFF6000000000AFF000000
000007FFFFF7000000000CFD000000
000005FFFFFB000000001FFB000000
000001FFFFFF300000008FF7000000
0000009FFFFFD2000007FFE1000000
0000001DFFFFFE8547CFFF70000000
00000003EFFFFFFFFFFFF900000000
000000001AFFFFFFFFFD5000000000
000000000027ACCCA8400000000000
ENDCHAR
STARTCHAR Uacute
ENCODING 218
SWIDTH 725 0
DWIDTH 23 0
BBX 29 33 -3 -1
BITMAP
000000000000001000000000000000
000000000000007D61000000000000
00000000000000DFFE600000000000
00000000000003FFFF400000000000
00000000000008FFFB000000000000
0000000000000DFFF3000000000000
0000000000003FFF90000000000000
00000000000029FE20000000000000
000000000000001400000000000000
000000000000000000000000000000
000000000000000011000000000000
27654321000000003BFFFFEEEEDB30
017EFFFFFEDCBA82004CFFFFFE7000
00016DFFFFFFD71000005FFFB10000
000005FFFFF9000000001FFF600000
000005FFFFF7000000000FFF600000
000006FFFFF7000000000FFF500000
000006FFFFF6000000000EFF500000
000007FFFFF6000000000DFF400000
000007FFFFF6000000000DFF300000
000008FFFFF6000000000CFF300000
000008FFFFF6000000000CFF200000
000008FFFFF5000000000BFF200000
000009FFFFF5000000000AFF100000
000009FFFFF6000000000AFF000000
000007FFFFF7000000000CFD000000
000005FFFFFB000000001FFB000000
000001FFFFFF300000008FF7000000
0000009FFFFFD2000007FFE1000000
0000001DFFFFFE8547CFFF70000000
00000003EFFFFFFFFFFFF900000000
000000001AFFFFFFFFFD5000000000
000000000027ACCCA8400000000000
ENDCHAR
STARTCHAR Ucircumflex
ENCODING 219
SWIDTH 725 0
DWIDTH 23 0
BBX 29 32 -3 -1
BITMAP
000000000000004600000000000000
00000000000003FF60000000000000
0000000000001DFFF3000000000000
000000000000BFFFFD100000000000
000000000008FFFFFFB00000000000
00000000005FFFDBFFF90000000000
0000000003EFF8005EFF5000000000
0000000002CB2000019D3000000000
000000000000000000000000000000
000000000000000011000000000000
27654321000000003BFFFFEEEEDB30
017EFFFFFEDCBA82004CFFFFFE7000
00016DFFFFFFD71000005FFFB10000
000005FFFFF9000000001FFF600000
000005FFFFF7000000000FFF600000
000006FFFFF7000000000FFF500000
000006FFFFF6000000000EFF500000
000007FFFFF6000000000DFF400000
000007FFFFF6000000000DFF300000
000008FFFFF6000000000CFF300000
000008FFFFF6000000000CFF200000
000008FFFFF5000000000BFF200000
000009FFFFF5000000000AFF100000
000009FFFFF6000000000AFF000000
000007FFFFF7000000000CFD000000
000005FFFFFB000000001FFB000000
000001FFFFFF300000008FF7000000
0000009FFFFFD2000007FFE1000000
0000001DFFFFFE8547CFFF70000000
00000003EFFFFFFFFFFFF900000000
000000001AFFFFFFFFFD5000000000
000000000027ACCCA8400000000000
ENDCHAR
STARTCHAR Udieresis
ENCODING 220
SWIDTH 725 0
DWIDTH 23 0
BBX 29 29 -3 -1
BITMAP
000000000000310001310000000000
00000000000BFF502EFD1000000000
00000000002FFFA07FFF6000000000
00000000001EFF804FFF3000000000
000000000003970005A50000000000
000000000000000000000000000000
000000000000000011000000000000
27654321000000003BFFFFEEEEDB30
017EFFFFFEDCBA82004CFFFFFE7000
00016DFFFFFFD71000005FFFB10000
000005FFFFF9000000001FFF600000
000005FFFFF7000000000FFF600000
000006FFFFF7000000000FFF500000
000006FFFFF6000000000EFF500000
000007FFFFF6000000000DFF400000
000007FFFFF6000000000DFF300000
000008FFFFF6000000000CFF300000
000008FFFFF6000000000CFF200000
000008FFFFF5000000000BFF200000
000009FFFFF5000000000AFF100000
000009FFFFF6000000000AFF000000
000007FFFFF7000000000CFD000000
000005FFFFFB000000001FFB000000
000001FFFFFF300000008FF7000000
0000009FFFFFD2000007FFE1000000
0000001DFFFFFE8547CFFF70000000
00000003EFFFFFFFFFFFF900000000
000000001AFFFFFFFFFD5000000000
000000000027ACCCA8400000000000
ENDCHAR
STARTCHAR Yacute
ENCODING 221
SWIDTH 848 0
DWIDTH 27 0
BBX 34 34 -4 -3
BITMAP
0000000000000000000100000000000000
0000000000000000000AC5000000000000
0000000000000000001EFFD40000000000
0000000000000000005FFFF20000000000
000000000000000000AFFF800000000000
000000000000000001EFFE100000000000
000000000000000005FFF7000000000000
000000000000000003AFD0000000000000
0000000000000000000230000000000000
0000000000000000000000000000000000
123445667899ABCC600000000000000000
38DFFFFFFFFFFFC3000000000000000000
0004AEFFFFFFF80000019BAA9988766541
0000016BFFFFFD10000007EFFFFFFFE820
000000008FFFFFB00000002AFFFFC50000
0000000009FFFFF900000005FFA3000000
0000000000BFFFFF6000005FFA00000000
00000000001CFFFFF40005FFB000000000
000000000002DFFFFE205FFC1000000000
0000000000003EFFFFD6FFD10000000000
00000000000004FFFFFFFE200000000000
000000000000006FFFFFE3000000000000
0000000000000007FFFF50000000000000
0000000000000003FFFF50000000000000
0000000000000003FFFF60000000000000
0000000000000004FFFF80000000000000
0000000000000005FFFF90000000000000
0000000000000005FFFFA0000000000000
0000000000000006FFFFC0000000000000
0000000000000006FFFFD0000000000000
000000000000001AFFFFF8200000000000
00000000000029EFFFFFFFFC7200000000
00000000004BFFFFFFFFFFFFFFC6100000
0000000001333333332222222222100000
ENDCHAR
STARTCHAR Thorn
ENCODING 222
SWIDTH 745 0
DWIDTH 24 0
BBX 28 22 -3 -1
BITMAP
2777665554443322211000000000
028EFFFFFFFFFFFFFB6000000000
00017DFFFFFFFFE8200000000000
0000005DFFFFD500000000000000
00000007FFFFA322000000000000
00000007FFFFFFFFFECA74100000
00000007FFFFFFFFFFFFFFFA3000
00000006FFFFECBBBDFFFFFFF800
00000006FFFFA00000037DFFFF80
00000006FFFFA0000000009FFFF0
00000006FFFFA0000000003FFFF2
00000005FFFFB0000000009FFFE0
00000005FFFFB00000015CFFFF40
00000005FFFFD55679CFFFFFC300
00000004FFFFFFFFFFFFFEA40000
00000004FFFFFFFFFDB741000000
00000004FFFFF842000000000000
00000004FFFFF400000000000000
00000007FFFFF600000000000000
000005DFFFFFFFC5000000000000
0004CFFFFFFFFFFFE82000000000
03BFEEEEEDDDDDCCCCC710000000
ENDCHAR
STARTCHAR germandbls
ENCODING 223
SWIDTH 986 0
DWIDTH 32 0
BBX 34 43 -2 -13
BITMAP
000000000000158A984000000000000000
000000000007EFFFFFFE70000000000000
0000000001BFFFFFFFFFFC200000000000
000000000AFFFF9546CFFFD10000000000
000000006FFFE4000009FFFB0000000000
00000000DFFF60000000CFFF4000000000
00000004FFFE000000005FFFA000000000
00000009FFF9000000001FFFE000000000
0000000DFFF7000000000EFFF200000000
0000000FFFF6000000000DFFF300000000
0000002FFFF6000000000DFFF300000000
0000003FFFF7000000002FFFF100000000
0000003FFFF9000000009FFFB000000000
0001113FFFFA00000003FFFF5000000000
008FFFFFFFFC0000000CFFFC0000000000
008FFFFFFFFE0000007FFFF50000000000
006CCCCEFFFF000001EFFFC00000000000
0000000BFFFF200008FFFF400000000000
00000009FFFF40000DFFFD000000000000
00000007FFFF60001FFFFA000000000000
00000005FFFF80002FFFFD000000000000
00000003FFFF90000FFFFF700000000000
00000001FFFFB0000CFFFFFA2000000000
00000000EFFFD00004FFFFFFFA40000000
00000000CFFFF000007FFFFFFFFE820000
00000000AFFFF2000006FFFFFFFFFFA200
000000008FFFF30002103BFFFFFFFFFF50
000000006FFFF5000490004BFFFFFFFFF3
000000004FFFF70005F5000028EFFFFFFA
000000003FFFF90005FF40000017FFFFFC
000000001FFFFB0006FFF60000005FFFFB
000000000FFFFC0007FFFFB400007FFFF7
000000000DFFFE0008FFFFFFECCEFFFFB0
000000000CFFFE0009F8AFFFFFFFFFF810
049810000BFFFE000AC0027ADEEDA71000
4FFFD0000BFFFD000A2000000000000000
8FFFF3000CFFFA00030000000000000000
8FFFF1001FFFF600000000000000000000
4FFFA0005FFFE100000000000000000000
0CFFF503EFFF7000000000000000000000
02EFFFFFFFFA0000000000000000000000
002CFFFFFF900000000000000000000000
000049AA72000000000000000000000000
ENDCHAR
STARTCHAR agrave
ENCODING 224
SWIDTH 572 0
DWIDTH 18 0
BBX 21 29 0 -1
BITMAP
0000000000026000000000
0000000003AFE100000000
000000006FFFF500000000
000000001EFFFA00000000
0000000006FFFF10000000
0000000000DFFF60000000
00000000005FFFB0000000
00000000000CFA30000000
0000000000022000000000
0000000000000000000000
00000169BBA84000000000
00019FFFFFFFFD40000000
002DFFFDAAEFFFF4000000
00DFFF50001CFFFE100000
05FFFF400004FFFF500000
07FFFF800000EFFF900000
04FFFF500000DFFFA00000
008EE8000000CFFFB00000
000035787654EFFFB00000
005DFFFFFFFFFFFF900000
06FFFFFB9ABEFFFF800000
1FFFFE200006FFFF600000
5FFFFA000008FFFF500000
5FFFFC00000AFFFF300000
1EFFFFB5567DFFFF200000
04EFFFFFFFFFFFFF000000
0017CFFFFFFFFFFF920000
00000012213FFFFFFFA300
00000000004AA988776510
ENDCHAR
STARTCHAR aacute
ENCODING 225
SWIDTH 572 0
DWIDTH 18 0
BBX 21 29 0 -1
BITMAP
0000000000100000000000
00000000006D7100000000
0000000000BFFE70000000
0000000001FFFF50000000
0000000006FFFC00000000
000000000BFFF400000000
000000002FFFB000000000
0000000019EF3000000000
0000000000140000000000
0000000000000000000000
00000169BBA84000000000
00019FFFFFFFFD40000000
002DFFFDAAEFFFF4000000
00DFFF50001CFFFE100000
05FFFF400004FFFF500000
07FFFF800000EFFF900000
04FFFF500000DFFFA00000
008EE8000000CFFFB00000
000035787654EFFFB00000
005DFFFFFFFFFFFF900000
06FFFFFB9ABEFFFF800000
1FFFFE200006FFFF600000
5FFFFA000008FFFF500000
5FFFFC00000AFFFF300000
1EFFFFB5567DFFFF200000
04EFFFFFFFFFFFFF000000
0017CFFFFFFFFFFF920000
00000012213FFFFFFFA300
00000000004AA988776510
ENDCHAR
STARTCHAR acircumflex
ENCODING 226
SWIDTH 572 0
DWIDTH 18 0
BBX 21 29 0 -1
BITMAP
0000000001810000000000
000000000CFB0000000000
000000009FFF9000000000
00000006FFFFF500000000
0000003FFFFFFE30000000
000001DFFE9FFFD1000000
00000BFFB202BFFB000000
000008E6000006E7000000
0000000000000000000000
0000000000000000000000
00000169BBA84000000000
00019FFFFFFFFD40000000
002DFFFDAAEFFFF4000000
00DFFF50001CFFFE100000
05FFFF400004FFFF500000
07FFFF800000EFFF900000
04FFFF500000DFFFA00000
008EE8000000CFFFB00000
000035787654EFFFB00000
005DFFFFFFFFFFFF900000
06FFFFFB9ABEFFFF800000
1FFFFE200006FFFF600000
5FFFFA000008FFFF500000
5FFFFC00000AFFFF300000
1EFFFFB5567DFFFF200000
04EFFFFFFFFFFFFF000000
0017CFFFFFFFFFFF920000
00000012213FFFFFFFA300
00000000004AA988776510
ENDCHAR
STARTCHAR atilde
ENCODING 227
SWIDTH 572 0
DWIDTH 18 0
BBX 21 27 0 -1
BITMAP
0000000000000001000000
0000006CEC820088000000
000002FFFFFFCEF8000000
000002FFFFFFFFF8000000
000002FFBEFFFFF8000000
000002C2016BED92000000
0000011000000000000000
0000000000000000000000
00000169BBA84000000000
00019FFFFFFFFD40000000
002DFFFDAAEFFFF4000000
00DFFF50001CFFFE100000
05FFFF400004FFFF500000
07FFFF800000EFFF900000
04FFFF500000DFFFA00000
008EE8000000CFFFB00000
000035787654EFFFB00000
005DFFFFFFFFFFFF900000
06FFFFFB9ABEFFFF800000
1FFFFE200006FFFF600000
5FFFFA000008FFFF500000
5FFFFC00000AFFFF300000
1EFFFFB5567DFFFF200000
04EFFFFFFFFFFFFF000000
0017CFFFFFFFFFFF920000
00000012213FFFFFFFA300
00000000004AA988776510
ENDCHAR
STARTCHAR adieresis
ENCODING 228
SWIDTH 572 0
DWIDTH 18 0
BBX 21 26 0 -1
BITMAP
0000002200003100000000
000009FF701CFE30000000
00000FFFD04FFF80000000
00000CFFA02FFF50000000
000002981004A600000000
0000000000000000000000
0000000000000000000000
00000169BBA84000000000
00019FFFFFFFFD40000000
002DFFFDAAEFFFF4000000
00DFFF50001CFFFE100000
05FFFF400004FFFF500000
07FFFF800000EFFF900000
04FFFF500000DFFFA00000
008EE8000000CFFFB00000
000035787654EFFFB00000
005DFFFFFFFFFFFF900000
06FFFFFB9ABEFFFF800000
1FFFFE200006FFFF600000
5FFFFA000008FFFF500000
5FFFFC00000AFFFF300000
1EFFFFB5567DFFFF200000
04EFFFFFFFFFFFFF000000
0017CFFFFFFFFFFF920000
00000012213FFFFFFFA300
00000000004AA988776510
ENDCHAR
STARTCHAR aring
ENCODING 229
SWIDTH 572 0
DWIDTH 18 0
BBX 21 25 0 -1
BITMAP
000000002BEC4000000000
00000002EFFFF400000000
00000009FD5BFC00000000
0000000BF603FE00000000
00000009FD6BFB00000000
00000002EFFFF300000000
00000159CFFF7000000000
00019FFFFFFFFD40000000
002DFFFDAAEFFFF4000000
00DFFF50001CFFFE100000
05FFFF400004FFFF500000
07FFFF800000EFFF900000
04FFFF500000DFFFB00000
008EE8000000CFFFB00000
000035787654EFFFB00000
005DFFFFFFFFFFFF900000
06FFFFFB9ABEFFFF800000
1FFFFE200006FFFF600000
5FFFFA000008FFFF500000
5FFFFC00000AFFFF300000
1EFFFFB5567DFFFF200000
04EFFFFFFFFFFFFF000000
0017CFFFFFFFFFFF920000
00000012213FFFFFFFA300
00000000004AA988776510
ENDCHAR
STARTCHAR ae
ENCODING 230
SWIDTH 1022 0
DWIDTH 33 0
BBX 33 19 0 -1
BITMAP
0000048ABA861000000000000000000000
0006DFFFFFFFE700000015799740000000
00AFFFEBADFFFF90004BFFFFFFFE600000
07FFFA10008FFFF408FFFFFFFFFFFB1000
0EFFF900000EFFFB9FFFFC645AFFFFA000
1FFFFD000009FFFFFFFFC000007FFFF500
0EFFFB000007FFFFFFFF3000000CFFFC00
04DFA1000007FFFFFFFC00000008FFFF20
000156876549FFFFFFFFEEEEEDDEFFFF40
02AFFFFFFFFFFFFFFFFFFFFFFFFFFFFF50
2EFFFFC9ABDFFFFFFFFD99888877777620
AFFFF700000FFFFFFFFE10000000000000
EFFFF000002FFFFEFFFFB100000002A100
EFFFF300004FFFF8AFFFFE842347BF7000
9FFFFD7557BFFFF709FFFFFFFFFFF80000
1BFFFFFFFFFFFFF5004BFFFFFFFB300000
005AEFFFFFFFFFFC400025787510000000
0000012220DFFFFFFC5000000000000000
0000000000AA9987766300000000000000
ENDCHAR
STARTCHAR ccedilla
ENCODING 231
SWIDTH 589 0
DWIDTH 19 0
BBX 18 27 1 -11
BITMAP
00000048BCCA610000
00006DFFFFFFFE8000
001BFFFFFFFFFFFC10
01CFFFFA2017FFFFA0
09FFFFA00003FFFFF1
3FFFFE100004FFFFF2
8FFFFA000001EFFFE0
DFFFF70000004CEC30
EFFFF5000000000000
FFFFF5000000000001
EFFFF7000000000027
BFFFFC0000000001C6
6FFFFF600000001BF3
1EFFFFF7000003CFD0
05FFFFFFD978BFFF50
006FFFFFFFFFFFF900
0004DFFFFFFFFE7000
000005AEFFDB710000
0000001DFA00000000
0000009FFA40000000
000004FFFFF8000000
0000048ADFFF300000
0000000004FF800000
0000005301FF900000
000004FE9CFF700000
000007FFFFFD100000
0000005DFFA2000000
ENDCHAR
STARTCHAR egrave
ENCODING 232
SWIDTH 593 0
DWIDTH 19 0
BBX 18 27 1 -2
BITMAP
000000000044000000
000000005CFA000000
0000000BFFFF100000
00000004FFFF600000
00000000BFFFB00000
000000003FFFF10000
000000000AFFF60000
0000000002FE820000
000000000041000000
000000000000000000
00000169BBA7200000
00019FFFFFFFFA1000
003DFFFFFFFFFFD200
03EFFFFB77CFFFFC00
0CFFFF600008FFFF80
5FFFFA000000CFFFE1
BFFFF40000005FFFF4
EFFFF66555556FFFF8
FFFFFFFFFFFFFFFFF9
EFFFFFFFFFFFFFFFFA
CFFFF7666555444332
8FFFF5000000000010
2EFFFD200000000750
07FFFFE8310147DC00
008FFFFFFFFFFFD200
0006EFFFFFFFFA1000
000016BDEEC8300000
ENDCHAR
STARTCHAR eacute
ENCODING 233
SWIDTH 593 0
DWIDTH 19 0
BBX 18 28 1 -2
BITMAP
000000000100000000
000000000BB5000000
000000001FFFD30000
000000006FFFE10000
00000000BFFF700000
00000002FFFD000000
00000007FFF6000000
00000004BFC0000000
000000000230000000
000000000000000000
000000000000000000
00000169BBA7200000
00019FFFFFFFFA1000
003DFFFFFFFFFFD200
03EFFFFB77CFFFFC00
0CFFFF600008FFFF80
5FFFFA000000CFFFE1
BFFFF40000005FFFF4
EFFFF66555556FFFF8
FFFFFFFFFFFFFFFFF9
EFFFFFFFFFFFFFFFFA
CFFFF7666555444332
8FFFF5000000000010
2EFFFD200000000750
07FFFFE8310147DC00
008FFFFFFFFFFFD200
0006EFFFFFFFFA1000
000016BDEEC8300000
ENDCHAR
STARTCHAR ecircumflex
ENCODING 234
SWIDTH 593 0
DWIDTH 19 0
BBX 18 27 1 -2
BITMAP
000000001810000000
00000000CFB0000000
00000009FFF9000000
0000006FFFFF500000
000003FFFFFFE30000
00001DFFE9FFFD1000
0000BFFB202BFFB000
00008E6000006E7000
000000000000000000
000000000000000000
00000169BBA7200000
00019FFFFFFFFA1000
003DFFFFFFFFFFD200
03EFFFFB77CFFFFC00
0CFFFF600008FFFF80
5FFFFA000000CFFFE1
BFFFF40000005FFFF4
EFFFF66555556FFFF8
FFFFFFFFFFFFFFFFF9
EFFFFFFFFFFFFFFFFA
CFFFF7666555444332
8FFFF5000000000010
2EFFFD200000000750
07FFFFE8310147DC00
008FFFFFFFFFFFD200
0006EFFFFFFFFA1000
000016BDEEC8300000
ENDCHAR
STARTCHAR edieresis
ENCODING 235
SWIDTH 593 0
DWIDTH 19 0
BBX 18 24 1 -2
BITMAP
000000320000310000
000009FF601DFE2000
00000FFFC05FFF8000
00000CFFA02FFF5000
000002981004A60000
000000000000000000
000000000000000000
00000169BBA7200000
00019FFFFFFFFA1000
003DFFFFFFFFFFD200
03EFFFFB77CFFFFC00
0CFFFF600008FFFF80
5FFFFA000000CFFFE1
BFFFF40000005FFFF4
EFFFF66555556FFFF8
FFFFFFFFFFFFFFFFF9
EFFFFFFFFFFFFFFFFA
CFFFF7666555444332
8FFFF5000000000010
2EFFFD200000000750
07FFFFE8310147DC00
008FFFFFFFFFFFD200
0006EFFFFFFFFA1000
000016BDEEC8300000
ENDCHAR
STARTCHAR igrave
ENCODING 236
SWIDTH 393 0
DWIDTH 13 0
BBX 15 29 -1 -1
BITMAP
0000000350000000
000004BFD0000000
00008FFFF3000000
00002FFFF8000000
000008FFFD000000
000001EFFF400000
0000007FFF900000
0000000DF9300000
0000000310000000
0000000000000000
0000000000000000
3999999999940000
029EFFFFFFF60000
00018EFFFFF50000
000001FFFFF40000
000000EFFFF30000
000000EFFFF20000
000000DFFFF00000
000000CFFFE00000
000000CFFFD00000
000000BFFFC00000
000000AFFFB00000
000000AFFFA00000
0000009FFF900000
000000AFFF800000
00003CFFFFF70000
0019FFFFFFFFC200
03BDDDEEEEFFFF70
0000000000000010
ENDCHAR
STARTCHAR iacute
ENCODING 237
SWIDTH 393 0
DWIDTH 13 0
BBX 15 29 -1 -1
BITMAP
0000000010000000
000000009C600000
00000000EFFD4000
00000005FFFF2000
0000000AFFF90000
0000000EFFE10000
0000005FFF700000
0000003AFE100000
0000000024000000
0000000000000000
0000000000000000
3999999999940000
029EFFFFFFF60000
00018EFFFFF50000
000001FFFFF40000
000000EFFFF30000
000000EFFFF20000
000000DFFFF00000
000000CFFFE00000
000000CFFFD00000
000000BFFFC00000
000000AFFFB00000
000000AFFFA00000
0000009FFF900000
000000AFFF800000
00003CFFFFF70000
0019FFFFFFFFC200
03BDDDEEEEFFFF70
0000000000000010
ENDCHAR
STARTCHAR icircumflex
ENCODING 238
SWIDTH 393 0
DWIDTH 13 0
BBX 15 29 -1 -1
BITMAP
0000000370000000
0000001DF9000000
000000BFFF600000
000009FFFFF30000
00005FFFFFFD1000
0003EFFEAFFFB000
001DFF9104DFF800
001AD4000008E500
0000000000000000
0000000000000000
0000000000000000
3999999999940000
029EFFFFFFF60000
00018EFFFFF50000
000001FFFFF40000
000000EFFFF30000
000000EFFFF20000
000000DFFFF00000
000000CFFFE00000
000000CFFFD00000
000000BFFFC00000
000000AFFFB00000
000000AFFFA00000
0000009FFF900000
000000AFFF800000
00003CFFFFF70000
0019FFFFFFFFC200
03BDDDEEEEFFFF70
0000000000000010
ENDCHAR
STARTCHAR idieresis
ENCODING 239
SWIDTH 393 0
DWIDTH 13 0
BBX 15 26 -1 -1
BITMAP
0000022000031000
00008FF700CFE300
0000EFFE03FFF900
0000BFFB01EFF600
0000199100397000
0000000000000000
0000000000000000
0000000000000000
3999999999940000
029EFFFFFFF60000
00018EFFFFF50000
000001FFFFF40000
000000EFFFF30000
000000EFFFF20000
000000DFFFF00000
000000CFFFE00000
000000CFFFD00000
000000BFFFC00000
000000AFFFB00000
000000AFFFA00000
0000009FFF900000
000000AFFF800000
00003CFFFFF70000
0019FFFFFFFFC200
03BDDDEEEEFFFF70
0000000000000010
ENDCHAR
STARTCHAR eth
ENCODING 240
SWIDTH 672 0
DWIDTH 22 0
BBX 23 30 -1 -4
BITMAP
000048510000000000130000
0000019E9200000006EE2000
00000004EF920002BFFFB000
000000002DFE607FFFFE5000
0000000001CFFEFFFFB10000
00000000002EFFFFF6000000
0000000006EFFFFF60000000
00000002BFFFFFFFE3000000
0000008FFFFFE9FFFD200000
0000007FFFFA10DFFFC00000
0000000AFF60004FFFF90000
00000001A300000BFFFF3000
0000000000000005FFFFB000
0000000024677641EFFFF300
000005AEFFFFFFFFFFFFF900
0003DFFFFFFFFFFFFFFFFE00
005FFFFFE842249FFFFFFF20
04FFFFFA10000004EFFFFF50
0CFFFFB0000000005FFFFF70
2FFFFF20000000000DFFFF80
4FFFFD00000000000AFFFF70
4FFFFD000000000009FFFF50
3FFFFE00000000000BFFFF20
0EFFFF50000000001EFFFC00
07FFFFD1000000009FFFF500
00BFFFFC2000001AFFFFA000
001AFFFFFB878BFFFFFA0000
00005DFFFFFFFFFFFD500000
00000048BEFFFEC940000000
000000000001000000000000
ENDCHAR
STARTCHAR ntilde
ENCODING 241
SWIDTH 643 0
DWIDTH 21 0
BBX 26 24 -3 2
BITMAP
00000000000000000001000000
00000000017CEC820197000000
0000000003FFFFFFCEF8000000
0000000003FFFFFFFFF8000000
0000000003FEBEFFFFF8000000
0000000003B2017CED92000000
00000000010000000000000000
00000000000000000000000000
00000000013610000000000000
0001368BDFFF227BDDB7100000
5BDFFFFFFFFFCFFFFFFFD30000
016AEFFFFFFFFFFFFFFFFD0000
0000049FFFFFFC99CFFFFF6000
0000002FFFFF400008FFFFA000
0000000FFFFC000000DFFFC000
0000000DFFFA000000AFFFC000
0000000BFFF90000008FFFB000
00000009FFF70000008FFFA000
00000007FFF50000008FFF8000
00000005FFF40000008FFF6000
0000006CFFFC4000008FFF3000
00028EFFFFFFFB30009FFF1000
00144444444443327DFFFFD600
00000000000005BFFFFFFFFEC5
ENDCHAR
STARTCHAR ograve
ENCODING 242
SWIDTH 705 0
DWIDTH 23 0
BBX 23 27 0 -1
BITMAP
000000000001610000000000
00000000018EF50000000000
000000001EFFFA0000000000
0000000009FFFF1000000000
0000000002FFFF6000000000
00000000008FFFB000000000
00000000001EFFF100000000
000000000007FC6000000000
000000000000400000000000
000000000000000000000000
000000000234420000000000
0000049DFFFFFFFC72000000
0004DFFFFFFFFFFFFF910000
008FFFFFE96458EFFFFD2000
06FFFFF81000001AFFFFD100
1FFFFF7000000000CFFFF800
7FFFFD00000000004FFFFE00
9FFFF800000000000FFFFF20
AFFFF700000000000EFFFF30
9FFFF900000000000FFFFF20
6FFFFD00000000004FFFFE00
1EFFFF6000000000CFFFF800
04FFFFF50000001BFFFFB000
005EFFFFC7556AEFFFFB1000
0002BFFFFFFFFFFFFD600000
0000038CFFFFFFD950000000
000000000233210000000000
ENDCHAR
STARTCHAR oacute
ENCODING 243
SWIDTH 705 0
DWIDTH 23 0
BBX 23 27 0 -1
BITMAP
000000000001000000000000
00000000000CB40000000000
00000000002FFFC300000000
00000000007FFFE100000000
0000000000CFFF6000000000
0000000002FFFD0000000000
0000000008FFF50000000000
0000000004BFB00000000000
000000000003200000000000
000000000000000000000000
000000000234420000000000
0000049DFFFFFFFC72000000
0004DFFFFFFFFFFFFF910000
008FFFFFE96458EFFFFD2000
06FFFFF81000001AFFFFD100
1FFFFF7000000000CFFFF800
7FFFFD00000000004FFFFE00
9FFFF800000000000FFFFF20
AFFFF700000000000EFFFF30
9FFFF900000000000FFFFF20
6FFFFD00000000004FFFFE00
1EFFFF6000000000CFFFF800
04FFFFF50000001BFFFFB000
005EFFFFC7556AEFFFFB1000
0002BFFFFFFFFFFFFD600000
0000038CFFFFFFD950000000
000000000233210000000000
ENDCHAR
STARTCHAR ocircumflex
ENCODING 244
SWIDTH 705 0
DWIDTH 23 0
BBX 23 27 0 -1
BITMAP
000000000007400000000000
00000000008FE20000000000
0000000005FFFC1000000000
000000002EFFFFA000000000
00000001DFFFFFF700000000
0000000AFFFADFFF40000000
0000007FFD4019FFE2000000
0000004E8100003CA1000000
000000000000000000000000
000000000000000000000000
000000000234420000000000
0000049DFFFFFFFC72000000
0004DFFFFFFFFFFFFF910000
008FFFFFE96458EFFFFD2000
06FFFFF81000001AFFFFD100
1FFFFF7000000000CFFFF800
7FFFFD00000000004FFFFE00
9FFFF800000000000FFFFF20
AFFFF700000000000EFFFF30
9FFFF900000000000FFFFF20
6FFFFD00000000004FFFFE00
1EFFFF6000000000CFFFF800
04FFFFF50000001BFFFFB000
005EFFFFC7556AEFFFFB1000
0002BFFFFFFFFFFFFD600000
0000038CFFFFFFD950000000
000000000233210000000000
ENDCHAR
STARTCHAR otilde
ENCODING 245
SWIDTH 705 0
DWIDTH 23 0
BBX 23 25 0 -1
BITMAP
000000000000000010000000
00000004BEDA4005C0000000
0000000DFFFFFDCFD0000000
0000000DFFFFFFFFD0000000
0000000DFCDFFFFFD0000000
0000000C4004AEEB40000000
000000010000000000000000
000000000000000000000000
000000000234420000000000
0000049DFFFFFFFC72000000
0004DFFFFFFFFFFFFF910000
008FFFFFE96458EFFFFD2000
06FFFFF81000001AFFFFD100
1FFFFF7000000000CFFFF800
7FFFFD00000000004FFFFE00
9FFFF800000000000FFFFF20
AFFFF700000000000EFFFF30
9FFFF900000000000FFFFF20
6FFFFD00000000004FFFFE00
1EFFFF6000000000CFFFF800
04FFFFF50000001BFFFFB000
005EFFFFC7556AEFFFFB1000
0002BFFFFFFFFFFFFD600000
0000038CFFFFFFD950000000
000000000233210000000000
ENDCHAR
STARTCHAR odieresis
ENCODING 246
SWIDTH 705 0
DWIDTH 23 0
BBX 23 24 0 -1
BITMAP
000000002300003200000000
00000006FF900AFF50000000
0000000CFFF12FFFB0000000
00000009FFD00DFF80000000
000000018920039800000000
000000000000000000000000
000000000000000000000000
000000000234420000000000
0000049DFFFFFFFC72000000
0004DFFFFFFFFFFFFF910000
008FFFFFE96458EFFFFD2000
06FFFFF81000001AFFFFD100
1FFFFF7000000000CFFFF800
7FFFFD00000000004FFFFE00
9FFFF800000000000FFFFF20
AFFFF700000000000EFFFF30
9FFFF900000000000FFFFF20
6FFFFD00000000004FFFFE00
1EFFFF6000000000CFFFF800
04FFFFF50000001BFFFFB000
005EFFFFC7556AEFFFFB1000
0002BFFFFFFFFFFFFD600000
0000038CFFFFFFD950000000
000000000233210000000000
ENDCHAR
STARTCHAR divide
ENCODING 247
SWIDTH 504 0
DWIDTH 16 0
BBX 16 20 0 -1
BITMAP
0000000131000000
0000009FFF900000
000008FFFFF80000
00000BFFFFFC0000
000008FFFFF90000
0000008EFFA10000
0000000021000000
5876543321000000
AFFFFFFFFFFEEDC9
AFFFFFFFFFFFFFFC
AFFFFFFFFFFFFFFB
AFFFFFFFFFFEEDD9
3433221100000000
0000000120000000
000001AFFD500000
00000BFFFFF30000
00000FFFFFF80000
00000DFFFFF60000
000003DFFF800000
0000000341000000
ENDCHAR
STARTCHAR oslash
ENCODING 248
SWIDTH 705 0
DWIDTH 23 0
BBX 23 24 0 -4
BITMAP
000000000000000030000000
0000000000000005F9100000
000000000000001DFFD40000
000000000000008FFFF80000
00000000023444EFFFD10000
0000049DFFFFFFFFFF500000
0004DFFFFFFFFFFFFF810000
008FFFFFE964EFFFFFFD2000
06FFFFF81006FFFFFFFFD100
1FFFFF70001EFFFCCFFFF900
7FFFFD00008FFFF34FFFFE00
9FFFF80002FFFF900FFFFF30
AFFFF7000BFFFE100EFFFF30
9FFFF9004FFFF5000FFFFF20
5FFFFD00DFFFB0004FFFFE00
0DFFFF67FFFE2000CFFFF800
04FFFFFEFFF7001BFFFFB000
004EFFFFFFE56AEFFFFB1000
0002AFFFFFFFFFFFFD600000
00000CFFFFFFFFD950000000
00005FFFE333210000000000
0000DFFF6000000000000000
0002CFFB0000000000000000
000006E30000000000000000
ENDCHAR
STARTCHAR ugrave
ENCODING 249
SWIDTH 614 0
DWIDTH 20 0
BBX 25 28 -3 -2
BITMAP
00000000000034000000000000
00000000005CFC000000000000
0000000009FFFF200000000000
0000000003FFFF700000000000
0000000000AFFFC00000000000
00000000002FFFF20000000000
000000000008FFF70000000000
000000000001EE920000000000
00000000000031000000000000
00000000000000000000000000
3ABBBBBBBB2123333333341000
02AFFFFFFF205CFFFFFFFF3000
0004CFFFFF00004BFFFFFF1000
00000EFFFD0000004EFFFD0000
00000FFFFC0000000DFFFB0000
00000FFFFA0000000EFFF80000
00000FFFF90000000FFFF60000
00000FFFF80000001FFFF30000
00000FFFF70000001FFFF10000
00000FFFF70000002FFFE00000
00000EFFF70000003FFFB00000
00000BFFFB0000005FFF900000
000007FFFF500005EFFF700000
000001EFFFFC99CFFFFF400000
0000004FFFFFFFFFEFFFC71000
00000003AFFFFFF95FFFFFFB50
00000000014554105FFEC96310
00000000000000002520000000
ENDCHAR
STARTCHAR uacute
ENCODING 250
SWIDTH 614 0
DWIDTH 20 0
BBX 25 28 -3 -2
BITMAP
00000000000001000000000000
0000000000001E930000000000
0000000000006FFFB100000000
000000000000BFFFA000000000
000000000001FFFF2000000000
000000000006FFF90000000000
00000000000BFFE10000000000
000000000006DF800000000000
00000000000004100000000000
00000000000000000000000000
3ABBBBBBBB2123333333341000
02AFFFFFFF205CFFFFFFFF3000
0004CFFFFF00004BFFFFFF1000
00000EFFFD0000004EFFFD0000
00000FFFFC0000000DFFFB0000
00000FFFFA0000000EFFF80000
00000FFFF90000000FFFF60000
00000FFFF80000001FFFF30000
00000FFFF70000001FFFF10000
00000FFFF70000002FFFE00000
00000EFFF70000003FFFB00000
00000BFFFB0000005FFF900000
000007FFFF500005EFFF700000
000001EFFFFC99CFFFFF400000
0000004FFFFFFFFFEFFFC71000
00000003AFFFFFF95FFFFFFB50
00000000014554105FFEC96310
00000000000000002520000000
ENDCHAR
STARTCHAR ucircumflex
ENCODING 251
SWIDTH 614 0
DWIDTH 20 0
BBX 25 28 -3 -2
BITMAP
00000000000047000000000000
000000000002EF700000000000
00000000001DFFF40000000000
0000000000AFFFFE2000000000
0000000007FFFFFFC000000000
000000004FFFDAFFF900000000
00000002EFF8105DFF60000000
00000001BC3000019E40000000
00000000000000000000000000
00000000000000000000000000
3ABBBBBBBB2123333333341000
02AFFFFFFF205CFFFFFFFF3000
0004CFFFFF00004BFFFFFF1000
00000EFFFD0000004EFFFD0000
00000FFFFC0000000DFFFB0000
00000FFFFA0000000EFFF80000
00000FFFF90000000FFFF60000
00000FFFF80000001FFFF30000
00000FFFF70000001FFFF10000
00000FFFF70000002FFFE00000
00000EFFF70000003FFFB00000
00000BFFFB0000005FFF900000
000007FFFF500005EFFF700000
000001EFFFFC99CFFFFF400000
0000004FFFFFFFFFEFFFC71000
00000003AFFFFFF95FFFFFFB50
00000000014554105FFEC96310
00000000000000002520000000
ENDCHAR
STARTCHAR udieresis
ENCODING 252
SWIDTH 614 0
DWIDTH 20 0
BBX 25 25 -3 -2
BITMAP
00000000022000031000000000
000000009FF701CFE300000000
00000000FFFD04FFF800000000
00000000CFFA02FFF500000000
000000002981004A6000000000
00000000000000000000000000
00000000000000000000000000
3ABBBBBBBB2123333333341000
02AFFFFFFF205CFFFFFFFF3000
0004CFFFFF00004BFFFFFF1000
00000EFFFD0000004EFFFD0000
00000FFFFC0000000DFFFB0000
00000FFFFA0000000EFFF80000
00000FFFF90000000FFFF60000
00000FFFF80000001FFFF30000
00000FFFF70000001FFFF10000
00000FFFF70000002FFFE00000
00000EFFF70000003FFFB00000
00000BFFFB0000005FFF900000
000007FFFF500005EFFF700000
000001EFFFFC99CFFFFF400000
0000004FFFFFFFFFEFFFC71000
00000003AFFFFFF95FFFFFFB50
00000000014554105FFEC96310
00000000000000002520000000
ENDCHAR
STARTCHAR yacute
ENCODING 253
SWIDTH 655 0
DWIDTH 21 0
BBX 22 42 -2 -15
BITMAP
0000000000001000000000
000000000001E930000000
000000000006FFFB100000
00000000000BFFFA000000
00000000001FFFF2000000
00000000006FFF90000000
0000000000BFFE10000000
00000000006DF800000000
0000000000004100000000
3100000000000000000000
2DA5000000000000000000
02EFEA400018BA87532000
003EFFFE94005DFFFFFFEC
0005FFFFFFA0019FFFFFFE
00009FFFFF600004DFFFFE
0000CFFFFF1000008FFFFD
0001FFFFFB0000008FFFFC
0005FFFFF60000008FFFFC
0009FFFFF20000008FFFFB
000CFFFFD00000009FFFFA
000DFFFFC00000009FFFFA
000BFFFFF20000009FFFF9
0007FFFFFD400001BFFFF9
0001DFFFFFFDBBDFFFFFF8
00003EFFFFFFFFFFFFFFF7
0000018EFFFFFFEADFFFF7
0000000035664200BFFFF6
0000000000000000CFFFF5
0000000000000000CFFFF5
0000000000000000DFFFF4
0000000000000000DFFFF3
0000000000000000FFFFF2
0000387100000001FFFFF1
0003FFFC00000004FFFFD0
000AFFFF40000007FFFFA0
000BFFFF2000000CFFFF50
0008FFF70000005FFFFD00
0003FFFA100003EFFFF400
00007FFFE9669FFFFF8000
000007FFFFFFFFFFF60000
0000003AEFFFFFD9200000
0000000003554200000000
ENDCHAR
STARTCHAR thorn
ENCODING 254
SWIDTH 734 0
DWIDTH 24 0
BBX 27 37 -3 -14
BITMAP
1111111111111000000000000000
29FFFFFFFFFFD000000000000000
0029EFFFFFFFD000000000000000
000018EFFFFFD000000000000000
0000001AFFFFD000000000000000
00000007FFFFD000000000000000
00000007FFFFD000000000000000
00000006FFFFD000000000000000
00000006FFFFD000000000000000
00000005FFFFD000000000000000
00000005FFFFD000000000000000
00000005FFFFD000000000000000
00000004FFFFD024565310000000
00000004FFFFFEFFFFFFFB600000
00000003FFFFFFFFFFFFFFFD3000
00000003FFFFFA64357DFFFFE300
00000002FFFFE00000007FFFFD00
00000002FFFFE000000009FFFF50
00000002FFFFE000000002FFFFA0
00000001FFFFE000000000FFFFB0
00000001FFFFE000000001FFFFB0
00000000FFFFE000000004FFFF90
00000000FFFFE00000000CFFFF40
00000000EFFFE3000002BFFFFB00
00000000EFFFFFDA98BFFFFFD200
00000000EFFFFFFFFFFFFFFB2000
00000000DFFFF9DFFFFFEB500000
00000000DFFFE001234300000000
00000000CFFFF000000000000000
00000000CFFFF000000000000000
00000000BFFFF000000000000000
00000000BFFFF000000000000000
00000000BFFFF100000000000000
00000017EFFFFD71000000000000
000029EFFFFFFFFFA40000000000
003AFFFFFFEDDCCBAA7100000000
0143322100000000000000000000
ENDCHAR
STARTCHAR ydieresis
ENCODING 255
SWIDTH 655 0
DWIDTH 21 0
BBX 22 39 -2 -15
BITMAP
0000000022000031000000
00000009FF701CFE300000
0000000FFFD04FFF800000
0000000CFFA02FFF500000
00000002981004A6000000
0000000000000000000000
3100000000000000000000
2DA5000000000000000000
02EFEA400018BA87532000
003EFFFE94005DFFFFFFEC
0005FFFFFFA0019FFFFFFE
00009FFFFF600004DFFFFE
0000CFFFFF1000008FFFFD
0001FFFFFB0000008FFFFC
0005FFFFF60000008FFFFC
0009FFFFF20000008FFFFB
000CFFFFD00000009FFFFA
000DFFFFC00000009FFFFA
000BFFFFF20000009FFFF9
0007FFFFFD400001BFFFF9
0001DFFFFFFDBBDFFFFFF8
00003EFFFFFFFFFFFFFFF7
0000018EFFFFFFEADFFFF7
0000000035664200BFFFF6
0000000000000000CFFFF5
0000000000000000CFFFF5
0000000000000000DFFFF4
0000000000000000DFFFF3
0000000000000000FFFFF2
0000387100000001FFFFF1
0003FFFC00000004FFFFD0
000AFFFF40000007FFFFA0
000BFFFF2000000CFFFF50
0008FFF70000005FFFFD00
0003FFFA100003EFFFF400
00007FFFE9669FFFFF8000
000007FFFFFFFFFFF60000
0000003AEFFFFFD9200000
0000000003554200000000
ENDCHAR
STARTCHAR dotlessi
ENCODING 305
SWIDTH 393 0
DWIDTH 13 0
BBX 15 18 -1 -1
BITMAP
3999999999940000
029EFFFFFFF60000
00018EFFFFF50000
000001FFFFF40000
000000EFFFF30000
000000EFFFF20000
000000DFFFF00000
000000CFFFE00000
000000CFFFD00000
000000BFFFC00000
000000AFFFB00000
000000AFFFA00000
0000009FFF900000
000000AFFF800000
00003CFFFFF70000
0019FFFFFFFFC200
03BDDDEEEEFFFF70
0000000000000010
ENDCHAR
STARTCHAR Lslash
ENCODING 321
SWIDTH 713 0
DWIDTH 23 0
BBX 26 26 -3 0
BITMAP
11122222222222222222200000
16CFFFFFFFFFFFFFFFE8200000
00039EFFFFFFFFFFC600000000
0000005BFFFFFFA40000000000
00000002FFFFFF000000000000
00000001FFFFFF000000000000
00000000FFFFFE000000000000
00000000EFFFFE002100000000
00000000EFFFFE3AF800000000
00000000DFFFFFFFFE10000000
00000000CFFFFFFFFF80000000
00000000CFFFFFFFFFC0000001
0000006DFFFFFFFFB400000006
00016DFFFFFFFE820000000048
0009FFFFFFFFFC000000000098
0003FFFFFFFFFC0000000001E8
0000BFE89FFFFC0000000006F8
000046106FFFFB000000000CF8
000000006FFFFB000000003FF8
000000005FFFFB000000009FF8
000000004FFFFB00000000EFF8
000000003FFFFA00000005FFF8
00000003AFFFFEDCCBBAADFFF8
000003AFFFFFFFFFFFFFFFFFF8
0004BFFFFFFFFFFFFFFFEEDCC6
017AA988766544322100000000
ENDCHAR
STARTCHAR lslash
ENCODING 322
SWIDTH 365 0
DWIDTH 12 0
BBX 18 31 -4 -3
BITMAP
255556666677710000
039EFFFFFFFFF10000
00005BFFFFFFF10000
0000002CFFFFF00000
0000000AFFFFF00000
00000009FFFFE00000
00000008FFFFE00000
00000008FFFFD00000
00000007FFFFD00000
00000006FFFFC00560
00000005FFFFD8EFD0
00000005FFFFFFFFF4
00000005FFFFFFFFE5
000004AFFFFFFFE710
0017DFFFFFFFE71000
005FFFFFFFFF900000
000EFFFFFFFF800000
0008FFE8FFFF800000
0002E810FFFF700000
00001000EFFF700000
00000000EFFF600000
00000000DFFF600000
00000000CFFF500000
00000000CFFF500000
00000000BFFF400000
00000000AFFF300000
00000000AFFF300000
00000006EFFFD50000
000002BFFFFFFFA200
00007EFFFFFFFFFE60
000365544322110000
ENDCHAR
STARTCHAR OE
ENCODING 338
SWIDTH 1195 0
DWIDTH 38 0
BBX 37 25 0 -1
BITMAP
00000000000000000000000000000000000010
000000000000000000000012345678ABCDEFF0
00000000000345789ABCDFFFFFFFFFFFFFFFE0
0000000000026BFFFFFFFFFFFFFFFFFFDFFFD0
0000000000000016AEFFFFFFF86542100AFFD0
0000000000000000017FFFFFE000000003FFC0
0000026ADEFFDB72003FFFFFD000002000CFC0
00029FFFFFFFFFFFA22FFFFFD0000180006FB0
003EFFFFFB99CFFFFE5FFFFFD0000880000EB0
02EFFFFA200005EFFFFFFFFFC0001E800008A0
0CFFFF900000005FFFFFFFFFC0007F80000290
3FFFFD000000000BFFFFFFFFC001EF70000040
7FFFF70000000006FFFFFFFFC238FF70000000
9FFFF40000000003FFFFFFFFFFFFFF70000210
AFFFF40000000003FFFFFFFFFFFFFF70000620
8FFFF50000000004FFFFFFFFFFFFFF60000B20
5FFFF90000000007FFFFFFFF9129FF60001F20
1EFFFE100000000DFFFFFFFF9001DF60006F20
06FFFFA00000009FFFFFFFFF90004F5000AF20
00AFFFFB30004BFFFFACFFFF80000A5001EF20
0008FFFFFEEFFFFFF70BFFFF8000014005FF20
00003AFFFFFFFFE9200BFFFF800000000AFF20
0000001589A9740038EFFFFFFFFFFFFFFFFF30
000000000000016CFFFFFFFFFFFFFFFFFFFF30
0000000000016BBBBBBAAAAAAAA99999999920
ENDCHAR
STARTCHAR oe
ENCODING 339
SWIDTH 1087 0
DWIDTH 35 0
BBX 35 17 0 -2
BITMAP
000000257898630000000000010000000000
00016DFFFFFFFFE7100006ADFFFD94000000
003DFFFFFEEFFFFFE306EFFFFFFFFFB20000
02EFFFF930005DFFFFBFFFFFFFFFFFFE2000
0CFFFF50000001DFFFFFFFD51029FFFFD100
4FFFF7000000004FFFFFFE2000009FFFF800
8FFFF1000000000EFFFFF80000001EFFFE00
AFFFE0000000000CFFFFF30000000BFFFF40
9FFFE0000000000CFFFFFFFFEEEEEEFFFF60
7FFFF2000000000EFFFFFFFFFFFFFFFFFF70
2FFFF8000000006FFFFFFBAAAAA999988840
08FFFF50000003EFFFFFF500000000000000
00BFFFF942249FFFFFFFFD20000000007200
0008FFFFFFFFFFFF8BFFFFE72000137DA000
000028DFFFFFFD8200BFFFFFFFDEFFFB1000
00000001344310000006EFFFFFFFFE700000
0000000000000000000015ACEEDA61000000
ENDCHAR
STARTCHAR Scaron
ENCODING 352
SWIDTH 661 0
DWIDTH 21 0
BBX 21 36 0 -4
BITMAP
0000007200000054000000
000008FF70002BFF300000
000001EFFD47EFFA000000
0000003FFFFFFFC1000000
00000006FFFFFE20000000
000000009FFFF400000000
000000000CFF8000000000
0000000002DA0000000000
0000000000000000000000
0000000000000000000020
0000000000000000000560
0000159BDDDC9610003E40
0018EFFFFFFFFFFA31DF30
01CFFFFFCABDFFFFFEFF10
0CFFFF91000028EFFFFE00
4FFFFA000000001AFFFD00
8FFFF900000000006FFB00
AFFFFF700000000005F900
8FFFFFFE95200000008800
4FFFFFFFFFFD9510000300
0AFFFFFFFFFFFFE9200000
009FFFFFFFFFFFFFF91000
0004BFFFFFFFFFFFFFD200
0000027BEFFFFFFFFFFD10
00300000037CFFFFFFFF70
0092000000003BFFFFFFB0
00BA00000000009FFFFFC0
00DF70000000002FFFFFA0
00EFF8000000003FFFFF50
00FFFFC6100015EFFFFB00
02FEEFFFFDCCFFFFFFB100
03F72AFFFFFFFFFFD60000
05E10016ACEEDB83000000
0670000000000000000000
0610000000000000000000
0200000000000000000000
ENDCHAR
STARTCHAR scaron
ENCODING 353
SWIDTH 533 0
DWIDTH 17 0
BBX 17 30 0 -1
BITMAP
000045000000270000
0003FFB20007EF9000
00009FFF74CFFE2000
00000CFFFFFFF40000
000002EFFFFF700000
0000004FFFFA000000
00000007FFC1000000
00000000AE20000000
000000000000000000
000000000000000210
000027ABA840000A00
001AFFFFFFFD502F00
02DFFFFFFFFFFAAE00
0BFFF92004AFFFFE00
3FFFF0000003DFFD00
5FFFF50000002DFC00
4FFFFF92000002EC00
1EFFFFFFC720004B00
06FFFFFFFFFB400400
007FFFFFFFFFFC4000
0103BFFFFFFFFFF700
072004AFFFFFFFFF50
09B000016BFFFFFFD0
0BFA0000002BFFFFF0
0CFFB1000000CFFFE0
0EFFFE710002DFFFB0
0FFFFFFFCBCFFFFE30
2FC6DFFFFFFFFFD300
3E20048BDDCB940000
430000000000000000
ENDCHAR
STARTCHAR Ydieresis
ENCODING 376
SWIDTH 848 0
DWIDTH 27 0
BBX 34 31 -4 -3
BITMAP
0000000000000003100013000000000000
00000000000000CFE303EFC10000000000
00000000000003FFF908FFF40000000000
00000000000001EFF605FFF20000000000
000000000000004970006A400000000000
0000000000000000000000000000000000
0000000000000000000000000000000000
123445667899ABCC600000000000000000
38DFFFFFFFFFFFC3000000000000000000
0004AEFFFFFFF80000019BAA9988766541
0000016BFFFFFD10000007EFFFFFFFE820
000000008FFFFFB00000002AFFFFC50000
0000000009FFFFF900000005FFA3000000
0000000000BFFFFF6000005FFA00000000
00000000001CFFFFF40005FFB000000000
000000000002DFFFFE205FFC1000000000
0000000000003EFFFFD6FFD10000000000
00000000000004FFFFFFFE200000000000
000000000000006FFFFFE3000000000000
0000000000000007FFFF50000000000000
0000000000000003FFFF50000000000000
0000000000000003FFFF60000000000000
0000000000000004FFFF80000000000000
0000000000000005FFFF90000000000000
0000000000000005FFFFA0000000000000
0000000000000006FFFFC0000000000000
0000000000000006FFFFD0000000000000
000000000000001AFFFFF8200000000000
00000000000029EFFFFFFFFC7200000000
00000000004BFFFFFFFFFFFFFFC6100000
0000000001333333332222222222100000
ENDCHAR
STARTCHAR Zcaron
ENCODING 381
SWIDTH 685 0
DWIDTH 22 0
BBX 23 30 0 0
BITMAP
000000072000000640000000
0000009FE70002BFF2000000
0000002EFFC47FFF90000000
00000004FFFFFFFC00000000
000000007FFFFFE200000000
000000000AFFFF4000000000
0000000001DFF70000000000
00000000002EA00000000000
000000000000000000000000
000000000000000000000000
001122233444556667778870
6FFFFFFFFFFFFFFFFFFFFF30
2FFFFFFFFFFFFFFFFFFFF600
0DFFECCBBAA99CFFFFFF9000
09FF900000002EFFFFFC0000
05FF60000001DFFFFFE20000
01FF3000000CFFFFFF400000
00CF000000AFFFFFF7000000
008C000008FFFFFFA0000000
003A00005FFFFFFD10000500
00060003FFFFFFE200005700
0000002EFFFFFF500000D700
000001DFFFFFF8000007F600
00000BFFFFFFB000001EF500
00009FFFFFFD1000008FF400
0007FFFFFFF3000002EFF300
005FFFFFFFC776554AFFF200
03EFFFFFFFFFFFFFFFFFF200
2DFFFFFFFFFFFFFFFFFFF100
355555666666677777777000
ENDCHAR
STARTCHAR zcaron
ENCODING 382
SWIDTH 549 0
DWIDTH 18 0
BBX 19 29 0 -1
BITMAP
00001710000007200000
0000CFD50004DFD10000
00004FFFA39FFF600000
000007FFFFFFF9000000
000000AFFFFFC0000000
0000001DFFFE20000000
00000002EFF400000000
000000005F6000000000
00000000000000000000
00000000000000000000
00000000000000000000
25556677788899AAAB70
6FFFFFFFFFFFFFFFFD10
3FFFFFFFFFFFFFFFF300
0FFF9554438FFFFF7000
0CFF200003FFFFFB0000
09FD00001DFFFFE10000
06F80000BFFFFF400000
03F30008FFFFF8000000
01E0005FFFFFB0006000
007003EFFFFE2003A000
00101DFFFFF4000AB000
0000BFFFFF80002FB000
0008FFFFFC00008FC000
005FFFFFE20001EFD000
03EFFFFFFDCA9AFFE000
1DFFFFFFFFFFFFFFF000
489ABCDEFFFFFFFFF000
00000000012345678100
ENDCHAR
STARTCHAR circumflex
ENCODING 710
SWIDTH 714 0
DWIDTH 23 0
BBX 12 8 7 22
BITMAP
000007300000
00009FE10000
0006FFFC0000
003FFFFF9000
01DFFFFFF600
0BFFFAEFFE30
8FFD4019FFD1
5E8000004DA1
ENDCHAR
STARTCHAR caron
ENCODING 711
SWIDTH 714 0
DWIDTH 23 0
BBX 12 8 7 22
BITMAP
172000000630
AFE60003CFF2
3EFFC38FFF80
05FFFFFFFB00
008FFFFFD100
000BFFFF3000
0001DFF60000
00003E900000
ENDCHAR
STARTCHAR breve
ENCODING 728
SWIDTH 715 0
DWIDTH 23 0
BBX 11 7 7 23
BITMAP
1A4000001A30
5FF70002DFC0
0EFFD9AFFF40
05FFFFFFFA00
009FFFFFD100
0009FFFC1000
000026400000
ENDCHAR
STARTCHAR dotaccent
ENCODING 729
SWIDTH 708 0
DWIDTH 23 0
BBX 5 5 9 26
BITMAP
013000
3EFC00
9FFF40
6FFF20
079400
ENDCHAR
STARTCHAR ring
ENCODING 730
SWIDTH 704 0
DWIDTH 23 0
BBX 7 8 9 22
BITMAP
018A8100
1DFFFD10
9FE8DFA0
DF505FD0
BFA29FC0
4FFFFF40
04DFD500
00010000
ENDCHAR
STARTCHAR ogonek
ENCODING 731
SWIDTH 988 0
DWIDTH 32 0
BBX 12 9 10 -4
BITMAP
012100000000
0CFA00000000
5FF800000000
BFF800000000
DFFD00000000
DFFFC5345794
9FFFFFFFFFF4
1DFFFFFFFD40
017ACDB83000
ENDCHAR
STARTCHAR tilde
ENCODING 732
SWIDTH 707 0
DWIDTH 23 0
BBX 11 7 7 22
BITMAP
000000000010
17CEC7201970
4FFFFFFBEF70
4FFFFFFFFF70
4FEBFFFFFF70
4B1017CED910
100000000000
ENDCHAR
STARTCHAR hungarumlaut
ENCODING 733
SWIDTH 671 0
DWIDTH 22 0
BBX 12 9 6 23
BITMAP
001000010000
00CB400AC500
02FFFD4FFFD4
07FFFE6FFFF2
0CFFF6AFFF80
2FFFD1FFFE10
7FFF55FFF700
4BFC03AFD000
003300023000
ENDCHAR
STARTCHAR endash
ENCODING 8211
SWIDTH 576 0
DWIDTH 18 0
BBX 16 6 1 9
BITMAP
0111222333444552
1FFFFFFFFFFFFFF6
1FFFFFFFFFFFFFF6
1FFFFFFFFFFFFFF7
1FFFFFFFFFFFFFF7
0222334445566673
ENDCHAR
STARTCHAR emdash
ENCODING 8212
SWIDTH 993 0
DWIDTH 32 0
BBX 29 5 1 9
BITMAP
1ABBBBBCCCCCCDDDDDEEEEEFFFFFB0
1FFFFFFFFFFFFFFFFFFFFFFFFFFFB0
1FFFFFFFFFFFFFFFFFFFFFFFFFFFC0
1FFFFFFFFFFFFFFFFFFFFFFFFFFFC0
166777778888899999AAAAABBBBBA0
ENDCHAR
STARTCHAR quoteleft
ENCODING 8216
SWIDTH 261 0
DWIDTH 8 0
BBX 8 10 0 13
BITMAP
0001EA30
0008FFFB
002FFFFB
00AFFFF6
03FFFFF1
0BFFFFB0
4FFFFF50
4CFFFF10
003AFA00
00002300
ENDCHAR
STARTCHAR quoteright
ENCODING 8217
SWIDTH 301 0
DWIDTH 10 0
BBX 8 11 1 13
BITMAP
00100000
008C6000
00DFFE81
03FFFFF7
08FFFFD0
0DFFFF60
3FFFFC00
9FFFF400
DFFFB000
28EF3000
00040000
ENDCHAR
STARTCHAR quotesinglbase
ENCODING 8218
SWIDTH 332 0
DWIDTH 11 0
BBX 8 11 1 -3
BITMAP
00100000
008C6000
00DFFE81
03FFFFF7
08FFFFD0
0DFFFF60
3FFFFC00
9FFFF400
DFFFB000
28EF3000
00040000
ENDCHAR
STARTCHAR quotedblleft
ENCODING 8220
SWIDTH 477 0
DWIDTH 15 0
BBX 15 10 0 13
BITMAP
0001EA30002E9200
0008FFFB00AFFFA0
002FFFFB03FFFF90
00AFFFF60BFFFF40
03FFFFF14FFFFE00
0BFFFFB0CFFFF900
4FFFFF56FFFFF400
4CFFFF15CFFFD000
003AFA0004BF8000
0000230000032000
ENDCHAR
STARTCHAR quotedblright
ENCODING 8221
SWIDTH 477 0
DWIDTH 15 0
BBX 15 11 0 13
BITMAP
0001000000000000
003E820004E71000
008FFFA30AFFF930
00DFFFFC0EFFFFB0
03FFFFF45FFFFF30
08FFFFB0AFFFF900
0DFFFF30EFFFF200
3FFFF905FFFF8000
8FFFF20AFFFE1000
06CF80016DF70000
0003100000400000
ENDCHAR
STARTCHAR quotedblbase
ENCODING 8222
SWIDTH 477 0
DWIDTH 15 0
BBX 15 11 0 -3
BITMAP
0001000000000000
003E820004E71000
008FFFA30AFFF930
00DFFFFC0EFFFFB0
03FFFFF45FFFFF30
08FFFFB0AFFFF900
0DFFFF30EFFFF200
3FFFF905FFFF8000
8FFFF20AFFFE1000
06CF80016DF70000
0003100000400000
ENDCHAR
STARTCHAR dagger
ENCODING 8224
SWIDTH 487 0
DWIDTH 16 0
BBX 15 37 0 -10
BITMAP
0000059ABC900000
000008FFFFB00000
000007FFFFB00000
000007FFFFA00000
000007FFFFA00000
000006FFFFA00000
000006FFFF900000
032106FFFF900000
2FFFFFFFFFD98760
3FFFFFFFFFFFFFD0
4FFFFFFFFFFFFFC0
5FFFFFFFFFFFFFB0
5DDCCCFFFFC88740
000004FFFF700000
000004FFFF700000
000003FFFF700000
000003FFFF600000
000003FFFF600000
000003FFFF600000
000002FFFF500000
000002FFFF500000
000002FFFF400000
000001FFFF400000
000001FFFF400000
000001FFFF300000
000000FFFF300000
000000FFFF300000
000000FFFF200000
000000FFFF200000
000000EFFF200000
000000EFFF100000
000000EFFF100000
000000DFFF100000
000000DFFF000000
000000DFFF000000
000000DFFF000000
0000005666000000
ENDCHAR
STARTCHAR daggerdbl
ENCODING 8225
SWIDTH 497 0
DWIDTH 16 0
BBX 15 37 0 -10
BITMAP
0000059ABC900000
000008FFFFB00000
000007FFFFB00000
000007FFFFA00000
000007FFFFA00000
000006FFFFA00000
000006FFFF900000
032106FFFF900000
2FFFFFFFFFD98760
3FFFFFFFFFFFFFD0
4FFFFFFFFFFFFFC0
5FFFFFFFFFFFFFB0
5DDCCCFFFFC88740
000004FFFF700000
000004FFFF700000
000003FFFF834540
3ABCCEFFFFFFFFB0
4FFFFFFFFFFFFFC0
3FFFFFFFFFFFFFD0
2FFFFFFFFFFFFFD0
045568FFFFBAABA0
000002FFFF500000
000002FFFF400000
000001FFFF400000
000001FFFF400000
000001FFFF300000
000000FFFF300000
000000FFFF300000
000000FFFF200000
000000EFFF200000
000000EFFF200000
000000EFFF100000
000000EFFF100000
000000DFFF100000
000000DFFF000000
000000DFFF000000
0000005666000000
ENDCHAR
STARTCHAR bullet
ENCODING 8226
SWIDTH 275 0
DWIDTH 9 0
BBX 9 10 0 7
BITMAP
0027961000
06FFFFE400
4FFFFFFE20
CFFFFFFF90
FFFFFFFFC0
EFFFFFFFB0
9FFFFFFF70
1EFFFFFC00
02BFFF9100
0001210000
ENDCHAR
STARTCHAR ellipsis
ENCODING 8230
SWIDTH 787 0
DWIDTH 25 0
BBX 25 6 0 -3
BITMAP
01798200001797200001797100
1DFFFE3002DFFFE3002EFFFE20
9FFFFFC009FFFFFC00AFFFFFB0
AFFFFFD00AFFFFFD00BFFFFFC0
3EFFFF7004EFFFF6004FFFFF50
029BA5000039BA4000039BA400
ENDCHAR
STARTCHAR perthousand
ENCODING 8240
SWIDTH 888 0
DWIDTH 28 0
BBX 30 27 0 -2
BITMAP
00000000000004C730000000000000
0014663000000AFFFD000000000000
06EFFFFB20002FFFF9000000000000
5FFFFFFFD0007FFFF3000000000000
CFFC24FFF600DFFFB0000000000000
FFF600CFF804FFFF40000000000000
EFF700DFF80AFFFD00000000000000
AFFE58FFF42FFFF600000000000000
2EFFFFFFA07FFFE100000000000000
02BFFFE700DFFF8000000000000000
0001330004FFFF2000000000000000
000000000AFFFA0000000000000000
000000002FFFF30000000000000000
000000008FFFC00000000000000000
00000000DFFF500000000000000000
00000005FFFD000000000000000000
0000000BFFF7000454100002553000
0000002FFFF107EFFFF804CFFFFB20
0000008FFF907FFFFFFFBEFFFFFFD1
000000DFFF30EFFB38FFFFFE44EFF7
000005FFFB03FFF300EFFFF800AFFA
00000BFFF402FFF300FFFFF800AFFA
00002FFFD000EFFB49FFFFFE46FFF6
00008FFF60005FFFFFFF9EFFFFFFC0
0000DFFE100005DFFFE702BFFFF910
00019EF80000000343000002441000
000000520000000000000000000000
ENDCHAR
STARTCHAR guilsinglleft
ENCODING 8249
SWIDTH 234 0
DWIDTH 8 0
BBX 8 17 0 -1
BITMAP
00000450
00001DB0
0000BFF1
0007FFA0
003FFF40
01DFFC00
0AFFF500
5FFFE000
AFFF9000
5FFFE000
09FFF600
01DFFC00
003FFF40
0006FFA0
0000AFF1
00001DB0
00000340
ENDCHAR
STARTCHAR guilsinglright
ENCODING 8250
SWIDTH 223 0
DWIDTH 7 0
BBX 8 17 0 -1
BITMAP
09000000
4F700000
9FF30000
3FFD1000
0CFFA000
05FFF600
00DFFE20
007FFFC0
002FFFF2
007FFFC0
00DFFE20
05FFF500
0CFF9000
3FFD1000
9FF30000
4F600000
08000000
ENDCHAR
STARTCHAR fraction
ENCODING 8260
SWIDTH 600 0
DWIDTH 19 0
BBX 22 31 -1 -4
BITMAP
0000000000000000820000
0000000000000005FE7000
000000000000000DFFFC20
000000000000007FFFFFE1
00000000000002EFFFFF70
0000000000000AFFFFFC00
0000000000003FFFFFF300
000000000000CFFFFF9000
000000000006FFFFFE1000
00000000001EFFFFF50000
00000000008FFFFFB00000
0000000002FFFFFF200000
000000000AFFFFF7000000
000000004FFFFFD0000000
00000000CFFFFF40000000
00000006FFFFFA00000000
0000001EFFFFE100000000
0000009FFFFF6000000000
000003FFFFFC0000000000
00000BFFFFF30000000000
00005FFFFF800000000000
0000DFFFFD100000000000
0007FFFFF5000000000000
002EFFFFA0000000000000
00AFFFFE20000000000000
03FFFFF700000000000000
0CFFFFC000000000000000
6FFFFF3000000000000000
BFFFF90000000000000000
06EFE10000000000000000
0019500000000000000000
ENDCHAR
STARTCHAR Euro
ENCODING 8364
SWIDTH 590 0
DWIDTH 19 0
BBX 21 20 -1 1
BITMAP
0000000005ADEEB7100000
00000005EFFFFFFFE60000
0000008FFFFCABFFFF7000
000008FFFF60002DFFF300
00004FFFF600000EFFFA00
0000CFFFD000002FFFFC00
0003FFFF7000000DFFF800
DFEEFFFFCAA98302AC9100
DFFFFFFFFFFFF800000000
EFFFFFFFEEDDDA00000000
111BFFFF10000000000000
577DFFFFA9AAAB40000010
DFFFFFFFFFFFFFA0000720
9AABFFFFFEEFFFE0004E00
0000DFFFF900011004EB00
00004FFFFFB200029FF400
000008FFFFFFDBCFFF9000
0000008FFFFFFFFFFA0000
00000004CFFFFFFD600000
0000000003688740000000
ENDCHAR
STARTCHAR trademark
ENCODING 8482
SWIDTH 624 0
DWIDTH 20 0
BBX 21 15 0 9
BITMAP
0008400000000000000000
001F400000000000000000
007F300000000000000000
17FF100000000000000000
EFFFEC9000000000000000
39FE898000000000000000
08FC000146424200330000
09FB029FFFEFFF9EFF9000
0AF90001BFC59FFB7EF100
0BF800009F500EE10AF300
0CF700307F400DC009F200
0DF704606F300DB00AF100
0AFD9E46CDB32EB18DEC30
03EFF8000005AAA7000000
0013200000000000000000
ENDCHAR
STARTCHAR minus
ENCODING 8722
SWIDTH 549 0
DWIDTH 18 0
BBX 18 6 0 8
BITMAP
8DDCBAA98766543320
9FFFFFFFFFFFFFFFF4
9FFFFFFFFFFFFFFFF3
9FFFFFFFFFFFFFFFF2
AFFFFFFFFFFFFFFFF1
7AA998877665554430
ENDCHAR
STARTCHAR fi
ENCODING 64257
SWIDTH 757 0
DWIDTH 24 0
BBX 28 44 -2 -13
BITMAP
00000000000159AA962000000000
00000000006EFFFFFFFB30000000
0000000009FFFFFFFFFFF7000000
000000008FFFD4016EFFFF600000
00000002FFFF300003EFFFE10000
00000009FFFA0000007FFFF70000
0000000EFFF60000009FFFFC0000
0000003FFFF4000004FFFFFE0000
0000006FFFF4000007FFFFFF0000
0000007FFFF4000006FFFFFD0000
0000007FFFF4000000CFFFF50000
0000007FFFF500000017BA400000
0000006FFFF60000000000000000
0000005FFFF70000000000000000
0001114FFFF91122223334440000
008FFFFFFFFFFFFFFFFFFFFF1000
008FFFFFFFFFFFFFFFFFFFFF0000
006CCCCFFFFFCCBBBBDFFFFE0000
0000000CFFFF3000008FFFFC0000
0000000AFFFF4000006FFFFB0000
00000008FFFF6000005FFFFA0000
00000006FFFF8000004FFFF90000
00000005FFFFA000002FFFF80000
00000003FFFFB000001FFFF60000
00000001FFFFD000000FFFF50000
00000000EFFFF000000EFFF40000
00000000DFFFF200000DFFF30000
00000000BFFFF300001DFFF20000
000000009FFFF50005DFFFFD4000
000000007FFFF702BFFFFFFFF800
000000005FFFF84CDDDEEEFFFFC3
000000003FFFFA00000000000011
000000001FFFFC00000000000000
000000000EFFFD00000000000000
000000000CFFFE00000000000000
038710000BFFFE00000000000000
3FFFC0000BFFFD00000000000000
8FFFF3000CFFFA00000000000000
8FFFF2000EFFF600000000000000
4FFFA0005FFFF100000000000000
0CFFE402EFFF8000000000000000
03EFFFEFFFFB0000000000000000
003DFFFFFF910000000000000000
000059BB83000000000000000000
ENDCHAR
STARTCHAR fl
ENCODING 64258
SWIDTH 776 0
DWIDTH 25 0
BBX 29 44 -2 -13
BITMAP
0000000000017BCDB9500000000000
00000000007EFFFFFFFD4000000000
0000000009FFFFDDFFFFF600000000
000000007FFFB2003DFFFF50000000
00000002FFFE100003FFFFD0000000
00000009FFF9000000CFFFF5000000
0000000EFFF60000008FFFFA000000
0000003FFFF40000005FFFFE000000
0000006FFFF40000003FFFFF200000
0000007FFFF40000002FFFFF300000
0000007FFFF40000001FFFFF400000
0000007FFFF50000001FFFFF500000
0000006FFFF60000000FFFFF400000
0000005FFFF70000000EFFFF400000
0001114FFFF91111100EFFFF400000
008FFFFFFFFFFFFFF10DFFFF400000
008FFFFFFFFFFFFFF10CFFFF300000
006CCCCFFFFFCCCCC10CFFFF300000
0000000CFFFF3000000BFFFF200000
0000000AFFFF4000000AFFFF100000
00000008FFFF6000000AFFFF100000
00000007FFFF80000009FFFF000000
00000005FFFFA0000008FFFE000000
00000003FFFFB0000008FFFE000000
00000001FFFFD0000007FFFD000000
00000000EFFFF0000007FFFC000000
00000000DFFFF2000006FFFB000000
00000000BFFFF3000005FFFB000000
000000009FFFF5000005FFFA000000
000000007FFFF7000004FFF9000000
000000005FFFF800003CFFFF810000
000000003FFFFA0007FFFFFFFD5000
000000001FFFFC03CFFFFFFFFFF910
000000000EFFFD1655443321100000
000000000CFFFE0000000000000000
038710000BFFFE0000000000000000
3FFFC0000BFFFD0000000000000000
8FFFF3000CFFFA0000000000000000
8FFFF2000EFFF60000000000000000
4FFFA0005FFFF10000000000000000
0CFFE402EFFF800000000000000000
03EFFFEFFFFB000000000000000000
003DFFFFFF91000000000000000000
000059BB8300000000000000000000
ENDCHAR
STARTCHAR .notdef
ENCODING -1
SWIDTH 320 0
DWIDTH 10 0
BBX 1 1 0 0
BITMAP
00
ENDCHAR
ENDFONT
